<svg width="580" height="672" viewBox="0 0 580 672" fill="none" xmlns="http://www.w3.org/2000/svg">
<g clip-path="url(#clip0_101_2)">
<path d="M164.09 601.37V591.84H129.27C129.27 591.34 129.27 590.84 129.27 590.35H164.04V579.7H129.28C129.28 579.2 129.28 578.7 129.28 578.21H164V567.09H129.3V565.8H163.93V553.8H129.27V552.32H164.05V541.68H129.27C129.27 541.19 129.27 540.68 129.27 540.2H164.27V525.91H165.75V539.45H202.11V525.96L203.58 525.88V539.35H388.92V525.88H390.4V539.48H427.86V525.91H429.33V539.73C440.18 539.73 442.74 539.32 452.83 539.32V540.8C442.83 540.8 440.43 541.22 430.08 541.22V551.88C440.08 551.88 442.64 551.46 452.77 551.46L452.83 552.94C442.91 552.94 440.52 553.36 430.14 553.36V565.61C440.25 565.61 442.76 565.19 452.79 565.19C452.79 565.68 452.79 566.19 452.79 566.67C442.79 566.67 440.3 567.09 429.98 567.09V577.75C440.14 577.75 442.69 577.33 452.77 577.33V578.81C442.77 578.81 440.36 579.23 430.01 579.23V589.89C440.01 589.89 442.61 589.47 452.73 589.47V590.96C442.8 590.96 440.4 591.37 430.03 591.37V601.37C440.17 601.37 442.67 600.95 452.7 600.95C452.7 601.44 452.7 601.95 452.7 602.43C442.7 602.43 440.19 602.85 429.45 602.85V615.85H428.13V603.27H390.67V615.78H389.19V603.34H204.31V615.75L202.84 615.8V603.4H166.01V615.79H164.53V602.86H129.27V601.37H164.09ZM204.37 565.15H388.37V554.15H204.37V565.15ZM204.49 541.81V551.63H388.53V541.81H204.49ZM204.37 577.48H388.62V567.58H204.37V577.48ZM204.37 589.8H388.44V579.89H204.37V589.8ZM388.63 592.2H204.53V600.95H388.63V592.2ZM427.7 554.2H390.91V565.14H427.7V554.2ZM202.09 554.2H166.58V565.2H202.09V554.2ZM390.89 551.78H427.53V541.88H390.89V551.78ZM390.89 577.47H427.53V567.59H390.89V577.47ZM390.89 589.76H427.53V579.88H390.89V589.76ZM202.1 541.88H166.58V551.76H202.1V541.88ZM166.38 577.48H201.92V567.58H166.38V577.48ZM166.44 579.81V589.69H202.04V579.81H166.44ZM390.89 600.93H427.53V592.16H390.89V600.93ZM166.32 600.93H202.05V592.26H166.32V600.93Z" fill="white"/>
<path d="M390.22 359.64C414.97 316.01 434.34 270.27 444.16 220.87C446.36 209.76 446.86 198.32 450.3 187.43C456.89 166.62 476.19 151.69 499.59 150.98C518.91 150.4 540.59 161.93 549.44 182.79C555.74 197.6 553.66 212.1 550.04 227.02C539.51 270.42 522.12 310.94 500.64 349.95C477.04 392.82 448.38 432.05 416.49 468.95C406.19 480.89 396.01 493.1 383.95 503.26C376.64 509.48 374.53 516.8 373.69 525.48C370.443 561.173 367.093 596.86 363.64 632.54C362.95 639.66 361.64 646.73 361.12 653.86C360.75 658.97 356.77 659.49 353.51 660.68C337.25 666.6 320.41 669.21 303.11 669.55C274.38 670.12 246.38 665.2 218.49 659.19C214.43 658.31 213.01 656.38 212.96 652.06C212.67 624.23 212.5 596.38 211.4 568.57C210.06 534.81 208.4 501.05 205.76 467.37C204.65 453.1 203.85 438.78 202.44 424.51C201.88 418.92 199.44 417.63 194.96 416.74C171.07 411.98 149.82 401.32 130.31 387.08C101.99 366.48 81.53 339.31 65.83 308.19C51.08 278.96 41.83 248.02 35.41 216.09C31.0772 194.308 28.2207 172.257 26.86 150.09C25.06 120.64 50.11 97.9 73.86 95.62C111.27 92.01 135.49 121.83 133.86 155.36C131.8 198.8 137.06 241.5 154.93 281.74C162.363 298.803 173.82 313.812 188.32 325.48C189.96 326.8 191.55 328.96 194.52 328.4C193.52 309.95 191.89 291.6 189.88 273.27C188.52 260.86 187.7 248.38 186.88 235.92C185.19 210.02 183.63 184.1 184.11 158.13C184.69 127.04 186.69 95.99 197.02 66.33C210.12 28.74 233.67 6.33001 276.02 2.51001C294.02 0.880011 311.21 2.83001 327.42 10.51C345.67 19.24 358.18 34.08 367.81 51.48C381.42 76.04 387.32 103.01 391.52 130.36C395.732 157.607 397.453 185.181 396.66 212.74C395.83 240.23 394.29 267.74 392.25 295.23C390.96 312.51 389.41 329.84 388.91 347.23C387.39 351.11 388.33 355.12 388.33 359.06C388.33 359.98 389.26 360.48 390.22 359.64Z" fill="white" stroke="white" stroke-width="4" stroke-miterlimit="10"/>
<path d="M204.1 609.16C183.2 609.45 162.29 609.32 141.38 609.25C133.19 609.25 130.46 606.49 130.44 598.45C130.44 578.7 130.44 558.96 130.44 539.21C130.44 528.07 132.68 525.84 143.86 525.84C163.37 525.84 182.86 525.74 202.4 525.91C206.63 525.91 208.6 525.11 208.7 520.23C208.82 514.67 206.04 514.48 201.83 514.48C144.923 514.56 88.0134 514.587 31.1 514.56C15.1 514.56 2.10001 527.86 2.04001 543.97C1.99001 561.86 2.04001 579.74 2.04001 597.63C2.04001 615.89 14.82 628.74 33.04 628.75C61.38 628.75 89.7133 628.75 118.04 628.75C145.22 628.75 172.4 628.84 199.58 628.75C213.39 628.68 211.04 631.01 211.65 616.45C211.91 610.39 209.7 609.08 204.1 609.16ZM71.68 617.48C45.85 619.22 22.83 597.73 22.23 567.62C21.72 542.34 40.98 515.81 77.42 518.03C96.55 519.2 123 534.94 123.04 567.42C123.08 597.34 100.33 619.19 71.68 617.48Z" fill="white" stroke="white" stroke-width="4" stroke-miterlimit="10"/>
<path d="M577.17 546.6C577.1 528.54 563.95 515.45 545.95 515.45C506.47 515.45 466.993 515.45 427.52 515.45C412.42 515.45 397.32 515.61 382.23 515.36C377.01 515.28 375.47 517.24 375.31 522.29C375.14 527.93 378.78 526.71 381.77 526.72C399.88 526.78 417.99 526.72 436.11 526.72C446.93 526.72 449.31 529.05 449.32 539.6C449.32 558.867 449.32 578.14 449.32 597.42C449.32 607.96 447.18 610.15 436.8 610.16C415.66 610.16 394.53 610.29 373.4 610.07C368.21 610.02 365.4 611.47 365.6 617.07C365.582 618.456 365.404 619.835 365.07 621.18C363.51 628.85 364.07 629.67 371.89 629.67C401.15 629.67 430.41 629.67 459.67 629.67C488.463 629.67 517.26 629.67 546.06 629.67C550.126 629.694 554.157 628.915 557.922 627.379C561.687 625.842 565.112 623.578 568.001 620.716C570.89 617.855 573.186 614.451 574.758 610.7C576.329 606.95 577.146 602.926 577.16 598.86C577.253 581.447 577.257 564.027 577.17 546.6ZM506.36 618.85C479.36 621.36 456.47 598.38 456.7 569.71C456.93 540.44 478.7 518.38 510.33 519.53C534.51 520.42 557.02 539.9 557.53 569.86C558 597.48 535.53 621.67 506.36 618.85Z" fill="white" stroke="white" stroke-width="4" stroke-miterlimit="10"/>
</g>
<defs>
<clipPath id="clip0_101_2">
<rect width="579.22" height="671.64" fill="white"/>
</clipPath>
</defs>
</svg>
