<svg width="360" height="150" viewBox="0 0 360 150" fill="none" xmlns="http://www.w3.org/2000/svg">
<g clip-path="url(#clip0_168_2955)">
<path d="M0.53125 134.148C0.53125 127.39 5.79801 122.191 12.6508 122.191C15.4899 122.235 18.5318 123.523 20.7836 125.649L17.4277 130.126C16.0771 128.851 14.2882 128.016 12.6643 128.016C9.27852 128.016 6.45297 130.692 6.45297 134.192C6.45297 137.734 9.40302 140.34 12.5425 140.34C14.3856 140.34 16.0365 139.434 17.4548 138.116L20.7836 142.719C18.6834 144.704 15.885 146.078 12.5425 146.078C6.33118 146.078 0.53125 141.318 0.53125 134.148Z" fill="#2A377C"/>
<path d="M39.5745 134.135C39.5745 130.608 36.9006 127.888 33.4065 127.888C29.9125 127.888 27.2385 130.608 27.2385 134.135C27.2385 137.647 29.9125 140.353 33.4065 140.353C36.9006 140.353 39.5745 137.647 39.5745 134.135ZM21.3276 134.178C21.3276 127.319 26.57 122.121 33.4065 122.121C40.243 122.121 45.4854 127.319 45.4854 134.178C45.4854 140.976 40.243 146.149 33.393 146.149C26.5538 146.149 21.3276 140.976 21.3276 134.178Z" fill="#2A377C"/>
<path d="M68.025 122.702V145.794H66.1684L54.8527 134.418V145.58H49.0122V122.505H50.8959L62.1682 133.837V122.702H68.025Z" fill="#2A377C"/>
<path d="M87.6031 128.396H82.3363V145.566H76.4796V128.396H71.1992V122.729H87.6031V128.396Z" fill="#2A377C"/>
<path d="M96.5938 132.76L98.9808 132.775C100.223 132.789 101.357 131.883 101.357 130.481C101.357 129.063 100.21 128.186 98.9808 128.186H96.5938V132.76ZM102.504 145.566L96.6208 135.65V145.566H90.7776L90.7505 122.729H99.1053C103.855 122.729 107.252 126.058 107.252 130.153C107.252 133 105.601 135.382 103.444 136.402L109.341 145.566H102.504Z" fill="#2A377C"/>
<path d="M121.577 116.496H124.841L129.138 120.649H124.949L123.214 118.808L121.482 120.649H117.333L121.577 116.496ZM129.398 134.135C129.398 130.608 126.722 127.888 123.228 127.888C119.734 127.888 117.059 130.608 117.059 134.135C117.059 137.647 119.734 140.354 123.228 140.354C126.722 140.354 129.398 137.647 129.398 134.135ZM111.151 134.178C111.151 127.32 116.391 122.121 123.228 122.121C130.067 122.121 135.307 127.32 135.307 134.178C135.307 140.977 130.067 146.149 123.214 146.149C116.378 146.149 111.151 140.977 111.151 134.178Z" fill="#2A377C"/>
<path d="M153.096 139.873V145.567H138.836V122.732H144.677V139.873H153.096Z" fill="#2A377C"/>
<path d="M162.02 128.369V131.558H169.008V136.614H162.02V139.886H170.508V145.566H156.248V122.729H170.508V128.369H162.02Z" fill="#2A377C"/>
<path d="M195.24 128.396H189.97V145.566H184.116V128.396H178.833V122.729H195.24V128.396Z" fill="#DE2032"/>
<path d="M204.159 128.369V131.558H211.147V136.614H204.159V139.886H212.65V145.566H198.386V122.729H212.65V128.369H204.159Z" fill="#DE2032"/>
<path d="M215.605 134.148C215.605 127.39 220.874 122.191 227.728 122.191C230.564 122.235 233.609 123.523 235.86 125.649L232.505 130.126C231.151 128.851 229.365 128.016 227.741 128.016C224.355 128.016 221.53 130.692 221.53 134.192C221.53 137.734 224.477 140.34 227.616 140.34C229.46 140.34 231.111 139.434 232.532 138.116L235.86 142.719C233.76 144.704 230.962 146.078 227.616 146.078C221.408 146.078 215.605 141.318 215.605 134.148Z" fill="#DE2032"/>
<path d="M257.241 122.732V145.567H251.414V136.969H244.875V145.567H239.034V122.732H244.875V131.301H251.414V122.732H257.241Z" fill="#DE2032"/>
<path d="M280.765 122.702V145.794H278.908L267.593 134.418V145.58H261.753V122.505H263.636L274.911 133.837V122.702H280.765Z" fill="#DE2032"/>
<path d="M285.277 122.732H291.117V145.567H285.277V122.732Z" fill="#DE2032"/>
<path d="M306.731 140.353C310.225 140.353 312.899 137.647 312.899 134.135C312.899 130.608 310.225 127.888 306.731 127.888C303.238 127.888 300.56 130.608 300.56 134.135C300.56 137.647 303.238 140.353 306.731 140.353ZM316.9 149.986C312.913 149.691 310.361 147.988 308.369 146.048C307.822 146.119 307.278 146.149 306.717 146.149C299.879 146.149 294.652 140.976 294.652 134.178C294.652 127.319 299.892 122.121 306.731 122.121C313.568 122.121 318.81 127.319 318.81 134.178C318.81 138.3 316.886 141.812 313.855 143.951C315.357 144.322 317.118 144.546 318.891 144.59L316.9 149.986Z" fill="#DE2032"/>
<path d="M322.296 137.265V122.729H328.177V137.252C328.177 139.149 329.75 140.41 331.414 140.41C333.065 140.41 334.676 139.122 334.676 137.252V122.729H340.557V137.265C340.557 142.508 336.464 146.206 331.428 146.206C326.391 146.206 322.296 142.508 322.296 137.265Z" fill="#DE2032"/>
<path d="M350.652 128.369V131.558H357.639V136.614H350.652V139.886H359.141V145.566H344.879V122.729H359.141V128.369H350.652Z" fill="#DE2032"/>
<path d="M45.9102 70.9634H58.766L52.3814 56.3485L45.9102 70.9634ZM1.30518 108.888L49.4449 1.0069H55.2096L103.415 108.888H76.9262L69.5268 92.4716H35.1304L27.7283 108.888H1.30518Z" fill="#DE2032"/>
<path d="M141.789 27.0725H127.71V52.6161L141.794 52.6675C148.961 52.6675 155.936 47.3276 155.936 39.9012C155.936 32.4881 148.92 27.0725 141.789 27.0725ZM102.407 108.888V0.871338H141.789C153.028 0.871338 162.777 4.71451 170.258 12.2682C177.527 19.8598 181.236 29.1835 181.236 39.9039C181.236 50.6999 177.522 60.002 170.245 67.4176C162.612 74.9497 152.634 78.8037 141.217 78.8037H126.806V108.888H102.407Z" fill="#DE2032"/>
<path d="M281.226 0.871338H359.126V27.0725H333.669L334.605 108.888H307.048L306.753 27.0725H281.226V0.871338Z" fill="#DE2032"/>
<path d="M227.5 69.0661C219.827 63.7939 217.857 53.2685 223.099 45.5577C228.342 37.8417 238.813 35.8633 246.489 41.1355C254.161 46.4076 256.131 56.9331 250.89 64.6464C245.644 72.3598 235.173 74.341 227.5 69.0661ZM289.811 86.5823L265.694 69.8239C264.054 68.698 262.107 68.4355 260.497 68.9605L257.842 67.1364C264.045 56.3024 260.995 42.3209 250.556 35.1488C239.592 27.6167 224.634 30.4449 217.145 41.4657C209.654 52.4836 212.468 67.5207 223.432 75.0528C233.275 81.8162 246.34 80.2248 254.326 71.8564L257.328 73.916C257.501 75.5318 258.438 77.1421 259.994 78.2112L284.113 94.9668C284.113 94.9695 284.113 94.9695 284.116 94.9723L289.816 86.585C289.816 86.585 289.814 86.5823 289.811 86.5823Z" fill="#2A377C"/>
<path d="M237.643 83.1586C229.459 83.1586 222.649 80.4603 216.89 74.9471C211.082 69.3855 208.252 62.8439 208.252 55.0114C208.252 47.2683 211.082 40.7187 216.901 35.0675C222.614 29.5166 229.419 26.8047 237.643 26.8047C245.731 26.8047 252.569 29.7413 258.472 35.7767L260.072 37.4141L277.166 18.5988L275.618 16.9424C267.388 8.12478 255.401 1.11235 240.394 0.34372L240.474 0H237.581C222.538 0 209.477 5.43186 198.7 16.1494C188.662 26.913 183.587 39.9419 183.587 54.9411C183.587 69.9835 188.662 82.9962 198.708 93.6759C209.407 104.229 222.457 109.582 237.576 109.625C245.227 109.625 252.386 108.161 259.016 105.216C264.868 102.513 269.897 98.9534 274.232 94.5474L254.589 77.6888C249.676 81.3561 244.082 83.1586 237.643 83.1586Z" fill="#DE2032"/>
</g>
<defs>
<clipPath id="clip0_168_2955">
<rect width="358.661" height="150" fill="white" transform="translate(0.53125)"/>
</clipPath>
</defs>
</svg>
