<svg width="491" height="150" viewBox="0 0 491 150" fill="none" xmlns="http://www.w3.org/2000/svg">
<mask id="mask0_169_2980" style="mask-type:luminance" maskUnits="userSpaceOnUse" x="0" y="0" width="491" height="150">
<path d="M490.993 0H0V150H490.993V0Z" fill="white"/>
</mask>
<g mask="url(#mask0_169_2980)">
<mask id="mask1_169_2980" style="mask-type:luminance" maskUnits="userSpaceOnUse" x="6" y="4" width="110" height="142">
<path d="M115.243 4.15698H6.81299V145.843H115.243V4.15698Z" fill="white"/>
</mask>
<g mask="url(#mask1_169_2980)">
<path d="M66.6648 4.15698L28.2012 74.9999L52.7069 120.626L58.2407 110.323L39.2685 74.9999L71.9916 14.0748L104.714 74.9999L66.6643 145.843H77.1926L115.243 74.9999L77.1926 4.15698H66.6648Z" fill="black"/>
<path d="M55.3907 145.843L93.8543 74.9999L69.3485 29.3735L63.8148 39.6766L82.787 74.9999L50.0639 135.925L17.3412 74.9999L55.3912 4.15698H44.863L6.81299 74.9999L44.863 145.843H55.3907Z" fill="black"/>
</g>
<path d="M153.995 43.8798L147.713 33.0715C149.422 32.2863 150.762 31.1315 151.686 29.6073C152.61 28.1292 153.071 26.3278 153.071 24.2955C153.071 21.1546 152.055 18.7066 150.023 16.9514C147.991 15.1962 145.219 14.3186 141.663 14.3186H129.099V43.8798H135.566V34.2262H141.432L146.559 43.8798H153.995ZM146.513 24.3879C146.513 25.7736 146.097 26.8359 145.265 27.575C144.434 28.314 143.325 28.6835 141.847 28.6835H135.566V20.0461H141.847C143.325 20.0461 144.434 20.4618 145.265 21.2008C146.097 21.9399 146.513 23.0022 146.513 24.3879ZM158.779 43.8798H180.073V38.0138H165.246V31.7782H178.687V26.1431H165.246V20.1847H180.073V14.3186H158.779V43.8798ZM185.708 43.8798H191.943V24.7112L206.77 43.8798H213.006V14.3186H206.77V33.5334L191.943 14.3186H185.708V43.8798ZM229.783 14.3186L217.219 43.8798H223.963L226.549 37.5981H239.436L242.023 43.8798H249.044L236.48 14.3186H229.783ZM233.016 21.8937L237.081 31.8244H228.905L233.016 21.8937ZM264.808 44.3417C269.104 44.3417 272.429 43.2332 274.739 40.9699C277.048 38.7528 278.203 35.5195 278.203 31.3163V14.3186H271.737V31.0392C271.737 33.4872 271.136 35.3348 269.981 36.5357C268.78 37.7828 267.071 38.3833 264.808 38.3833C262.499 38.3833 260.743 37.7828 259.589 36.5357C258.434 35.3348 257.88 33.4872 257.88 31.0392V14.3186H251.413V31.3163C251.413 35.5195 252.568 38.7528 254.877 40.9699C257.187 43.2332 260.466 44.3417 264.808 44.3417ZM284.492 43.8798H305.092V37.9214H290.958V14.3186H284.492V43.8798ZM313.678 20.277V43.8798H320.144V20.277H330.306V14.3186H303.47V20.277H313.678Z" fill="black"/>
<path d="M139.723 68.7065L147.575 50.2308H143.245L137.644 63.8278L132.044 50.2308H127.598L135.45 68.7065H139.723ZM158.025 63.8566C157.852 64.434 157.506 64.8959 156.986 65.2135C156.467 65.531 155.803 65.6753 155.052 65.6753C154.013 65.6753 153.176 65.4155 152.54 64.8959C151.905 64.3763 151.501 63.5968 151.357 62.5864H162.009C162.009 62.3266 162.038 62.0957 162.038 61.9225C162.038 61.7492 162.067 61.576 162.067 61.4317C162.067 59.2088 161.403 57.419 160.075 56.0333C158.747 54.6765 157.015 53.9837 154.879 53.9837C152.685 53.9837 150.895 54.6765 149.509 56.0622C148.124 57.4479 147.46 59.2666 147.46 61.4894C147.46 63.7123 148.152 65.531 149.567 66.9167C150.982 68.3024 152.8 68.9952 155.052 68.9952C156.871 68.9952 158.401 68.5333 159.671 67.5807C160.941 66.6569 161.692 65.4155 161.951 63.8566H158.025ZM154.763 57.2169C155.658 57.2169 156.409 57.4767 157.044 57.9386C157.65 58.4294 158.025 59.0934 158.17 59.9305H151.415C151.617 59.0356 151.992 58.3716 152.569 57.9098C153.118 57.4479 153.839 57.2169 154.763 57.2169ZM172.003 57.4767C172.898 57.4767 173.62 57.7654 174.169 58.3428C174.717 58.9201 175.006 59.6707 175.006 60.6234V68.7065H178.961V60.0171C178.961 58.2273 178.383 56.755 177.258 55.658C176.103 54.561 174.63 53.9837 172.841 53.9837C171.946 53.9837 171.137 54.1569 170.416 54.4456C169.665 54.7631 169.059 55.1961 168.568 55.7446L167.818 54.2723H165.017V68.7065H168.972V60.6234C168.972 59.6419 169.232 58.8913 169.781 58.3139C170.3 57.7654 171.051 57.4767 172.003 57.4767ZM192.137 63.8566C191.964 64.434 191.618 64.8959 191.098 65.2135C190.579 65.531 189.915 65.6753 189.164 65.6753C188.125 65.6753 187.288 65.4155 186.652 64.8959C186.017 64.3763 185.613 63.5968 185.469 62.5864H196.121C196.121 62.3266 196.15 62.0957 196.15 61.9225C196.15 61.7492 196.179 61.576 196.179 61.4317C196.179 59.2088 195.515 57.419 194.187 56.0333C192.859 54.6765 191.127 53.9837 188.991 53.9837C186.797 53.9837 185.007 54.6765 183.621 56.0622C182.236 57.4479 181.572 59.2666 181.572 61.4894C181.572 63.7123 182.264 65.531 183.679 66.9167C185.094 68.3024 186.912 68.9952 189.164 68.9952C190.983 68.9952 192.513 68.5333 193.783 67.5807C195.053 66.6569 195.804 65.4155 196.064 63.8566H192.137ZM188.875 57.2169C189.77 57.2169 190.521 57.4767 191.156 57.9386C191.762 58.4294 192.137 59.0934 192.282 59.9305H185.527C185.729 59.0356 186.104 58.3716 186.681 57.9098C187.23 57.4479 187.951 57.2169 188.875 57.2169ZM199.129 68.7065H203.084V48.7874H199.129V68.7065ZM206.966 68.7065H210.921V48.7874H206.966V68.7065ZM224.418 63.8566C224.245 64.434 223.898 64.8959 223.379 65.2135C222.859 65.531 222.195 65.6753 221.445 65.6753C220.405 65.6753 219.568 65.4155 218.933 64.8959C218.298 64.3763 217.894 63.5968 217.749 62.5864H228.402C228.402 62.3266 228.431 62.0957 228.431 61.9225C228.431 61.7492 228.46 61.576 228.46 61.4317C228.46 59.2088 227.796 57.419 226.468 56.0333C225.14 54.6765 223.408 53.9837 221.271 53.9837C219.077 53.9837 217.288 54.6765 215.902 56.0622C214.516 57.4479 213.852 59.2666 213.852 61.4894C213.852 63.7123 214.545 65.531 215.96 66.9167C217.374 68.3024 219.193 68.9952 221.445 68.9952C223.263 68.9952 224.793 68.5333 226.063 67.5807C227.334 66.6569 228.084 65.4155 228.344 63.8566H224.418ZM221.156 57.2169C222.051 57.2169 222.801 57.4767 223.436 57.9386C224.043 58.4294 224.418 59.0934 224.562 59.9305H217.807C218.009 59.0356 218.385 58.3716 218.962 57.9098C219.51 57.4479 220.232 57.2169 221.156 57.2169ZM237.125 65.9352C236.259 65.9352 235.595 65.762 235.075 65.3867C234.555 65.0114 234.296 64.5206 234.296 63.9144H230.485C230.485 65.3867 231.091 66.5991 232.361 67.5518C233.603 68.5333 235.191 68.9952 237.125 68.9952C238.915 68.9952 240.387 68.5622 241.484 67.6673C242.581 66.8012 243.158 65.6176 243.158 64.1453C243.158 62.9617 242.754 62.0091 241.946 61.3162C241.137 60.6234 239.867 60.1615 238.193 59.9017L236.778 59.6996C235.97 59.5841 235.393 59.4109 235.046 59.18C234.7 58.9779 234.527 58.6892 234.527 58.285C234.527 57.8809 234.7 57.5922 235.046 57.3613C235.393 57.1303 235.883 57.0148 236.547 57.0148C237.356 57.0148 237.991 57.188 238.453 57.4767C238.915 57.7654 239.145 58.1696 239.145 58.6603H242.841C242.841 57.3035 242.234 56.1777 241.08 55.3116C239.896 54.4456 238.395 53.9837 236.547 53.9837C234.757 53.9837 233.314 54.4167 232.275 55.2539C231.207 56.091 230.687 57.2169 230.687 58.6315C230.687 59.8728 231.091 60.8543 231.9 61.6049C232.708 62.3555 233.949 62.8462 235.566 63.0772L236.98 63.2793C237.789 63.3947 238.395 63.568 238.741 63.77C239.088 63.9721 239.261 64.2608 239.261 64.6361C239.261 65.0691 239.059 65.3867 238.712 65.6176C238.337 65.8486 237.818 65.9352 237.125 65.9352Z" fill="black"/>
<path d="M138.926 107.69V111.778H146.409C146.166 113.164 145.508 114.238 144.469 114.965C143.395 115.727 142.009 116.074 140.277 116.074C138.233 116.074 136.605 115.45 135.358 114.134C134.111 112.852 133.488 111.155 133.488 109.007C133.488 106.928 134.076 105.231 135.324 103.949C136.536 102.667 138.13 102.009 140.139 102.009C141.559 102.009 142.806 102.356 143.845 103.014C144.885 103.672 145.578 104.503 145.924 105.473H150.982C150.566 103.187 149.388 101.282 147.379 99.792C145.37 98.3371 142.945 97.575 140.104 97.575C136.779 97.575 134.042 98.6835 131.825 100.831C129.608 103.014 128.534 105.75 128.534 109.007C128.534 112.298 129.642 115.035 131.859 117.182C134.076 119.365 136.848 120.439 140.208 120.439C143.534 120.439 146.27 119.469 148.349 117.459C150.427 115.485 151.501 112.887 151.501 109.63C151.501 109.319 151.467 109.007 151.467 108.66C151.432 108.314 151.397 108.002 151.397 107.69H138.926ZM172.054 102.771H168.694L167.794 104.538C167.101 103.845 166.304 103.326 165.403 102.979C164.503 102.633 163.533 102.425 162.493 102.425C160.068 102.425 158.059 103.291 156.396 104.988C154.733 106.72 153.937 108.868 153.937 111.432C153.937 114.03 154.733 116.178 156.396 117.875C158.059 119.607 160.068 120.439 162.493 120.439C163.533 120.439 164.503 120.265 165.403 119.919C166.304 119.573 167.101 119.018 167.794 118.326L168.694 120.092H172.054V102.771ZM163.186 116.212C161.87 116.212 160.796 115.797 159.964 114.896C159.133 114.03 158.717 112.887 158.717 111.432C158.717 110.011 159.133 108.868 159.964 107.968C160.796 107.067 161.87 106.617 163.186 106.617C164.503 106.617 165.576 107.067 166.408 107.968C167.239 108.868 167.655 110.011 167.655 111.432C167.655 112.887 167.239 114.03 166.408 114.896C165.576 115.797 164.503 116.212 163.186 116.212ZM185.914 106.859C186.295 106.859 186.676 106.894 187.057 106.928C187.403 106.998 187.75 107.032 188.027 107.102V102.563C187.646 102.529 187.369 102.494 187.161 102.459C186.953 102.459 186.745 102.425 186.572 102.425C185.463 102.425 184.459 102.667 183.523 103.118C182.588 103.603 181.791 104.261 181.133 105.127L179.955 102.771H176.699V120.092H181.445V110.947C181.445 109.7 181.826 108.695 182.623 107.968C183.419 107.24 184.528 106.859 185.914 106.859ZM207.915 102.771H204.554L203.654 104.538C202.961 103.845 202.164 103.326 201.263 102.979C200.363 102.633 199.393 102.425 198.354 102.425C195.929 102.425 193.919 103.291 192.257 104.988C190.594 106.72 189.797 108.868 189.797 111.432C189.797 114.03 190.594 116.178 192.257 117.875C193.919 119.607 195.929 120.439 198.354 120.439C199.393 120.439 200.363 120.265 201.263 119.919C202.164 119.573 202.961 119.018 203.654 118.326L204.554 120.092H207.915V102.771ZM199.046 116.212C197.73 116.212 196.656 115.797 195.825 114.896C194.993 114.03 194.578 112.887 194.578 111.432C194.578 110.011 194.993 108.868 195.825 107.968C196.656 107.067 197.73 106.617 199.046 106.617C200.363 106.617 201.437 107.067 202.268 107.968C203.1 108.868 203.515 110.011 203.515 111.432C203.515 112.887 203.1 114.03 202.268 114.896C201.437 115.797 200.363 116.212 199.046 116.212ZM220.907 122.864C219.867 122.864 219.036 122.69 218.343 122.275C217.65 121.859 217.165 121.305 216.923 120.543H211.969C212.385 122.552 213.389 124.145 214.983 125.289C216.576 126.466 218.586 127.021 220.976 127.021C223.609 127.021 225.722 126.293 227.35 124.804C228.944 123.314 229.775 121.339 229.775 118.88V102.771H226.588L225.583 104.573C224.891 103.88 224.059 103.36 223.124 102.979C222.188 102.633 221.184 102.425 220.075 102.425C217.616 102.425 215.537 103.256 213.84 104.919C212.142 106.582 211.311 108.626 211.311 111.085C211.311 113.58 212.142 115.623 213.84 117.286C215.537 118.949 217.616 119.746 220.075 119.746C221.011 119.746 221.911 119.607 222.743 119.33C223.574 119.053 224.336 118.672 225.029 118.118V118.88C225.029 120.127 224.648 121.132 223.921 121.824C223.193 122.517 222.188 122.864 220.907 122.864ZM220.733 115.52C219.348 115.52 218.239 115.138 217.373 114.307C216.507 113.476 216.091 112.402 216.091 111.085C216.091 109.769 216.507 108.695 217.373 107.864C218.239 107.032 219.348 106.617 220.733 106.617C222.085 106.617 223.193 107.032 224.059 107.864C224.925 108.695 225.375 109.769 225.375 111.085C225.375 112.402 224.925 113.476 224.059 114.307C223.193 115.138 222.085 115.52 220.733 115.52ZM245.78 114.272C245.572 114.965 245.156 115.52 244.533 115.901C243.909 116.282 243.112 116.455 242.212 116.455C240.964 116.455 239.96 116.143 239.198 115.52C238.436 114.896 237.951 113.961 237.777 112.748H250.56C250.56 112.436 250.595 112.159 250.595 111.951C250.595 111.744 250.63 111.536 250.63 111.362C250.63 108.695 249.833 106.547 248.239 104.884C246.646 103.256 244.567 102.425 242.004 102.425C239.371 102.425 237.223 103.256 235.56 104.919C233.897 106.582 233.101 108.764 233.101 111.432C233.101 114.099 233.932 116.282 235.63 117.944C237.327 119.607 239.509 120.439 242.212 120.439C244.394 120.439 246.23 119.884 247.754 118.741C249.279 117.633 250.179 116.143 250.491 114.272H245.78ZM241.865 106.305C242.939 106.305 243.84 106.617 244.602 107.171C245.329 107.76 245.78 108.556 245.953 109.561H237.847C238.089 108.487 238.539 107.69 239.232 107.136C239.891 106.582 240.757 106.305 241.865 106.305ZM260.164 120.092H275.615V115.623H265.014V97.9214H260.164V120.092ZM286.455 120.439C288.88 120.439 290.855 119.78 292.379 118.429C293.869 117.078 294.631 115.312 294.631 113.095V102.771H289.885V112.575C289.885 113.753 289.573 114.653 288.984 115.277C288.36 115.901 287.529 116.212 286.455 116.212C285.347 116.212 284.515 115.901 283.926 115.277C283.303 114.653 283.026 113.753 283.026 112.575V102.771H278.28V113.095C278.28 115.381 279.007 117.148 280.497 118.464C281.952 119.78 283.961 120.439 286.455 120.439ZM310.776 112.817C310.499 113.891 310.014 114.723 309.287 115.312C308.559 115.935 307.693 116.212 306.688 116.212C305.407 116.212 304.367 115.797 303.605 114.896C302.809 114.03 302.427 112.887 302.427 111.432C302.427 110.011 302.809 108.868 303.605 107.968C304.402 107.067 305.441 106.617 306.688 106.617C307.693 106.617 308.559 106.928 309.287 107.552C310.014 108.175 310.499 109.007 310.776 110.046H315.626C315.314 107.76 314.344 105.889 312.716 104.503C311.088 103.118 309.079 102.425 306.688 102.425C304.056 102.425 301.873 103.291 300.176 104.954C298.478 106.617 297.647 108.799 297.647 111.432C297.647 114.099 298.478 116.282 300.176 117.944C301.873 119.607 304.056 120.439 306.688 120.439C309.079 120.439 311.088 119.746 312.716 118.36C314.344 116.974 315.314 115.138 315.626 112.817H310.776ZM326.678 97.9214L317.255 120.092H322.313L324.253 115.381H333.918L335.858 120.092H341.124L331.701 97.9214H326.678ZM329.103 103.603L332.151 111.051H326.02L329.103 103.603ZM351.544 120.439C353.969 120.439 355.944 119.78 357.468 118.429C358.957 117.078 359.72 115.312 359.72 113.095V102.771H354.974V112.575C354.974 113.753 354.662 114.653 354.073 115.277C353.449 115.901 352.618 116.212 351.544 116.212C350.436 116.212 349.604 115.901 349.015 115.277C348.392 114.653 348.115 113.753 348.115 112.575V102.771H343.369V113.095C343.369 115.381 344.096 117.148 345.586 118.464C347.041 119.78 349.05 120.439 351.544 120.439ZM363.567 113.649C363.567 115.935 364.121 117.563 365.23 118.568C366.339 119.607 368.14 120.092 370.634 120.092H373.648V115.727H370.911C369.976 115.727 369.318 115.554 368.902 115.173C368.486 114.792 368.313 114.168 368.313 113.268V106.72H373.302V102.771H368.313V98.6142H363.567V113.649ZM385.248 102.425C382.512 102.425 380.295 103.291 378.563 104.954C376.83 106.617 375.964 108.799 375.964 111.432C375.964 114.099 376.83 116.282 378.563 117.944C380.295 119.607 382.512 120.439 385.248 120.439C387.951 120.439 390.202 119.607 391.934 117.944C393.666 116.282 394.567 114.099 394.567 111.432C394.567 108.799 393.666 106.617 391.934 104.954C390.202 103.291 387.951 102.425 385.248 102.425ZM385.248 116.212C383.897 116.212 382.824 115.797 381.992 114.896C381.161 114.03 380.745 112.887 380.745 111.432C380.745 110.011 381.161 108.868 381.992 107.968C382.824 107.067 383.897 106.617 385.248 106.617C386.565 106.617 387.673 107.067 388.505 107.968C389.336 108.868 389.787 110.011 389.787 111.432C389.787 112.887 389.336 114.03 388.505 114.896C387.673 115.797 386.565 116.212 385.248 116.212Z" fill="black"/>
</g>
</svg>
