<svg width="312" height="150" viewBox="0 0 312 150" fill="none" xmlns="http://www.w3.org/2000/svg">
<g clip-path="url(#clip0_168_2589)">
<path d="M157.07 136.321C157.74 136.321 158.313 136.116 158.778 135.693C159.284 135.255 159.517 134.695 159.476 133.998C159.448 133.396 159.189 132.904 158.697 132.521C158.218 132.125 157.644 131.934 157.001 131.934H154.665V136.321H157.07ZM154.665 141.46H153.571V130.95H156.947C157.986 130.95 158.847 131.264 159.544 131.893C160.241 132.508 160.569 133.301 160.556 134.244C160.541 135.104 160.214 135.816 159.571 136.403C158.929 136.991 158.165 137.278 157.274 137.278H154.665V141.46Z" fill="white"/>
<path d="M164.923 141.46H163.885V130.923H164.923V141.46Z" fill="white"/>
<path d="M169.868 137.484C169.854 138.302 170.114 139.027 170.674 139.643C171.235 140.257 171.918 140.571 172.711 140.613C173.571 140.654 174.296 140.353 174.898 139.725C175.512 139.082 175.799 138.33 175.786 137.469C175.773 136.649 175.471 135.953 174.911 135.364C174.351 134.777 173.668 134.489 172.875 134.489C172.041 134.489 171.344 134.777 170.755 135.364C170.169 135.953 169.881 136.649 169.868 137.484ZM176.825 141.46H175.814V140.244C174.966 141.214 173.927 141.679 172.697 141.638C171.617 141.597 170.701 141.187 169.95 140.394C169.198 139.601 168.816 138.658 168.816 137.565C168.816 136.43 169.225 135.446 170.032 134.64C170.839 133.821 171.809 133.438 172.943 133.478C174.037 133.52 174.966 133.929 175.732 134.736C176.497 135.529 176.865 136.472 176.825 137.551V137.606V141.46Z" fill="white"/>
<path d="M181.67 141.46H180.645V133.67H181.67V141.46ZM181.67 132.74H180.645V130.923H181.67V132.74Z" fill="white"/>
<path d="M192.423 141.46H191.372V136.909C191.372 136.252 191.125 135.693 190.647 135.214C190.169 134.736 189.621 134.504 188.98 134.504C188.337 134.504 187.764 134.736 187.286 135.214C186.808 135.693 186.575 136.252 186.575 136.909V141.46H185.522V137.018C185.522 136.007 185.85 135.173 186.505 134.504C187.161 133.834 187.982 133.492 188.98 133.492C189.963 133.492 190.784 133.834 191.44 134.504C192.095 135.173 192.423 136.007 192.423 137.018V141.46Z" fill="white"/>
<path d="M203.282 136.964C203.132 136.239 202.791 135.651 202.258 135.201C201.725 134.749 201.082 134.517 200.331 134.504C199.579 134.489 198.923 134.722 198.363 135.173C197.802 135.624 197.461 136.226 197.309 136.964H203.282ZM204.117 138.904C203.83 139.738 203.337 140.408 202.641 140.9C201.943 141.391 201.178 141.638 200.331 141.652C199.265 141.666 198.322 141.283 197.502 140.49C196.681 139.683 196.256 138.74 196.243 137.632C196.216 136.472 196.626 135.461 197.474 134.626C198.335 133.779 199.333 133.383 200.494 133.451C201.533 133.52 202.436 133.943 203.201 134.736C203.939 135.515 204.308 136.389 204.308 137.36V137.92H197.309C197.392 138.699 197.72 139.356 198.308 139.861C198.895 140.367 199.579 140.627 200.372 140.612C201.602 140.6 202.476 140.026 203.009 138.904H204.117Z" fill="white"/>
<path d="M217.408 140.654C218.269 140.694 218.994 140.408 219.595 139.766C220.21 139.123 220.496 138.385 220.469 137.524C220.456 136.705 220.156 136.007 219.595 135.419C219.035 134.832 218.364 134.545 217.558 134.545C216.738 134.531 216.027 134.832 215.439 135.419C214.852 136.007 214.566 136.705 214.551 137.538C214.538 138.358 214.811 139.082 215.372 139.697C215.932 140.313 216.602 140.627 217.408 140.654ZM221.522 137.606C221.549 138.727 221.154 139.697 220.32 140.517C219.485 141.324 218.515 141.72 217.394 141.68C216.315 141.652 215.386 141.242 214.634 140.449C213.881 139.656 213.513 138.713 213.513 137.62C213.513 136.485 213.923 135.501 214.729 134.695C215.537 133.875 216.507 133.478 217.626 133.52C218.775 133.561 219.731 134.025 220.496 134.9V130.977H221.522V137.606Z" fill="white"/>
<path d="M232.396 136.964C232.246 136.239 231.903 135.651 231.37 135.201C230.837 134.749 230.196 134.517 229.443 134.504C228.691 134.489 228.035 134.722 227.474 135.173C226.914 135.624 226.573 136.226 226.423 136.964H232.396ZM233.229 138.904C232.942 139.738 232.449 140.408 231.753 140.9C231.055 141.391 230.289 141.638 229.443 141.652C228.377 141.666 227.434 141.283 226.615 140.49C225.793 139.683 225.37 138.74 225.357 137.632C225.33 136.472 225.74 135.461 226.586 134.626C227.449 133.779 228.445 133.383 229.608 133.451C230.647 133.52 231.55 133.943 232.313 134.736C233.051 135.515 233.421 136.389 233.421 137.36V137.92H226.423C226.504 138.699 226.832 139.356 227.42 139.861C228.009 140.367 228.691 140.627 229.484 140.612C230.714 140.6 231.59 140.026 232.121 138.904H233.229Z" fill="white"/>
<path d="M244.084 132.768H243.004V130.923H244.084V132.768ZM242.128 143.906V142.868C242.456 142.841 242.704 142.704 242.854 142.445C242.949 142.281 243.004 141.952 243.004 141.46V133.656H244.057V141.652C244.057 142.376 243.932 142.882 243.674 143.169C243.374 143.525 242.949 143.756 242.416 143.852L242.128 143.906Z" fill="white"/>
<path d="M254.987 136.964C254.837 136.239 254.494 135.651 253.961 135.201C253.428 134.749 252.787 134.517 252.035 134.504C251.284 134.489 250.626 134.722 250.066 135.173C249.505 135.624 249.165 136.226 249.014 136.964H254.987ZM255.82 138.904C255.535 139.738 255.042 140.408 254.344 140.9C253.646 141.391 252.883 141.638 252.035 141.652C250.969 141.666 250.025 141.283 249.207 140.49C248.386 139.683 247.961 138.74 247.949 137.632C247.921 136.472 248.331 135.461 249.177 134.626C250.04 133.779 251.036 133.383 252.199 133.451C253.238 133.52 254.141 133.943 254.905 134.736C255.645 135.515 256.013 136.389 256.013 137.36V137.92H249.014C249.097 138.699 249.425 139.356 250.013 139.861C250.599 140.367 251.284 140.627 252.075 140.612C253.306 140.6 254.181 140.026 254.712 138.904H255.82Z" fill="white"/>
<path d="M266.557 138.112C266.557 139.123 266.231 139.971 265.573 140.64C264.93 141.31 264.11 141.652 263.114 141.652C262.115 141.652 261.295 141.31 260.637 140.64C259.996 139.971 259.668 139.123 259.668 138.112V133.67H260.722V138.235C260.722 138.891 260.952 139.451 261.432 139.93C261.91 140.394 262.471 140.627 263.114 140.627C263.755 140.627 264.302 140.394 264.78 139.93C265.26 139.451 265.505 138.891 265.505 138.235V133.67H266.557V138.112Z" fill="white"/>
<path d="M277.075 141.46H275.776L273.727 138.344L271.69 141.46H270.46L273.084 137.484L270.432 133.67H271.623L273.727 136.636L275.764 133.67H277.049L274.341 137.511L277.075 141.46Z" fill="white"/>
<path d="M126.932 106.898L126.988 107.604C127.123 108.058 127.472 108.231 128.036 108.125C129.45 107.858 131.003 106.486 132.683 104.022C131.896 102.755 131.181 102.185 130.529 102.309L130.053 102.399C127.873 104.153 126.83 105.655 126.932 106.898ZM124.84 94.9801L125.443 94.8671C127.453 94.9456 128.592 94.9588 128.856 94.9092L130.933 94.165C135.305 94.3462 137.725 95.9751 138.187 99.0808C138.558 101.574 136.888 105.375 133.125 110.534C130.465 115.764 128.109 118.609 126.094 118.99C126.153 119.486 125.438 119.875 123.948 120.156L123.637 120.215C121.031 120.708 118.902 118.956 117.274 115.011L117.022 112.464C117.094 107.507 118.706 102.797 121.82 98.3138C122.266 97.3727 123.276 96.2606 124.84 94.9801Z" fill="#235F2C"/>
<path d="M146.915 98.7205C148.735 99.3987 149.624 101.019 149.579 103.6C149.576 103.778 149.499 103.867 149.348 103.867L149.553 105.161L149.525 106.745H149.764C152.189 104.061 153.98 102.332 155.157 101.536C157.163 101.536 158.553 103.087 159.332 106.22C159.341 108.672 160.367 110.358 162.415 111.262C162.417 111.454 162.501 111.719 162.665 112.061C159.891 115.317 157.989 116.963 156.991 116.963H156.514C154.565 115.627 153.156 113.543 152.288 110.726L151.821 110.453C151.818 110.731 151.34 111.267 150.387 112.061C149.259 113.446 147.404 115.171 144.809 117.244H144.333C142.759 116.771 142.05 114.221 142.198 109.66C142.228 108.762 142.04 107.348 141.636 105.429L141.663 104.64C142.779 100.678 144.524 98.7205 146.915 98.7205Z" fill="#235F2C"/>
<path d="M175.09 82.8889C176.157 82.8889 177.216 84.1416 178.279 86.6658L177.303 93.3063C178.208 94.366 178.677 95.2145 178.707 95.8493C178.725 96.2372 177.905 97.1903 176.238 98.7156C174.948 101.156 174.385 104.768 174.561 109.61C174.915 111.012 175.92 111.718 177.574 111.718H178.38L180.222 111.112C181.296 111.319 181.845 111.625 181.866 112.029L181.913 112.95C181.979 114.234 180.944 115.054 178.805 115.405C176.549 116.853 174.507 117.58 172.693 117.58H172.154C168.549 117.58 166.695 114.894 166.593 109.61C166.85 104.759 166.969 102.021 166.955 101.32C164.856 100.407 163.804 99.5387 163.792 98.7156C163.616 98.7156 163.524 98.4262 163.517 97.8493C163.693 96.5511 164.534 95.4167 166.038 94.4442C167.248 94.0324 168.152 92.4378 168.748 89.6852C168.729 88.9515 168.807 88.5846 168.98 88.5846C168.798 88.2291 168.705 87.9572 168.7 87.7702C168.651 85.8127 170.789 84.1887 175.09 82.8889Z" fill="#235F2C"/>
<path d="M195.15 104.612L194.656 103.831C194.255 103.347 193.85 103.214 193.441 103.435C192.418 103.988 191.98 105.805 192.125 108.864C193.588 110.142 194.553 110.651 195.024 110.397L195.368 110.21C196.095 107.857 196.024 105.988 195.15 104.612ZM188.883 96.045H189.546C191.735 96.5355 192.976 97.5148 193.269 97.5148L195.577 97.1384C200.341 98.2159 202.898 100.448 203.235 103.867C203.507 106.616 201.476 110.355 197.077 115.135C193.877 120.226 191.136 122.811 188.907 122.811C188.943 123.359 188.136 123.633 186.487 123.633H186.145C183.258 123.633 181.028 121.309 179.472 116.729L179.343 113.937C179.709 108.629 180.272 103.904 183.927 99.734C184.469 98.8172 187.099 97.0976 188.883 96.045Z" fill="#235F2C"/>
<path d="M216.201 100.14L216.289 100.833H216.593C218.952 98.6579 220.647 96.7185 221.691 95.0095H222.006L221.958 94.6798C221.894 94.2311 221.658 94.0064 221.249 94.0064H219.408C217.826 94.0064 216.859 95.2454 216.513 97.743C216.161 97.743 216.057 98.5401 216.201 100.14ZM218.484 85.0829H222.103C224.548 85.0829 226.952 86.3793 229.343 88.9954L229.61 90.6525C229.258 94.1271 225.203 99.2383 217.271 106.098C215.879 106.098 215.178 110.643 215.169 120.006C214.187 120.006 212.41 121.521 209.813 124.581C209.868 125.09 209.346 125.347 208.249 125.347L206.507 121.146C206.383 111.609 206.132 105.149 205.753 101.527C204.579 96.1654 203.973 93.2373 203.912 92.6492C204.969 89.9485 206.751 87.7573 209.26 86.0624L209.22 85.7306L210.771 86.0624L211.936 85.7306C212.354 85.952 212.67 86.0624 212.888 86.0624C214.02 85.4097 215.883 85.0829 218.484 85.0829Z" fill="#235F2C"/>
<path d="M234.352 107.41L234.452 108.017C234.573 108.423 234.786 108.627 235.092 108.627C235.863 108.627 236.604 107.71 237.315 105.891C236.751 104.689 236.295 104.089 235.939 104.089H235.678C234.619 105.23 234.174 106.337 234.352 107.41ZM232.113 97.0084H232.637C234.403 97.3947 235.399 97.5885 235.632 97.5885L237.427 97.2914C241.265 98.1425 243.441 99.9024 243.945 102.592C244.35 104.748 243.015 107.672 239.899 111.394C237.756 115.34 235.804 117.34 234.064 117.34C234.132 117.761 233.52 117.973 232.236 117.973H231.967C229.716 117.973 227.797 116.179 226.229 112.632L225.914 110.463C225.789 106.322 227.022 102.621 229.584 99.3403C229.941 98.617 230.786 97.8396 232.113 97.0084Z" fill="#235F2C"/>
<path d="M251.176 76.9229C252.278 76.9229 253.599 78.2015 255.15 80.7815L255.328 87.5702C256.458 88.654 257.095 89.5231 257.238 90.1727C257.328 90.5687 256.648 91.5447 255.194 93.105C254.293 95.6039 254.357 99.3046 255.406 104.268C256.025 105.706 257.194 106.43 258.912 106.43H259.747L261.549 105.808C262.701 106.02 263.324 106.334 263.417 106.749L263.633 107.694C263.934 109.011 263.007 109.853 260.85 110.212C258.771 111.7 256.782 112.447 254.897 112.447H254.337C250.597 112.447 248.192 109.689 247.141 104.268C246.542 99.2953 246.177 96.4898 246.036 95.7726C243.699 94.8372 242.454 93.9484 242.295 93.105C242.113 93.105 241.965 92.8095 241.855 92.2182C241.806 90.8899 242.476 89.7295 243.861 88.7335C245.04 88.3121 245.694 86.6821 245.82 83.8671C245.67 83.1172 245.685 82.7442 245.864 82.7442C245.612 82.3779 245.467 82.1004 245.43 81.9105C245.031 79.9114 246.954 78.2517 251.176 76.9229Z" fill="#235F2C"/>
<path d="M268.934 105.804L269.066 106.348C269.199 106.711 269.405 106.892 269.681 106.892C270.372 106.892 270.978 106.073 271.496 104.444C270.908 103.366 270.458 102.83 270.139 102.83H269.906C269.029 103.852 268.705 104.844 268.934 105.804ZM266.223 96.4733H266.696C268.309 96.8209 269.221 96.9954 269.43 96.9954L271.025 96.7282C274.536 97.4934 276.61 99.0736 277.238 101.487C277.74 103.419 276.731 106.038 274.177 109.366C272.514 112.89 270.895 114.671 269.337 114.671C269.427 115.047 268.894 115.235 267.742 115.235H267.502C265.483 115.235 263.644 113.637 261.998 110.472L261.566 108.535C261.17 104.83 262.024 101.513 264.106 98.5689C264.377 97.9192 265.086 97.2207 266.223 96.4733Z" fill="#235F2C"/>
<path d="M68.8841 66.6685C68.8315 66.6685 68.7778 66.6586 68.7269 66.6379C68.5579 66.5707 68.4504 66.403 68.4601 66.2211L68.5509 64.4799C68.5566 64.3737 68.6017 64.2729 68.6777 64.1989C68.8084 64.0698 81.794 51.3134 83.3967 49.6295C84.5685 48.3976 86.5562 48.2663 88.6603 48.1266C89.7218 48.0564 90.8189 47.9839 91.8599 47.7702C93.1894 47.4969 93.641 47.3444 93.7865 47.2835C93.8696 47.1817 93.992 47.1273 94.1156 47.1273C94.1982 47.1273 94.281 47.1515 94.354 47.2008C94.4747 47.2828 94.55 47.4319 94.5449 47.5771C94.5414 47.6804 94.5028 47.8207 94.3489 47.9389C91.4396 51.4357 85.3308 51.709 83.5213 51.709C83.3572 51.709 83.2377 51.7064 83.1714 51.7048C82.0183 52.0672 75.1476 59.5709 69.2075 66.5198C69.1246 66.6161 69.0061 66.6685 68.8841 66.6685Z" fill="#50A736"/>
<path d="M94.1159 46.7024C93.9102 46.7024 93.7071 46.7767 93.5481 46.9192C93.3719 46.9821 92.9066 47.1211 91.7738 47.3542C90.7617 47.5615 89.6794 47.6333 88.6326 47.7028C86.4426 47.8476 84.3745 47.9848 83.0884 49.3374C81.4912 51.0156 68.5104 63.767 68.3796 63.8958C68.2278 64.0443 68.1373 64.2454 68.1263 64.4579L68.0359 66.1991C68.0166 66.5628 68.2313 66.8976 68.569 67.0332C68.6714 67.0736 68.7785 67.0936 68.8838 67.0936C69.1274 67.0936 69.3653 66.989 69.5302 66.7956C75.2914 60.0572 81.9216 52.8249 83.2642 52.1315C83.3318 52.1328 83.4177 52.1341 83.521 52.1341C85.3723 52.1341 91.6115 51.8518 94.6487 48.242C94.9232 48.0073 94.9652 47.7183 94.9696 47.5918C94.9793 47.3007 94.8335 47.0127 94.5921 46.8495C94.4465 46.75 94.2804 46.7024 94.1159 46.7024ZM94.0586 47.6227C91.258 51.0509 85.1313 51.2843 83.521 51.2843C83.2685 51.2843 83.1267 51.2782 83.1267 51.2782C81.4177 51.5837 68.8844 66.2438 68.8844 66.2438L68.9752 64.502C68.9752 64.502 82.078 51.6313 83.7045 49.9224C85.3148 48.2295 88.8305 48.8262 91.945 48.1866C93.4403 47.879 93.9137 47.7077 94.0586 47.6227ZM94.1153 47.5522C94.1153 47.5522 94.1448 47.5722 94.0586 47.6227C94.0776 47.5991 94.0963 47.5766 94.1153 47.5522Z" fill="white"/>
<path d="M83.5408 49.7253C83.4814 49.7253 83.4227 49.713 83.3666 49.6885C83.215 49.62 83.1172 49.4705 83.1159 49.3039C83.1133 48.9967 83.0968 41.7575 87.2234 38.6537C87.3472 38.5097 87.486 38.4766 87.5864 38.4766C87.7232 38.4766 87.8626 38.5471 87.9421 38.6588C88.0082 38.7506 88.0351 38.8645 88.0168 38.9758C87.9985 39.085 87.939 39.1822 87.8501 39.2476C87.7873 39.3821 87.6225 39.8048 87.3208 41.0348L87.141 41.7745C86.4247 44.7332 85.6126 48.087 83.8769 49.5707L83.8208 49.62C83.7419 49.6892 83.6415 49.7253 83.5408 49.7253Z" fill="#50A736"/>
<path d="M87.586 38.0522C87.4329 38.0522 87.1648 38.0934 86.9329 38.3403C82.6707 41.5852 82.6877 48.9925 82.6906 49.3082C82.6932 49.6401 82.8895 49.9401 83.1924 50.0756C83.3038 50.1258 83.4223 50.1504 83.5401 50.1504C83.7423 50.1504 83.9421 50.0782 84.0996 49.9401L84.1595 49.8879C85.993 48.3209 86.8219 44.8961 87.5533 41.8745C87.6141 41.6234 87.674 41.3771 87.7329 41.137C87.9871 40.1011 88.1359 39.6689 88.2025 39.5027C88.3245 39.3787 88.4064 39.219 88.4353 39.0447C88.4719 38.8225 88.4188 38.5949 88.2875 38.4117C88.1278 38.189 87.86 38.0522 87.586 38.0522ZM87.5236 38.9597C87.4338 39.0958 87.2498 39.5384 86.9075 40.9339C86.1851 43.8716 85.3778 47.7284 83.6 49.2483L83.5404 49.3005C83.5404 49.3005 83.4747 41.9494 87.5236 38.9597ZM87.586 38.902C87.5935 38.902 87.5967 38.9066 87.5967 38.9066C87.5719 38.924 87.5478 38.9419 87.5236 38.9597C87.5555 38.9117 87.5749 38.902 87.586 38.902Z" fill="white"/>
<path d="M70.2246 80.3108C70.1362 80.3108 70.0482 80.2839 69.9743 80.2291L67.7418 78.6009C67.6279 78.5176 67.5625 78.3839 67.5677 78.2432C67.5774 77.958 68.5466 49.7249 68.5182 46.2888C68.4983 43.8584 70.9303 41.354 73.5058 38.7031C74.8127 37.3573 76.1644 35.9657 77.255 34.5297C78.6711 32.6661 79.0554 31.9998 79.1594 31.7758L79.1578 31.7648C79.1285 31.5546 79.2585 31.3551 79.4624 31.2971C79.5003 31.2864 79.5457 31.2804 79.5847 31.2804C79.7211 31.2804 79.8682 31.3551 79.9481 31.4652C80.0279 31.5749 80.0539 31.7066 80.0257 31.8579C80.3602 34.9073 78.8102 38.6275 75.4173 42.9172C73.0558 45.9026 70.5675 48.1469 70.2446 48.4346C69.5252 49.4888 69.0475 58.6505 70.6483 79.854C70.6605 80.0192 70.5759 80.1764 70.431 80.2571C70.3666 80.2929 70.2955 80.3108 70.2246 80.3108Z" fill="#50A736"/>
<path d="M79.584 30.8555C79.5055 30.8555 79.4214 30.867 79.3458 30.8886C78.9829 30.9915 78.7368 31.3187 78.7284 31.6853C78.5945 31.934 78.1782 32.6121 76.9161 34.2727C75.8406 35.6884 74.4985 37.0701 73.2 38.4069C70.5626 41.1225 68.071 43.6875 68.0927 46.2926C68.1207 49.7196 67.1518 77.9436 67.1421 78.2287C67.1324 78.5101 67.2628 78.7782 67.4905 78.9443L69.7231 80.5725C69.8718 80.6809 70.0472 80.7357 70.224 80.7357C70.3659 80.7357 70.5082 80.7003 70.637 80.6282C70.9267 80.4672 71.0963 80.1524 71.0712 79.8221C71.0657 79.7494 70.5201 72.4811 70.2099 64.9866C69.6588 51.6511 70.3128 49.1701 70.571 48.7124C71.6414 47.7599 81.1835 39.0472 80.4535 31.869C80.4905 31.5723 80.3923 31.3547 80.2916 31.2159C80.1276 30.9903 79.8634 30.8555 79.584 30.8555ZM79.5939 31.8307C80.4518 38.9377 69.9286 48.1461 69.9286 48.1461C68.011 50.574 70.224 79.8859 70.224 79.8859L67.9916 78.2577C67.9916 78.2577 68.9709 49.7701 68.9425 46.2855C68.9139 42.8591 74.3527 39.052 77.5927 34.7868C79.1253 32.7701 79.5157 32.0716 79.5939 31.8307ZM79.584 31.7053C79.5985 31.7053 79.6313 31.7168 79.5939 31.8307C79.5892 31.789 79.5837 31.7474 79.5778 31.7058C79.5778 31.7058 79.5802 31.7053 79.584 31.7053Z" fill="white"/>
<path d="M67.911 46.3916C67.832 46.3916 67.7535 46.3696 67.6846 46.3262C67.5835 46.2624 65.1853 44.7392 62.9593 42.265C59.9917 38.9687 58.7872 35.5566 59.4722 32.3919C59.458 32.2199 59.5167 32.1013 59.5736 32.0278C59.6535 31.9258 59.8027 31.8505 59.9331 31.8498H59.9348C60.0652 31.8498 60.1881 31.9097 60.2689 32.0117C60.3491 32.1141 60.3784 32.2483 60.3478 32.3758L60.3456 32.3826C60.4306 32.567 60.7502 33.119 61.9425 34.5284C62.1727 34.8003 62.4099 35.0782 62.6513 35.3611C65.5137 38.7137 68.7591 42.5135 68.3458 45.9L68.3339 46.0126C68.3178 46.1584 68.228 46.2853 68.096 46.3491C68.0374 46.3776 67.974 46.3916 67.911 46.3916Z" fill="#50A736"/>
<path d="M59.936 31.4249H59.9237C59.8603 31.4258 59.7988 31.4339 59.7396 31.448C59.5446 31.4934 59.3658 31.6055 59.2403 31.7667C59.1585 31.8711 59.042 32.0709 59.0462 32.3564C58.3566 35.6442 59.5986 39.1654 62.6444 42.5493C64.9099 45.0665 67.3565 46.6207 67.4592 46.6857C67.5973 46.7724 67.7546 46.8167 67.9123 46.8167C68.0385 46.8167 68.1651 46.7887 68.2823 46.7317C68.5462 46.6046 68.7255 46.3497 68.7574 46.0586L68.7702 45.9405C69.2048 42.3799 65.8953 38.5042 62.9753 35.0855C62.7343 34.8029 62.4973 34.5251 62.2678 34.254C61.268 33.0714 60.9107 32.5277 60.7861 32.3075C60.7867 32.2964 60.7867 32.2857 60.7867 32.2747C60.7867 31.8057 60.4072 31.4249 59.9381 31.4249H59.9376H59.936ZM59.905 32.407C59.9585 32.6282 60.2806 33.2202 61.6191 34.8029C64.4438 38.1423 68.3508 42.3628 67.9253 45.8482L67.9123 45.9669C67.9123 45.9669 58.2173 39.8575 59.905 32.407ZM59.936 32.2747C59.9253 32.3189 59.9147 32.3632 59.905 32.407C59.8726 32.2751 59.936 32.2747 59.936 32.2747Z" fill="white"/>
<path d="M80.1895 71.8403C80.1186 71.8403 80.0472 71.8225 79.9827 71.7868C79.8225 71.6976 79.7379 71.5152 79.7723 71.3355C80.5406 67.3423 81.2217 62.8846 81.076 62.1024C80.5333 61.6817 78.1254 59.6617 78.6118 57.2564C78.6212 57.1659 78.6527 57.0745 78.7042 57.0108C78.7849 56.9097 78.9144 56.8472 79.0432 56.8472C79.1719 56.8472 79.2939 56.9062 79.3747 57.0066C79.4324 57.0784 79.4642 57.1666 79.4677 57.2577C79.5064 57.3253 79.6155 57.5046 79.8965 57.878C80.167 58.2392 80.5252 58.5736 80.8716 58.8978C81.5955 59.5742 82.3439 60.2745 82.2223 61.2152C82.08 62.3038 81.3228 70.7245 81.3151 70.8095C81.3058 70.9144 81.2573 71.0126 81.1792 71.0844L80.4769 71.7286C80.3965 71.8025 80.2937 71.8403 80.1895 71.8403Z" fill="#50A736"/>
<path d="M79.0429 56.4225C78.7854 56.4225 78.5339 56.5436 78.3724 56.7445C78.2599 56.8843 78.1953 57.0551 78.1834 57.2341C77.7343 59.6649 79.894 61.6845 80.6673 62.3193C80.7103 63.405 80.0469 67.6577 79.3548 71.2553C79.2856 71.6149 79.4552 71.979 79.7751 72.1579C79.9043 72.2301 80.0475 72.2654 80.1892 72.2654C80.3971 72.2654 80.6032 72.1894 80.7634 72.0423L81.4665 71.3976C81.6226 71.255 81.7189 71.0583 81.7385 70.8478C81.7453 70.7625 82.5024 62.3502 82.6436 61.2705C82.7931 60.1132 81.9264 59.3024 81.161 58.5878C80.8288 58.2758 80.4847 57.9539 80.2365 57.6236C80.0337 57.3535 79.9288 57.1958 79.8775 57.1125C79.8519 56.9791 79.7945 56.852 79.7076 56.7425C79.5464 56.5401 79.3017 56.4225 79.0429 56.4225ZM79.0336 57.3156C79.0497 57.3892 79.1478 57.5898 79.5566 58.1332C80.409 59.2698 81.9433 60.0575 81.8006 61.1601C81.6557 62.27 80.8922 70.7714 80.8922 70.7714L80.1892 71.4156C80.1892 71.4156 81.9152 62.4445 81.4266 61.8345C81.4266 61.8345 78.5204 59.7379 79.0336 57.3156ZM79.0429 57.2724C79.0396 57.2872 79.0365 57.3008 79.0336 57.3156C79.0242 57.2731 79.0416 57.2724 79.0429 57.2724Z" fill="white"/>
<path d="M82.1266 61.3993C82.0661 61.3993 82.0059 61.3867 81.9493 61.3606C81.7985 61.2914 81.7017 61.1405 81.7017 60.9744V60.9379C81.7126 59.7914 82.9002 58.2449 83.9485 56.8801L84.1993 56.5524C84.5667 56.0702 84.7035 55.8557 84.7537 55.7694C84.7749 55.6008 84.8973 55.4566 85.0681 55.4125C85.1029 55.4035 85.1409 55.3984 85.1769 55.3984C85.3134 55.3984 85.448 55.4682 85.5278 55.5795C85.5813 55.6542 85.607 55.7614 85.6048 55.8628C85.7725 58.3736 82.5421 61.178 82.4031 61.2973C82.3246 61.3641 82.226 61.3993 82.1266 61.3993Z" fill="#50A736"/>
<path d="M85.176 54.974C85.1042 54.974 85.0311 54.9833 84.9619 55.0011C84.6548 55.0806 84.426 55.3198 84.3513 55.6126C84.291 55.7082 84.1546 55.9092 83.8601 56.2958L83.6106 56.6218C82.469 58.1081 81.2886 59.6458 81.2764 60.9302V60.9749C81.2764 61.3062 81.4696 61.6079 81.7712 61.7469C81.8848 61.7987 82.0059 61.8246 82.126 61.8246C82.3255 61.8246 82.5225 61.7546 82.6797 61.6194C83.0396 61.3104 86.1559 58.5546 86.0313 55.8998C86.0458 55.6967 85.9918 55.4984 85.8729 55.3317C85.7135 55.109 85.4502 54.974 85.176 54.974ZM85.1782 55.8658C85.3601 58.1985 82.126 60.9749 82.126 60.9749V60.9383C82.1366 59.8506 83.5147 58.1496 84.5366 56.8104C85.0244 56.1696 85.1509 55.9445 85.1782 55.8658ZM85.176 55.8238C85.1802 55.8238 85.1914 55.8267 85.1782 55.8658C85.1769 55.8518 85.1756 55.8383 85.1744 55.8238C85.1744 55.8238 85.1753 55.8238 85.176 55.8238Z" fill="white"/>
<path d="M74.064 76.1808C73.8859 76.1693 73.7341 76.0482 73.6832 75.8766C73.633 75.7057 73.6951 75.5218 73.8387 75.4156C80.0462 70.8211 86.7982 65.4517 87.2248 64.4454C87.2537 63.7064 87.5988 57.616 91.0847 55.0742C91.2035 54.9409 91.337 54.9103 91.4339 54.9103C91.5814 54.9103 91.7279 54.9914 91.8054 55.1171C91.92 55.3031 91.8746 55.5451 91.7028 55.6768C91.6429 55.8008 91.4903 56.1793 91.1986 57.2519C90.9614 58.1194 90.8413 59.0509 90.7251 59.9517C90.4914 61.7698 90.2702 63.4872 89.1185 64.4416C87.5766 65.7189 75.9242 76.0623 75.8068 76.1667C75.7286 76.2361 75.6288 76.2738 75.5248 76.2738C75.5158 76.2738 74.064 76.1808 74.064 76.1808Z" fill="#50A736"/>
<path d="M91.4337 54.4857C91.2859 54.4857 91.0272 54.5244 90.8006 54.7555C87.3262 57.3245 86.8623 63.1932 86.8044 64.3192C86.0605 65.4788 79.5773 70.6392 73.5854 75.074C73.2986 75.2861 73.175 75.6548 73.2761 75.9973C73.3768 76.3388 73.681 76.5824 74.0367 76.6049L75.4702 76.6971C75.4885 76.6984 75.5068 76.6987 75.5246 76.6987C75.7319 76.6987 75.933 76.6227 76.0889 76.4846C76.2061 76.38 87.8532 66.0418 89.3892 64.7689C90.6695 63.7082 90.9013 61.9101 91.1466 60.006C91.2612 59.1198 91.379 58.2033 91.6079 57.3641C91.8519 56.4676 91.9913 56.083 92.0546 55.9308C92.3196 55.6568 92.374 55.2306 92.1673 54.8945C92.0125 54.6434 91.7286 54.4857 91.4337 54.4857ZM91.3794 55.3853C91.2982 55.5042 91.127 55.8965 90.788 57.1405C90.0746 59.7559 90.4026 62.8262 88.8469 64.1145C87.2817 65.4117 75.5246 75.8489 75.5246 75.8489L74.0911 75.7571C74.0911 75.7571 87.2821 65.9941 87.6466 64.522C87.6466 64.522 87.8284 57.9203 91.3794 55.3853ZM91.4337 55.3355C91.4405 55.3355 91.4436 55.3403 91.4436 55.3403C91.4218 55.3551 91.4006 55.37 91.3794 55.3853C91.4074 55.3441 91.4244 55.3355 91.4337 55.3355Z" fill="white"/>
<path d="M90.4815 64.7641C89.7898 64.7641 89.3559 64.726 89.3377 64.7242C89.1733 64.7097 89.0322 64.6009 88.976 64.446C88.92 64.2908 88.9586 64.1174 89.0751 64.0005L89.124 63.9518C90.5192 62.5258 93.537 62.0333 96.1995 61.5987L96.8584 61.4903C97.9517 61.3075 98.3443 61.1919 98.4747 61.1445C98.5577 61.0535 98.6727 61.0059 98.7888 61.0059C98.8806 61.0059 98.9727 61.0357 99.0506 61.0963C99.1626 61.1844 99.2273 61.3331 99.2158 61.4749C99.2081 61.5727 99.1665 61.7044 99.0225 61.8132C96.8092 64.3791 92.7271 64.7641 90.4819 64.7641H90.4815Z" fill="#50A736"/>
<path d="M98.7884 60.5809C98.5972 60.5809 98.4079 60.645 98.2544 60.7696C98.095 60.8185 97.6987 60.9187 96.7881 61.0709C96.5736 61.1066 96.3538 61.143 96.1304 61.1796C93.4038 61.6245 90.3126 62.1293 88.817 63.658L88.7745 63.7002C88.5408 63.9339 88.4639 64.2806 88.5764 64.5906C88.6886 64.9009 88.9707 65.1185 89.2993 65.1478C89.3179 65.1491 89.7705 65.1894 90.4817 65.1894C92.7906 65.1894 96.989 64.7879 99.3179 62.1203C99.578 61.9014 99.6295 61.6291 99.6388 61.509C99.6617 61.2251 99.5364 60.9373 99.3124 60.7619C99.1573 60.6405 98.9721 60.5809 98.7884 60.5809ZM98.7372 61.4923C96.6042 64.0157 92.4613 64.3395 90.4817 64.3395C89.8005 64.3395 89.3756 64.3009 89.3756 64.3009L89.4242 64.2525C90.8399 62.8047 94.271 62.3524 96.9278 61.9091C98.2026 61.6963 98.6104 61.5628 98.7372 61.4923ZM98.7881 61.4307C98.7881 61.4307 98.8128 61.4498 98.7372 61.4923C98.7542 61.4723 98.771 61.4514 98.7881 61.4307Z" fill="white"/>
<path d="M1.62166 96.9306C1.49151 96.9306 1.34547 96.8626 1.26479 96.7606C1.18414 96.659 1.15095 96.5064 1.18066 96.3802C1.22183 96.207 1.36672 96.0773 1.54382 96.0566L1.6067 96.0484C1.86381 95.8857 2.62183 95.3053 4.77839 93.2403C6.35765 91.7297 7.82855 90.0064 9.25112 88.3403C12.0459 85.0659 14.4592 82.2392 17.0129 81.711C20.6369 80.9614 47.6413 74.3194 47.9137 74.2522C47.9472 74.2441 47.9811 74.2403 48.0151 74.2403C48.1181 74.2403 48.2192 74.2777 48.2981 74.3484L50.0747 75.9344C50.1979 76.0445 50.2463 76.2161 50.1986 76.3742C50.1507 76.5322 50.0155 76.6487 49.8516 76.6725C38.5869 78.2841 21.26 81.2691 19.491 82.9156C19.2417 83.259 17.0066 86.2982 13.8823 89.4212C9.44615 93.8568 5.40677 96.3621 1.87494 96.8702C1.78266 96.9114 1.70231 96.9306 1.62166 96.9306Z" fill="#50A736"/>
<path d="M48.0152 73.8154C47.9477 73.8154 47.8792 73.8234 47.8121 73.8399C47.5398 73.9071 20.5436 80.5471 16.9274 81.2945C14.2313 81.8524 11.7742 84.7306 8.92846 88.0639C7.5128 89.7229 6.0489 91.4377 4.48491 92.9329C2.48022 94.8525 1.71807 95.4557 1.45366 95.6399C1.1179 95.6965 0.846854 95.9489 0.767992 96.2824C0.707911 96.5353 0.770839 96.8203 0.931836 97.0238C1.09848 97.2346 1.3499 97.3553 1.6223 97.3553C1.76388 97.3553 1.88833 97.3225 1.99124 97.2822C10.3112 96.0394 18.9918 84.3275 19.8099 83.2009C21.0577 82.1434 31.9314 79.6654 49.9123 77.0927C50.2396 77.0463 50.5097 76.8139 50.6053 76.4972C50.7009 76.1807 50.6046 75.8379 50.3581 75.6174L48.5812 74.0311C48.4235 73.8905 48.2216 73.8154 48.0152 73.8154ZM1.74811 96.4588C1.68187 96.4949 1.64401 96.5055 1.6223 96.5055C1.58827 96.5055 1.59473 96.4784 1.59473 96.4784C1.64567 96.472 1.69713 96.4659 1.74811 96.4588ZM48.0152 74.6652L49.7922 76.2513C49.7922 76.2513 21.5068 80.298 19.1691 82.6362C19.1691 82.6362 10.0775 95.3209 1.74811 96.4588C2.03058 96.3049 2.82813 95.6961 5.07263 93.5469C9.68562 89.1355 13.4141 82.8886 17.0994 82.1273C20.7731 81.367 48.0152 74.6652 48.0152 74.6652Z" fill="white"/>
<path d="M14.5709 81.9799C11.4163 81.9799 7.85578 80.1859 4.71453 78.6031C4.37957 78.4348 4.05045 78.2687 3.72777 78.1086C1.98785 77.244 1.3538 77.0747 1.15282 77.0429L1.09971 77.0634C1.04889 77.0846 0.995141 77.0943 0.941689 77.0943C0.86219 77.0943 0.78367 77.0722 0.714793 77.0284C0.599262 76.9559 0.52622 76.8323 0.517764 76.6958C0.510456 76.579 0.563271 76.4392 0.643406 76.3537C0.732721 76.2586 0.853223 76.2037 1.00245 76.1898C2.32096 75.6909 3.70305 75.4381 5.11219 75.4381C11.6343 75.4381 16.7523 80.7064 16.967 80.9308C17.0684 81.0366 17.108 81.1874 17.0719 81.3293C17.0358 81.4713 16.929 81.5846 16.7897 81.6293L16.6665 81.6683C16.0279 81.8749 15.3225 81.9799 14.5709 81.9799Z" fill="#50A736"/>
<path d="M5.11242 75.0132C3.66907 75.0132 2.25249 75.2694 0.900237 75.7742C0.621755 75.8159 0.441469 75.948 0.333927 76.0628C0.166132 76.2412 0.0785187 76.4817 0.0934326 76.7225C0.110854 76.9945 0.257574 77.2418 0.487784 77.3875C0.625411 77.4747 0.783559 77.5192 0.94209 77.5192C1.02439 77.5192 1.10738 77.507 1.18773 77.4832C1.41709 77.541 2.049 77.7487 3.53896 78.4894C3.86079 78.6491 4.18927 78.8148 4.52337 78.9831C7.70729 80.5866 11.316 82.4053 14.5712 82.4053C15.3668 82.4053 16.1161 82.293 16.7981 82.0729L16.9192 82.0343C17.1982 81.9447 17.4115 81.7181 17.4839 81.4339C17.5561 81.15 17.4771 80.8489 17.2744 80.6372C17.0543 80.4073 11.8136 75.0132 5.11242 75.0132ZM1.08235 76.6108H1.09047C1.0405 76.63 0.991209 76.6494 0.94209 76.6694C0.94209 76.6694 0.938096 76.6108 1.08235 76.6108ZM5.11242 75.863C11.5281 75.863 16.6605 81.2244 16.6605 81.2244L16.5373 81.2639C15.9134 81.4657 15.2545 81.5555 14.5712 81.5555C11.1839 81.5555 7.19478 79.3592 3.91722 77.7284C2.03788 76.7945 1.34507 76.6147 1.09047 76.6108C2.46277 76.0828 3.8135 75.863 5.11242 75.863Z" fill="white"/>
<path d="M61.6245 92.1694C61.4983 92.1694 61.3758 92.1128 61.2939 92.0117C50.9772 79.2434 34.4549 60.2491 31.2142 60.2443C30.5607 60.422 23.6186 62.2604 16.7329 62.2604H16.7313C10.2233 62.261 5.76218 60.6689 3.46691 57.5288C3.27747 57.4161 3.21592 57.2667 3.20015 57.1524C3.17542 56.9811 3.2468 56.809 3.3854 56.7031C3.45976 56.6463 3.5507 56.6161 3.64332 56.6161C3.66639 56.6161 3.68879 56.6181 3.71169 56.6216C3.82738 56.6403 3.92962 56.7062 3.99518 56.8031L4.0146 56.8311C4.24115 56.8824 4.83037 56.9628 6.30011 56.9628C7.08418 56.9628 8.0394 56.9399 9.13982 56.8956C11.8872 56.7857 14.8501 56.263 17.7157 55.7579C20.6803 55.2348 23.4805 54.7407 25.8153 54.7407C28.1259 54.7407 29.7329 55.2474 30.7301 56.2897C34.0322 59.7348 62.2648 86.1974 62.5494 86.4637C62.6492 86.5573 62.6977 86.6929 62.6803 86.8278L62.0459 91.7984C62.0237 91.9676 61.904 92.107 61.74 92.1531C61.7021 92.1643 61.6626 92.1694 61.6245 92.1694Z" fill="#50A736"/>
<path d="M25.8156 54.3157H25.8149C23.4435 54.3157 20.6255 54.813 17.6424 55.3397C14.7909 55.8421 11.8418 56.3621 9.12262 56.4718C8.02763 56.5159 7.07828 56.5377 6.29981 56.5377C5.08337 56.5377 4.5061 56.4828 4.24635 56.4425C4.12104 56.3163 3.95838 56.2317 3.78027 56.2024C3.73481 56.1952 3.68882 56.1914 3.64304 56.1914C3.45811 56.1914 3.27723 56.2516 3.12767 56.3659C2.86725 56.5645 2.73331 56.889 2.77877 57.2115C2.79756 57.3428 2.87141 57.6267 3.16936 57.8412C5.56137 61.0564 10.1228 62.6859 16.733 62.6859C23.5726 62.6859 30.2647 60.943 31.2607 60.6723C31.9649 60.7408 35.0559 62.1943 47.5087 76.3401C54.4425 84.2167 60.8986 92.1993 60.9631 92.2787C61.1268 92.4819 61.3715 92.5943 61.6239 92.5943C61.7012 92.5943 61.7794 92.5842 61.8559 92.5621C62.1834 92.4694 62.4239 92.1899 62.4669 91.852L63.1017 86.8817C63.1365 86.611 63.0387 86.3403 62.84 86.1542C62.5552 85.8874 34.3312 59.4324 31.0365 55.9954C29.9559 54.8655 28.2482 54.3157 25.8156 54.3157ZM3.64304 57.0412C3.6782 57.093 3.7139 57.1452 3.75005 57.1954C3.54577 57.1156 3.64304 57.0412 3.64304 57.0412ZM25.8149 55.1656C27.8063 55.1656 29.4213 55.5361 30.4229 56.5835C33.7715 60.0771 62.259 86.7742 62.259 86.7742L61.6239 91.7445C61.6239 91.7445 35.8294 59.8199 31.2127 59.8196C31.1911 59.8196 31.1698 59.8205 31.149 59.8216C31.149 59.8216 23.9559 61.8361 16.733 61.8361C11.5284 61.8361 6.31027 60.7921 3.75005 57.1954C3.98729 57.2881 4.63007 57.3873 6.29981 57.3873C7.03544 57.3873 7.96989 57.3683 9.15664 57.3207C14.7735 57.0956 21.2717 55.1656 25.8149 55.1656Z" fill="white"/>
<path d="M31.2468 55.2546C31.1559 55.2546 31.0662 55.2253 30.9911 55.1687L30.8614 55.0711C27.1733 52.3198 27.079 43.9365 27.0037 37.2006C26.9966 36.6039 26.9902 36.0193 26.9812 35.4517C26.9354 32.4616 26.7552 31.5136 26.6592 31.2191L26.6345 31.2052C26.5219 31.144 26.4429 31.0356 26.4199 30.9099C26.3962 30.7841 26.431 30.6541 26.5138 30.5563C26.6039 30.4509 26.7407 30.3881 26.8801 30.3881C26.9783 30.3881 27.1492 30.4187 27.2922 30.6009C30.9647 32.7581 32.8818 37.65 32.8369 44.7574C32.8028 50.0951 31.6717 54.8812 31.6603 54.9288C31.6266 55.068 31.5255 55.1812 31.3904 55.2295C31.3437 55.2462 31.2957 55.2546 31.2468 55.2546Z" fill="#50A736"/>
<path d="M26.8794 29.963C26.6134 29.963 26.3614 30.0786 26.1893 30.2804C26.0232 30.4753 25.9539 30.735 26.0015 30.9874C26.0376 31.1821 26.1393 31.355 26.2874 31.4802C26.3673 31.8337 26.5156 32.831 26.5556 35.4577C26.5645 36.0255 26.571 36.6092 26.5781 37.205C26.6585 44.3905 26.7497 52.5346 30.608 55.4128L30.7349 55.5081C30.8841 55.6211 31.0647 55.6793 31.2461 55.6793C31.3426 55.6793 31.4398 55.6626 31.5338 55.6291C31.8032 55.5326 32.0058 55.3062 32.073 55.0275C32.12 54.8304 33.2266 50.1462 33.2611 44.7601C33.3069 37.4271 31.3928 32.5544 27.5699 30.2714C27.3175 29.9978 27.0162 29.963 26.8794 29.963ZM26.9937 30.9189C35.7691 35.9328 31.2461 54.8295 31.2461 54.8295L31.1166 54.7313C27.2827 51.8713 27.5142 42.4147 27.4054 35.4445C27.3558 32.1852 27.144 31.2007 26.9937 30.9189ZM26.8794 30.8126C26.9074 30.8126 26.9479 30.8335 26.9937 30.9189C26.9415 30.8896 26.8891 30.8603 26.8365 30.8315C26.8365 30.8315 26.853 30.8126 26.8794 30.8126Z" fill="white"/>
<path d="M68.2149 58.5478C68.1341 58.5478 68.0539 58.5249 67.9838 58.4793C67.9087 58.4306 66.1235 57.2628 64.464 55.3623C62.249 52.8266 61.34 50.1916 61.8325 47.7379C61.8222 47.5799 61.8775 47.4689 61.9319 47.3996C62.0121 47.2973 62.1534 47.2267 62.2834 47.2258H62.2854C62.4142 47.2258 62.5361 47.2844 62.6169 47.3852C62.6929 47.4804 62.7244 47.6031 62.7045 47.7218C62.7766 47.8716 63.0264 48.2958 63.8737 49.3282L64.4032 49.9703C66.5365 52.5485 68.9543 55.4711 68.6466 58.0826L68.6378 58.1676C68.622 58.3145 68.531 58.4429 68.3977 58.5066C68.3394 58.5343 68.277 58.5478 68.2149 58.5478Z" fill="#50A736"/>
<path d="M62.2878 46.8013H62.2856C62.19 46.8013 62.0978 46.8174 62.0116 46.8463C61.8504 46.9007 61.7048 47.0015 61.598 47.1377C61.5182 47.239 61.4055 47.4309 61.4061 47.7029C60.9085 50.2775 61.8535 53.0192 64.1442 55.6421C65.842 57.5866 67.6755 58.7861 67.7524 58.8357C67.8925 58.9267 68.0537 58.9731 68.2151 58.9731C68.34 58.9731 68.4649 58.9454 68.581 58.8901C68.8473 58.7632 69.0292 58.5064 69.0603 58.2124L69.0696 58.1227C69.3977 55.3405 66.9184 52.3438 64.7308 49.7C64.5511 49.4824 64.3744 49.2687 64.2028 49.0591C63.5094 48.2137 63.2387 47.8037 63.1363 47.6273C63.1235 47.1689 62.7491 46.8013 62.2878 46.8013ZM62.263 47.7526C62.3043 47.9231 62.5453 48.3786 63.5455 49.598C65.6466 52.1619 68.5367 55.3848 68.225 58.0331L68.2151 58.1232C68.2151 58.1232 61.0495 53.4734 62.263 47.7526ZM62.2856 47.6511C62.2779 47.685 62.2704 47.719 62.263 47.7526C62.2389 47.6511 62.2856 47.6511 62.2856 47.6511Z" fill="white"/>
<path d="M65.9285 79.0754C65.7888 79.0754 65.658 79.0071 65.5785 78.8912C65.4894 78.7619 56.6718 65.9265 55.4666 64.3518C54.536 63.1357 55.1463 61.0623 55.7917 58.8672C56.1117 57.7795 56.4426 56.6547 56.5994 55.604C56.7839 54.376 56.8005 53.9038 56.7945 53.7364C56.7469 53.6652 56.721 53.5802 56.7218 53.4927C56.7236 53.3778 56.772 53.2687 56.8544 53.1901C56.9335 53.1154 57.0516 53.0681 57.1604 53.0681C57.2963 53.0681 57.4685 53.137 57.5641 53.3201C60.5013 56.5231 57.7569 63.9397 57.4582 64.7146C57.4276 65.841 62.7793 72.4696 68.028 78.2899C68.1386 78.4123 68.1679 78.5868 68.1046 78.739C68.0412 78.8906 67.895 78.9923 67.7311 78.9991C67.7311 78.9991 65.935 79.0754 65.9285 79.0754Z" fill="#50A736"/>
<path d="M57.161 52.6434H57.1606C56.9427 52.6434 56.7209 52.7317 56.5632 52.8813C56.3965 53.039 56.3009 53.257 56.2976 53.4859C56.296 53.6105 56.3214 53.7324 56.3707 53.8432C56.3665 54.0414 56.3346 54.5099 56.1799 55.5409C56.0273 56.5632 55.7006 57.6735 55.3844 58.7471C54.7081 61.0487 54.0685 63.2225 55.13 64.6099C56.3282 66.176 65.1394 79.0026 65.2282 79.1323C65.3872 79.3634 65.6502 79.5006 65.9289 79.5006C65.9412 79.5006 65.9531 79.5002 65.9654 79.4998L67.7491 79.4237C68.078 79.4097 68.3691 79.207 68.4965 78.9037C68.624 78.6002 68.5645 78.2502 68.344 78.0059C62.0868 71.0663 58.1799 65.8953 57.8987 64.7522C58.3617 63.5132 60.8517 56.3531 57.9114 53.07C57.7337 52.7773 57.4291 52.6434 57.161 52.6434ZM57.2013 53.5535C60.1773 56.6685 57.0425 64.6134 57.0425 64.6134C56.7328 66.3984 67.713 78.5748 67.713 78.5748L65.9293 78.6508C65.9293 78.6508 57.03 65.6951 55.8051 64.0936C54.589 62.5046 56.5491 58.8207 57.0203 55.6671C57.2447 54.1702 57.2379 53.6976 57.2013 53.5535ZM57.161 53.4932C57.172 53.4932 57.1887 53.5035 57.2013 53.5535C57.1835 53.5354 57.1658 53.5165 57.1474 53.4987C57.1474 53.4987 57.1529 53.4932 57.161 53.4932Z" fill="white"/>
<path d="M54.1359 64.7553C51.843 64.7553 46.3813 64.3819 44.8921 60.9443C44.7934 60.8224 44.782 60.6958 44.7871 60.6224C44.7959 60.4799 44.886 60.3324 45.0097 60.2616C45.0752 60.2238 45.1487 60.205 45.2218 60.205C45.2697 60.205 45.3183 60.2132 45.3637 60.2293C45.4529 60.2606 45.5285 60.3205 45.5787 60.3993C45.7278 60.4599 46.1566 60.6031 47.2948 60.8313L48.0456 60.98C51.0379 61.5694 54.4302 62.2374 55.411 64.0427L55.441 64.0963C55.5141 64.2233 55.5159 64.3784 55.4461 64.5072C55.3769 64.6359 55.2469 64.72 55.1007 64.7299C55.0855 64.7311 54.7225 64.7553 54.1359 64.7553Z" fill="#50A736"/>
<path d="M45.2217 59.7798C45.0743 59.7798 44.9281 59.8181 44.7977 59.8934C44.5432 60.0399 44.3805 60.3026 44.3626 60.5961C44.3499 60.7983 44.4064 60.993 44.5216 61.1582C46.1369 64.7848 51.7683 65.18 54.1353 65.18C54.7366 65.18 55.1135 65.1549 55.1293 65.154C55.4206 65.1341 55.682 64.9659 55.8201 64.7084C55.9586 64.4509 55.9547 64.1399 55.8104 63.8863L55.776 63.8254C54.7086 61.859 51.212 61.1707 48.1269 60.563C47.8727 60.5134 47.6225 60.4641 47.3785 60.4146C46.4443 60.2269 46.0172 60.1033 45.8336 60.0399C45.7435 59.946 45.6309 59.8725 45.5051 59.828C45.4129 59.7961 45.3173 59.7798 45.2217 59.7798ZM45.2514 60.7046C45.3679 60.7925 45.789 60.9628 47.2111 61.248C50.1765 61.8445 54.0725 62.4687 55.0375 64.2452L55.0717 64.306C55.0717 64.306 54.715 64.3302 54.1353 64.3302C51.9501 64.3302 46.5972 63.9861 45.2514 60.7046ZM45.2217 60.6297C45.2314 60.6551 45.2413 60.6798 45.2514 60.7046C45.1822 60.6522 45.2217 60.6297 45.2217 60.6297Z" fill="white"/>
<path d="M50.8583 149.491C47.2115 149.491 45.1182 146.295 44.6369 139.99C44.6356 139.971 44.6353 139.951 44.6365 139.932C44.7653 137.81 49.4217 123.249 58.4789 96.648C60.1343 85.5793 61.8671 79.2903 63.7737 77.4293C65.7953 73.3244 68.2853 70.8892 71.1763 70.1864C71.2842 69.7954 71.579 69.5304 72.0193 69.4419C72.3052 69.3855 72.5878 69.3562 72.8598 69.3562C76.0657 69.3562 78.1838 73.1599 79.3356 80.9844C79.3382 81.004 79.3398 81.0236 79.3398 81.0427C79.5213 100.254 80.9992 106.342 82.2849 107.94C83.1373 107.399 84.3834 105.575 85.8422 100.284C85.8574 100.228 85.8847 100.175 85.9212 100.13C86.5671 99.3291 88.7298 94.244 95.3668 74.5659C95.4144 74.4227 95.536 74.3156 95.6842 74.285C95.9027 74.2399 96.871 73.6833 100.121 68.4077C100.183 68.3079 100.283 68.2374 100.398 68.2141C101.466 67.9982 102.715 67.5575 104.109 66.9053C104.139 66.8918 104.172 66.8811 104.204 66.8744C104.597 66.7945 104.987 66.7544 105.361 66.7544C108.458 66.7544 110.808 69.3412 112.544 74.661C112.555 74.6921 112.561 74.7244 112.564 74.7566L113.061 80.5154C113.315 125.045 110.681 128.714 109.506 129.197C107.379 135.274 105.47 139.235 103.833 140.972C103.777 141.032 103.703 141.075 103.622 141.094L102.341 141.397C102.225 141.425 102.109 141.438 101.996 141.438C100.896 141.438 100.143 140.231 99.6944 137.745C99.6902 137.723 99.688 137.701 99.6876 137.679C99.3693 123.579 99.3609 115.583 99.6622 113.241C99.6532 113.127 99.6281 113.092 99.6278 113.092C99.6069 113.107 99.5746 113.109 99.5274 113.119C99.4964 113.127 99.4655 113.129 99.434 113.129C99.3349 113.129 99.2377 113.095 99.1613 113.03C99.0593 112.945 99.0036 112.816 99.01 112.684C99.219 108.388 99.508 106.906 99.8058 106.367L99.2946 105.488C99.2611 105.43 99.2411 105.364 99.2373 105.297L98.9624 100.175L98.2604 96.5672C96.073 105.06 91.3047 114.313 84.0823 124.078C82.8408 128.762 80.4272 131.546 76.9104 132.355C76.8785 132.362 76.847 132.366 76.8147 132.366C76.7561 132.366 76.6979 132.353 76.6431 132.329C72.816 130.636 69.9963 126.377 68.2605 119.672C67.5807 115.985 67.2133 113.533 67.1393 112.199L66.7179 112.291C66.208 117.447 65.0959 121.972 63.412 125.752C63.777 126.57 63.9495 127.222 63.9367 127.744C63.8523 131.462 60.2058 138.452 52.7895 149.112C52.7292 149.198 52.6395 149.259 52.538 149.283C51.9503 149.421 51.3856 149.491 50.8583 149.491Z" fill="#50A736"/>
<path d="M105.361 66.3295C104.958 66.3295 104.541 66.3723 104.121 66.4577C104.054 66.4709 103.99 66.4917 103.929 66.5207C102.566 67.1584 101.35 67.5879 100.315 67.7974C100.084 67.8441 99.8832 67.9844 99.7596 68.185C96.7032 73.1458 95.7519 73.7916 95.5726 73.8743C95.2883 73.9425 95.0585 74.1514 94.9642 74.4293C87.9992 95.0829 86.1015 99.2291 85.5907 99.8632C85.5173 99.954 85.4638 100.059 85.4332 100.171C84.1338 104.886 83.0418 106.659 82.3746 107.32C81.3371 105.535 79.9409 99.6439 79.7654 81.0386C79.7649 80.9996 79.7623 80.961 79.7565 80.9227C78.5684 72.8533 76.3127 68.9315 72.8603 68.9315C72.5603 68.9315 72.2493 68.963 71.9371 69.0254C71.4334 69.1265 71.057 69.4168 70.8598 69.8293C67.9493 70.6243 65.4501 73.0927 63.4253 77.1764C62.1468 78.4582 60.2411 82.0134 58.0647 96.5476C49.0037 123.16 44.3438 137.748 44.2129 139.906C44.2109 139.945 44.2109 139.984 44.2134 140.022C44.7147 146.587 46.9502 149.916 50.8588 149.916C51.4184 149.916 52.0167 149.842 52.6358 149.696C52.8402 149.649 53.0191 149.527 53.1389 149.354C60.6045 138.624 64.2755 131.558 64.3623 127.753C64.3753 127.208 64.2165 126.551 63.8762 125.753C65.3306 122.438 66.3524 118.566 66.9248 114.216C67.1109 115.594 67.4134 117.421 67.8367 119.719C67.8396 119.739 67.8447 119.759 67.8495 119.779C69.6191 126.615 72.5204 130.969 76.4711 132.718C76.5807 132.766 76.698 132.79 76.8153 132.79C76.879 132.79 76.9431 132.783 77.0061 132.769C80.6691 131.927 83.1803 129.066 84.4724 124.265C91.2092 115.145 95.8156 106.464 98.1891 98.4218L98.5396 100.228L98.8133 105.32C98.8209 105.454 98.8596 105.585 98.9281 105.702L99.3325 106.397C99.1711 106.78 99.0656 107.298 98.9706 107.949C98.8138 109.027 98.688 110.568 98.5863 112.663C98.5733 112.928 98.6851 113.184 98.8882 113.355C98.9812 113.434 99.0891 113.49 99.2037 113.523C98.9382 116.252 98.9581 124.175 99.2633 137.688C99.2645 137.733 99.2688 137.777 99.2768 137.82C99.4761 138.926 100.006 141.863 101.997 141.863C102.142 141.863 102.292 141.845 102.44 141.81L103.721 141.507C103.883 141.47 104.029 141.384 104.143 141.263C105.833 139.47 107.704 135.611 109.86 129.47C110.615 128.979 111.159 127.747 111.624 125.529C112.082 123.341 112.463 120.133 112.754 115.992C113.328 107.825 113.576 95.8996 113.488 80.547C113.488 80.5242 113.487 80.5016 113.485 80.4791L112.988 74.7199C112.982 74.6549 112.969 74.5908 112.949 74.5291C111.173 69.0883 108.62 66.3295 105.361 66.3295ZM105.361 67.1793C108.228 67.1793 110.476 69.6899 112.142 74.793L112.638 80.5518C112.812 111.075 111.666 128.277 109.177 128.852C107.044 134.978 105.149 138.957 103.525 140.681L102.244 140.983C102.159 141.003 102.077 141.013 101.997 141.013C101.143 141.013 100.514 139.894 100.113 137.669C99.7915 123.427 99.7905 115.483 100.089 113.256C100.071 112.874 99.9155 112.681 99.6257 112.681C99.5671 112.681 99.5037 112.689 99.4345 112.705C99.6347 108.605 99.9367 106.536 100.344 106.446L99.6623 105.274L99.3856 100.123L98.5486 95.8227L97.9792 95.9456C95.8739 104.503 91.1697 113.795 83.6927 123.89C82.4997 128.458 80.2056 131.161 76.8153 131.941C73.0885 130.291 70.3704 126.125 68.672 119.566C67.9056 115.399 67.5345 112.786 67.5512 111.673L66.3248 111.942C65.8273 117.252 64.7056 121.871 62.9457 125.753C63.3339 126.584 63.5248 127.246 63.5125 127.734C63.4308 131.322 59.8149 138.27 52.4416 148.869C51.8828 149 51.3552 149.066 50.8588 149.066C47.4601 149.066 45.522 145.998 45.061 139.958C45.1876 137.861 50.0566 122.702 58.8938 96.7491C60.5581 85.6097 62.2849 79.3859 64.1217 77.6846C66.1761 73.4844 68.6479 71.1207 71.5567 70.5377C71.5583 70.1569 71.7415 69.9313 72.1039 69.8586C72.3627 69.8073 72.6151 69.7813 72.8603 69.7813C75.7942 69.7809 77.8015 73.4767 78.9156 81.0463C79.0682 97.1557 80.1598 106.591 82.1929 108.463C83.5627 107.926 84.925 105.212 86.2519 100.397C87.2275 99.1872 90.4968 90.3368 95.7693 74.7013C96.512 74.5487 98.0944 72.5084 100.483 68.6307C101.589 68.4068 102.856 67.9606 104.289 67.2901C104.655 67.2161 105.013 67.1793 105.361 67.1793Z" fill="white"/>
<path d="M263.458 68.6035C263.458 68.6035 291.224 72.5082 293.507 74.7645C293.507 74.7645 302.473 87.1449 310.683 88.1099C310.683 88.1099 310.799 88.6066 307.286 85.2846C302.784 81.0322 299.158 75.0088 295.544 74.2734C291.94 73.5417 265.213 67.0738 265.213 67.0738L263.458 68.6035Z" fill="#235F2C"/>
<path d="M295.978 73.404C295.978 73.404 303.403 65.8302 311.447 69.0081C311.447 69.0081 311.476 68.5899 308.516 70.0299C304.634 71.9207 299.742 74.5996 296.101 73.4405L295.978 73.404Z" fill="#235F2C"/>
<path d="M251.775 83.5472C251.775 83.5472 277.497 52.4436 281.856 52.7372C281.856 52.7372 302.995 58.5646 308.914 50.05C308.914 50.05 309.594 50.5612 303.491 50.3199C295.55 50.0068 285.837 46.2855 282.586 49.6082C279.277 52.9837 251.172 78.7557 251.172 78.7557L251.775 83.5472Z" fill="#235F2C"/>
<path d="M281.786 47.9126C281.786 47.9126 277.379 29.4135 286.247 24.6883C286.247 24.6883 285.767 24.132 285.663 29.1566C285.52 35.9031 285.698 45.0516 281.912 47.8161L281.786 47.9126Z" fill="#235F2C"/>
<path d="M272.113 95.5282C272.057 95.5223 272 95.504 271.95 95.4751L268.225 93.3582C268.121 93.2996 268.047 93.2002 268.02 93.0846C267.787 92.0738 267.83 91.9492 267.864 91.8489C267.879 91.8102 267.912 91.7146 269.21 89.3615L269.124 89.311C268.939 89.2775 268.745 89.26 268.544 89.26C266.126 89.26 263.504 91.6892 263.478 91.7143C263.399 91.7883 263.295 91.8286 263.187 91.8286C263.181 91.8286 263.174 91.8285 263.168 91.8282C263.055 91.8234 262.947 91.7729 262.87 91.6875C262.839 91.6514 262.165 90.8917 261.892 89.8562C261.886 89.8566 261.879 89.8566 261.873 89.8566C261.773 89.8566 261.676 89.8214 261.599 89.7558C261.425 89.609 259.912 88.2789 260.322 86.943C260.526 86.2866 260.934 86.1894 261.159 86.1894C261.529 86.1894 261.859 86.4421 262.128 86.697L264.395 85.1491C264.434 85.122 264.478 85.1014 264.526 85.0897L265.135 84.9265C265.172 84.9166 265.209 84.9121 265.245 84.9121C265.302 84.9121 265.359 84.9234 265.412 84.9465L268.78 86.3894C269.61 86.0036 270.207 85.2613 270.599 84.6047C269.819 84.726 268.987 84.8216 268.485 84.8216C268.172 84.8216 267.989 84.7884 267.853 84.7073C267.555 84.53 265.388 83.0492 265.143 82.8809C264.978 82.7692 264.914 82.5593 264.987 82.3745L265.029 82.2641C265.077 82.1467 265.172 82.0558 265.291 82.0168C265.368 81.9908 265.445 81.9577 265.522 81.9165C265.439 81.845 265.388 81.7449 265.379 81.6361L265.326 81.0705C265.317 80.9826 265.337 80.8941 265.381 80.8177C265.463 80.6758 265.905 79.9683 266.527 79.9683C266.634 79.9683 266.738 79.9886 266.835 80.0282C267.163 80.163 267.375 80.4467 267.436 80.8207L269.084 82.7441L271.212 82.8597C271.21 82.8571 271.211 82.8551 271.209 82.8529C270.991 82.3775 270.949 81.8569 271.088 81.3734C271.018 81.3569 270.956 81.3463 270.91 81.3438C270.855 81.3666 270.797 81.3786 270.736 81.3786C270.624 81.3786 270.513 81.3361 270.432 81.2507C270.276 81.0875 270.267 80.839 270.421 80.6745C270.432 80.6613 270.472 80.6269 270.472 80.626L270.551 80.5593L270.553 80.561C270.703 80.4331 270.936 80.3643 271.146 80.3278C270.82 80.0044 270.32 79.6113 269.793 79.4481C269.591 79.3857 269.467 79.1851 269.5 78.9765C269.531 78.7696 269.71 78.6176 269.919 78.6176H269.923C269.991 78.6183 271.267 78.6405 272.328 79.339C272.273 78.8458 272.121 78.3282 271.765 78.1489C271.58 78.0558 271.489 77.8425 271.549 77.6449C271.606 77.4648 271.771 77.345 271.956 77.345C271.974 77.345 271.993 77.3461 272.011 77.3483C272.179 77.3699 273.674 77.6458 275.269 80.6176C275.665 80.6727 276.443 80.8223 276.905 81.1864C277.058 81.3084 277.11 81.5209 277.027 81.6994C276.982 81.7945 276.906 81.8672 276.815 81.908C276.932 82.1157 277.049 82.3749 277.17 82.689C277.234 82.8584 277.185 83.0509 277.046 83.1674C276.967 83.2324 276.87 83.2655 276.773 83.2655C276.698 83.2655 276.621 83.2452 276.553 83.2035C276.526 83.187 276.48 83.1619 276.423 83.1346C276.555 83.3476 276.656 83.6029 276.679 83.902C276.692 84.0707 276.606 84.2313 276.456 84.3108C276.394 84.3443 276.324 84.361 276.256 84.361C276.163 84.361 276.069 84.3298 275.993 84.2692C275.991 84.2679 275.678 84.03 275.243 83.9441C275.765 84.2593 277.985 85.6318 278.168 86.2165C278.271 86.5518 278.892 89.0994 278.961 89.3884C279.009 89.5813 278.916 89.7815 278.738 89.8694L278.63 89.9225C278.571 89.9518 278.507 89.967 278.441 89.967C278.384 89.967 278.326 89.9551 278.273 89.9319C278.198 89.8991 278.117 89.8723 278.031 89.8507C278.046 89.959 278.016 90.0683 277.952 90.1549L277.612 90.613C277.558 90.6842 277.485 90.737 277.401 90.7646C277.366 90.7753 277.057 90.8721 276.721 90.8721C276.123 90.8721 275.883 90.5612 275.795 90.3758C275.643 90.0588 275.672 89.7053 275.877 89.3862L275.939 86.8516L275.117 86.0269C274.888 87.337 274.461 89.0991 273.72 90.2306C273.482 90.5938 273.309 90.8551 273.187 91.0421C273.225 91.0875 273.264 91.1296 273.297 91.1602C273.447 91.1386 273.714 91.1181 274.205 91.1181C274.306 91.1181 274.405 91.1564 274.485 91.2198C274.485 91.2198 274.685 91.2124 274.689 91.2124C274.769 91.2124 274.85 91.235 274.917 91.2791L275.311 91.5286C275.421 91.5987 275.493 91.7155 275.505 91.8456C275.527 92.0721 275.689 94.0776 274.465 94.7514C274.251 94.8692 274.058 94.9262 273.875 94.9262C273.8 94.9262 273.672 94.9137 273.538 94.8505C272.965 95.476 272.384 95.532 272.198 95.532C272.181 95.532 272.128 95.5298 272.113 95.5282Z" fill="#50A736"/>
<path d="M271.956 76.9202C271.588 76.9202 271.255 77.1599 271.145 77.5205C271.033 77.8801 271.174 78.265 271.478 78.472C270.669 78.2055 269.98 78.1932 269.927 78.1929H269.919C269.502 78.1929 269.145 78.4971 269.079 78.9114C269.015 79.3282 269.266 79.7297 269.669 79.8542C269.89 79.9231 270.117 80.0497 270.324 80.1945C270.282 80.2251 270.242 80.2592 270.205 80.296C270.172 80.3233 270.139 80.3529 270.11 80.3844C269.804 80.7134 269.806 81.2249 270.115 81.5513C270.247 81.6881 270.412 81.7722 270.588 81.8024C270.575 82.0024 270.588 82.2035 270.625 82.4024L269.289 82.3297L267.832 80.6291C267.722 80.1669 267.43 79.8138 267 79.6366C266.846 79.5746 266.689 79.5436 266.529 79.5436C265.692 79.5436 265.158 80.3561 265.013 80.605C264.925 80.7579 264.887 80.9346 264.903 81.1106L264.956 81.6757C264.956 81.6868 264.958 81.6982 264.96 81.7088C264.815 81.805 264.7 81.9438 264.636 82.1086L264.592 82.2192C264.447 82.5879 264.575 83.0086 264.903 83.2321C265.306 83.5075 267.333 84.8918 267.636 85.072C267.844 85.196 268.09 85.2465 268.485 85.2465C268.802 85.2465 269.225 85.2127 269.68 85.1599C269.423 85.4548 269.119 85.7258 268.764 85.9209L265.581 84.5561C265.473 84.5106 265.361 84.4874 265.245 84.4874C265.172 84.4874 265.099 84.4971 265.026 84.5161L264.416 84.679C264.322 84.704 264.235 84.7443 264.156 84.7987L262.159 86.1619C261.883 85.9447 261.548 85.7645 261.159 85.7645C260.885 85.7645 260.213 85.867 259.918 86.817C259.425 88.4143 261.128 89.9147 261.324 90.0802C261.396 90.1401 261.473 90.187 261.557 90.2205C261.877 91.1949 262.473 91.8806 262.555 91.9711C262.707 92.1414 262.921 92.2434 263.15 92.2533C263.163 92.2533 263.174 92.2537 263.187 92.2537C263.403 92.2537 263.61 92.1722 263.767 92.0242C263.791 92.0017 266.304 89.6852 268.546 89.6852H268.548C267.518 91.5542 267.491 91.6346 267.465 91.7068C267.398 91.8996 267.346 92.0502 267.606 93.1804C267.659 93.4119 267.808 93.6108 268.015 93.728L271.74 95.8454C271.833 95.8976 271.962 95.9359 272.068 95.9511C272.068 95.9511 272.114 95.9572 272.198 95.9572C272.412 95.9572 273.029 95.9024 273.658 95.3321C273.727 95.3443 273.8 95.3513 273.876 95.3513C274.132 95.3513 274.39 95.2768 274.669 95.1244C276.132 94.3191 275.954 92.059 275.929 91.804C275.903 91.5442 275.758 91.3105 275.539 91.1705L275.147 90.9207C275.009 90.8341 274.852 90.7877 274.691 90.7877C274.68 90.7877 274.67 90.7877 274.659 90.7881L274.617 90.7899C274.498 90.7282 274.365 90.6938 274.225 90.6934C274.115 90.6934 274.015 90.6943 273.923 90.696C273.971 90.6238 274.022 90.5456 274.075 90.4627C274.709 89.494 275.123 88.1053 275.383 86.8943L275.509 87.0231L275.456 89.2648C275.227 89.6822 275.209 90.1407 275.412 90.5605C275.518 90.7819 275.859 91.2973 276.722 91.2973C277.114 91.2973 277.465 91.1905 277.531 91.1692C277.7 91.1149 277.848 91.0092 277.952 90.8669L278.293 90.4092C278.3 90.4002 278.306 90.3914 278.311 90.3821C278.355 90.3888 278.399 90.3921 278.441 90.3921C278.572 90.3921 278.702 90.3625 278.821 90.3039L278.927 90.2508C279.282 90.074 279.469 89.674 279.376 89.2883C279.26 88.8141 278.68 86.4317 278.577 86.0951C278.44 85.6566 277.681 85.0379 276.894 84.4923C277.042 84.3233 277.123 84.1002 277.103 83.8678C277.097 83.7883 277.086 83.711 277.072 83.6366C277.159 83.6039 277.244 83.5564 277.317 83.494C277.597 83.2616 277.698 82.8769 277.568 82.537C277.5 82.359 277.427 82.1801 277.346 82.0084C277.374 81.9681 277.398 81.9257 277.419 81.8797C277.586 81.5233 277.478 81.0975 277.169 80.8531C276.705 80.4868 276.011 80.3114 275.54 80.2299C273.918 77.3103 272.37 76.9665 272.066 76.9269C272.029 76.922 271.993 76.9202 271.956 76.9202ZM270.747 80.9504L270.731 80.9649C270.736 80.9594 270.742 80.9546 270.747 80.9504ZM271.956 77.77C271.956 77.77 273.418 77.9595 274.996 81.0138C274.996 81.0138 276.123 81.1106 276.643 81.5202C276.643 81.5202 276.553 81.502 276.438 81.502C276.286 81.502 276.086 81.5326 275.973 81.674C275.973 81.674 275.984 81.6663 276.007 81.6663C276.101 81.6663 276.366 81.7757 276.773 82.8409C276.773 82.8409 276.282 82.5412 275.846 82.5412C275.67 82.5412 275.506 82.5888 275.383 82.7211C275.383 82.7211 276.192 83.139 276.256 83.9363C276.256 83.9363 275.691 83.4883 274.938 83.4883C274.833 83.4883 274.727 83.4973 274.617 83.516C274.315 83.7284 273.945 83.8507 273.553 83.8623L274.894 84.2621L274.92 84.2447C275.899 84.8213 277.661 86.0136 277.764 86.3438C277.865 86.6738 278.55 89.4892 278.55 89.4892L278.441 89.5423C278.137 89.4097 277.81 89.3652 277.5 89.3623C277.575 89.6257 277.61 89.9022 277.61 89.9022L277.271 90.3599C277.271 90.3599 277 90.4475 276.722 90.4475C276.5 90.4475 276.273 90.3918 276.178 90.1916C276.048 89.9209 276.176 89.6797 276.3 89.5279L276.368 86.6806L274.83 85.1345C274.656 86.3786 274.231 88.6751 273.365 89.9978C272.989 90.5733 272.775 90.8923 272.663 91.0639C272.68 91.089 273.051 91.6061 273.233 91.6061C273.244 91.6061 273.251 91.6048 273.26 91.6018C273.418 91.5454 274.092 91.5432 274.205 91.5432H274.224C274.224 91.5432 274.235 91.5806 274.244 91.6533L274.691 91.6376L275.082 91.8874C275.082 91.8874 275.273 93.8216 274.26 94.3795C274.104 94.4649 273.98 94.5015 273.876 94.5015C273.685 94.5015 273.573 94.3744 273.507 94.1967C272.956 95.0495 272.352 95.1073 272.198 95.1073C272.174 95.1073 272.159 95.1061 272.159 95.1061L268.434 92.9892C268.434 92.9892 268.229 92.0973 268.267 91.9885C268.304 91.8802 269.782 89.2062 269.782 89.2062L269.278 88.9081C269.037 88.8583 268.791 88.8354 268.546 88.8354C265.932 88.8354 263.187 91.4039 263.187 91.4039C263.187 91.4039 262.376 90.4989 262.227 89.361L261.874 89.4319C261.874 89.4319 260.388 88.1746 260.729 87.0681C260.833 86.7343 260.987 86.6143 261.159 86.6143C261.473 86.6143 261.844 87.0125 262.077 87.2465L264.636 85.5002L265.245 85.3372L268.78 86.8518C270.165 86.3037 270.98 84.9117 271.37 84.0416C270.484 84.2103 269.169 84.3967 268.485 84.3967C268.282 84.3967 268.134 84.3802 268.07 84.342C267.777 84.1665 265.383 82.5306 265.383 82.5306L265.425 82.4198C265.74 82.3152 266.015 82.1269 266.245 81.9235C266.015 81.7786 265.802 81.5964 265.802 81.5964L265.749 81.0308C265.749 81.0308 266.117 80.3934 266.529 80.3934C266.577 80.3934 266.626 80.4028 266.676 80.4227C266.952 80.5361 267.018 80.8013 267.028 80.9971L268.881 83.1586L271.654 83.3095C271.654 83.3083 271.658 83.2984 271.658 83.2984L271.702 83.3125L271.769 83.3163L271.766 83.3308L272.284 83.485C272.147 83.3898 272.018 83.279 271.909 83.157C271.919 83.157 271.93 83.1573 271.941 83.1573C272.918 83.1573 273.311 82.4559 273.311 82.4559C272.991 82.6819 272.608 82.7511 272.26 82.7511C272.007 82.7511 271.773 82.7147 271.595 82.6755C271.414 82.2786 271.376 81.8279 271.526 81.4004C271.562 81.2964 271.608 81.1989 271.663 81.1077L271.621 81.0927C271.621 81.0927 271.161 80.9185 270.894 80.9185C270.833 80.9185 270.782 80.9279 270.747 80.9504L270.826 80.8841C270.771 80.8834 271.216 80.7099 271.608 80.7099C271.687 80.7099 271.766 80.718 271.837 80.7346C271.85 80.7379 271.863 80.7398 271.874 80.7398C272.18 80.7398 271.072 79.3995 269.919 79.0427C269.919 79.0427 271.8 79.0614 272.758 80.3007C272.76 80.3004 272.76 80.2995 272.76 80.2986C272.767 80.2374 272.967 78.2795 271.956 77.77Z" fill="white"/>
<path d="M44.1858 38.5141C43.8094 38.5141 42.5814 38.3879 41.3968 36.8921C41.1164 37.1608 40.7961 37.2133 40.5882 37.2133C40.2807 37.2133 39.9444 37.111 39.5609 36.9007C37.1669 35.5835 37.5587 31.3231 37.5765 31.1416C37.5893 31.0115 37.6614 30.8947 37.7715 30.8245L38.6145 30.2901C38.6825 30.2463 38.7616 30.2238 38.8418 30.2238C38.847 30.2238 39.4699 30.2454 39.4699 30.2454C39.5442 30.1111 39.6862 30.021 39.842 30.0198H39.8442C40.4812 30.0198 41.5162 30.0368 41.9585 30.1434C42.1136 30.0546 42.4153 29.73 42.6715 29.4029L42.5695 29.2485C42.3006 28.8425 41.9032 28.2428 41.3292 27.3637C39.6028 24.728 38.6867 20.4077 38.2475 17.6016L35.6713 20.1892L35.8111 25.9747C36.227 26.5487 36.3069 27.1679 36.0341 27.732C35.8616 28.0912 35.4519 28.5199 34.4841 28.5199C33.8288 28.5199 33.2034 28.3214 33.177 28.3133C33.0929 28.2862 33.0189 28.2331 32.9658 28.1621L32.2363 27.1811C32.1704 27.0923 32.142 26.9804 32.1565 26.8712C32.1585 26.8538 32.1955 26.5785 32.2699 26.2216C31.7821 26.2692 31.3517 26.3754 30.9645 26.5441C30.9102 26.5674 30.8528 26.5793 30.7951 26.5793C30.7305 26.5793 30.6664 26.5644 30.6072 26.5355L30.3774 26.4221C30.199 26.3342 30.105 26.134 30.1523 25.9412C30.2125 25.6939 31.6257 19.8813 31.8446 19.1699C32.2129 17.9883 38.0776 14.462 38.1362 14.4272C38.2028 14.3885 38.2772 14.3685 38.3515 14.3685C38.3799 14.3685 38.408 14.3719 38.4362 14.377L39.5816 14.0362C39.3202 13.9262 39.071 13.7919 38.836 13.6347C38.6638 13.6092 38.488 13.5961 38.312 13.5961C36.8618 13.5961 35.7567 14.4569 35.7457 14.4654C35.6691 14.5262 35.5761 14.5576 35.4821 14.5576C35.4133 14.5576 35.3444 14.5406 35.2816 14.507C35.1325 14.4272 35.0449 14.2665 35.0589 14.0979C35.157 12.8805 35.9428 12.0388 36.5261 11.5748C36.4752 11.5684 36.4211 11.5659 36.3647 11.5659C35.5591 11.5659 34.6034 12.1403 34.5937 12.1459C34.5257 12.1871 34.4492 12.2075 34.3732 12.2075C34.2759 12.2075 34.1794 12.1748 34.1012 12.1089C33.9618 11.9925 33.9113 11.8004 33.9763 11.6309C34.3889 10.5504 34.7849 9.78935 35.1715 9.33811C35.1444 9.33684 35.1193 9.3364 35.0964 9.3364C34.8971 9.3364 34.7424 9.36701 34.7407 9.36701C34.7131 9.37296 34.6854 9.3755 34.6578 9.3755C34.4942 9.3755 34.3422 9.28158 34.2717 9.12862C34.1893 8.9506 34.2389 8.73898 34.3931 8.61789C35.3895 7.83012 37.2526 7.54503 37.9122 7.46684C41.3208 0.987933 44.5134 0.503977 44.649 0.486555C44.6673 0.484006 44.6856 0.483154 44.7037 0.483154C44.8882 0.483154 45.0543 0.602969 45.1096 0.783552C45.1704 0.981132 45.0799 1.19401 44.8946 1.28792C43.6521 1.91294 43.3636 3.92615 43.3559 5.31005C45.5928 3.27179 48.9129 3.21314 49.0684 3.21186H49.0722C49.2818 3.21186 49.4598 3.36398 49.492 3.57133C49.5248 3.77911 49.3999 3.9801 49.1984 4.04256C47.568 4.5482 46.027 6.01452 45.4398 6.78869H45.4512C45.4686 6.78869 46.8993 6.85455 47.3948 7.27138L47.4023 7.26246L47.5583 7.39545C47.5885 7.41754 47.6166 7.44263 47.6417 7.46939C47.7953 7.63426 47.7946 7.89045 47.6385 8.0532C47.5558 8.1403 47.4437 8.18492 47.331 8.18492C47.2358 8.18492 47.1402 8.15263 47.0616 8.08805H47.0591C47.0475 8.08805 47.0211 8.08591 46.9808 8.08591C46.7021 8.08591 46.264 8.20278 45.9347 8.30772C45.9691 8.38803 46.001 8.46919 46.0303 8.55204C46.3754 9.53739 46.3158 10.6213 45.8629 11.6067C45.8072 11.7278 45.6981 11.8161 45.5673 11.8442C45.133 11.9394 44.7056 11.9946 44.2926 12.0103C44.4327 12.0273 44.5801 12.0367 44.7362 12.0367C44.7362 12.0367 44.8045 12.0358 44.8067 12.0358C44.9732 12.0358 45.1241 12.1327 45.1933 12.2844C45.2043 12.3086 45.2129 12.3328 45.2191 12.3579C45.2605 12.3451 45.3021 12.3392 45.3433 12.3392C45.3836 12.3392 45.4235 12.3451 45.4614 12.3558L51.096 12.0498L54.862 7.65719C54.9367 6.95356 55.2895 6.44028 55.8664 6.2032C56.0206 6.14072 56.1805 6.10928 56.344 6.10928C57.4382 6.10928 58.2909 7.52677 58.3849 7.68865C58.429 7.7647 58.4481 7.85309 58.44 7.94104L58.3257 9.15371C58.3155 9.26376 58.2629 9.36446 58.1796 9.43626C58.1664 9.44732 57.9543 9.62875 57.6603 9.84417C58.0547 10.1335 58.4512 10.3456 58.8437 10.4773C58.9627 10.5164 59.0578 10.6069 59.1041 10.7237L59.1981 10.9595C59.2711 11.1444 59.2065 11.3551 59.0426 11.4677C58.8327 11.6109 53.8911 14.9885 53.2563 15.367C53.0471 15.4911 52.7162 15.5442 52.1493 15.5442C50.8797 15.5442 48.599 15.2519 46.7037 14.9247C47.5613 16.5971 49.1164 18.904 51.5133 19.9232L58.929 16.7459C58.9827 16.7229 59.0396 16.7114 59.0966 16.7114C59.1334 16.7114 59.1704 16.7165 59.2061 16.7263L60.5149 17.0751C60.5616 17.0875 60.6054 17.1079 60.645 17.1351L65.838 20.6804C66.3981 20.1166 67.1199 19.4494 67.858 19.4494C68.2841 19.4494 68.8603 19.6705 69.1862 20.7229C69.9909 23.334 66.7409 26.1243 66.6019 26.2419C66.5246 26.3069 66.427 26.3423 66.3276 26.3423C66.2995 26.3423 66.2719 26.3401 66.2439 26.3337L65.9178 26.2692C65.4548 28.5908 63.8972 30.3516 63.827 30.4302C63.7505 30.5152 63.6435 30.5657 63.529 30.5714C63.5228 30.5714 63.5167 30.5714 63.5103 30.5714C63.4028 30.5714 63.2988 30.5306 63.2202 30.4569C63.1624 30.4031 57.3902 25.0637 52.0215 25.0637C51.5325 25.0637 51.0552 25.1088 50.6023 25.1976L49.9395 25.589C51.1407 27.7652 52.9409 31.0405 53.0182 31.2588C53.0552 31.3663 53.1398 31.6106 52.6711 33.6425C52.6444 33.758 52.5704 33.8575 52.4671 33.9166L44.4765 38.4553C44.4281 38.4835 44.3682 38.5016 44.3129 38.5084C44.3129 38.5084 44.2682 38.5141 44.1858 38.5141Z" fill="#50A736"/>
<path d="M44.7046 0.0583496C44.6892 0.0583496 44.674 0.0587659 44.6583 0.0596156C44.628 0.0613146 44.5984 0.0642994 44.5691 0.068972C44.1042 0.138657 40.9808 0.83124 37.6405 7.0722C36.8077 7.18523 35.12 7.50178 34.1297 8.28402C33.8211 8.52876 33.72 8.95325 33.887 9.31015C33.9855 9.52176 34.1632 9.67728 34.3718 9.75164C34.1101 10.2042 33.8478 10.7778 33.5799 11.4797C33.4498 11.8192 33.5506 12.2038 33.83 12.4362C33.9865 12.5662 34.1793 12.6329 34.374 12.6329C34.526 12.6329 34.6795 12.5917 34.8163 12.5084C34.9101 12.4515 35.0844 12.3584 35.2956 12.2666C34.9612 12.7489 34.6934 13.3476 34.6357 14.064C34.6081 14.4009 34.7835 14.7221 35.0819 14.8819C35.2075 14.9491 35.3456 14.9822 35.4824 14.9822C35.6698 14.9822 35.8561 14.9202 36.0097 14.7991C36.0154 14.7944 36.8482 14.1596 37.9592 14.0402C37.9465 14.047 37.9337 14.0538 37.9214 14.0614C37.8612 14.0967 31.8742 17.6493 31.4399 19.0421C31.2165 19.7691 29.7998 25.5929 29.7399 25.8405C29.646 26.2273 29.833 26.6275 30.1899 26.8033L30.4198 26.9169C30.5379 26.9751 30.6667 27.0044 30.7954 27.0044C30.911 27.0044 31.0262 26.981 31.1344 26.9339C31.3253 26.8509 31.5288 26.7846 31.7473 26.7346C31.7396 26.7817 31.7361 26.8103 31.7357 26.8152C31.7064 27.0346 31.7641 27.2568 31.896 27.4344L32.6251 28.4154C32.7308 28.5579 32.8788 28.6632 33.0474 28.7176C33.1196 28.7408 33.7756 28.9449 34.4839 28.9449C35.7361 28.9449 36.2333 28.2998 36.4181 27.9154C36.7385 27.252 36.6692 26.509 36.2333 25.8388L36.1011 20.3606L37.9636 18.4888C38.4522 21.3039 39.3691 25.1454 40.9744 27.5971C41.5 28.4015 41.8777 28.9729 42.1441 29.3758C42.0374 29.4998 41.933 29.6125 41.8487 29.6897C41.5403 29.6425 40.9689 29.5954 39.876 29.5954H39.8416C39.6266 29.5958 39.4273 29.6769 39.2756 29.8137L38.8724 29.7998C38.8621 29.7995 38.8524 29.7989 38.8427 29.7989C38.6815 29.7989 38.5235 29.8449 38.3872 29.9315L37.5441 30.4661C37.3236 30.6062 37.18 30.8399 37.154 31.1004C37.1064 31.5819 36.7645 35.8471 39.3562 37.2725C39.8046 37.5191 40.2079 37.6388 40.5885 37.6388C40.7529 37.6388 41.0326 37.6115 41.3233 37.4625C42.5473 38.818 43.7872 38.939 44.1857 38.939C44.2987 38.939 44.3599 38.931 44.3599 38.931C44.468 38.9165 44.5923 38.8788 44.6866 38.8251L52.6775 34.2855C52.8839 34.1681 53.0322 33.9694 53.0857 33.7377C53.5817 31.5874 53.4923 31.3299 53.4211 31.1225C53.3918 31.0401 53.3207 30.8379 50.5114 25.7454L50.7551 25.6009C51.1601 25.5262 51.5854 25.4886 52.0222 25.4886C57.2302 25.4886 62.8738 30.7141 62.9302 30.7672C63.0879 30.9147 63.2958 30.9967 63.5108 30.9967C63.5235 30.9967 63.5357 30.9963 63.5482 30.996C63.7767 30.9857 63.9912 30.8841 64.1438 30.7137C64.213 30.6365 65.6663 28.9938 66.2407 26.763C66.2696 26.7659 66.2985 26.7672 66.3279 26.7672C66.5271 26.7672 66.7222 26.6971 66.8773 26.5663C67.2469 26.2531 70.4643 23.4258 69.5932 20.5989C69.1692 19.2295 68.3244 19.0251 67.8588 19.0251C67.0711 19.0251 66.3636 19.5813 65.789 20.1328L60.8852 16.7842C60.8059 16.7298 60.7178 16.6899 60.6247 16.6648L59.3161 16.3155C59.2443 16.2964 59.1703 16.2866 59.0973 16.2866C58.983 16.2866 58.8687 16.31 58.7625 16.3555L51.5167 19.4603C49.6632 18.6092 48.346 16.935 47.4962 15.4861C49.2029 15.7542 51.0462 15.9692 52.1496 15.9692C52.807 15.9692 53.1903 15.9008 53.4729 15.7334C54.109 15.3535 58.7551 12.1787 59.283 11.8179C59.611 11.594 59.7398 11.1725 59.5936 10.8033L59.4996 10.5666C59.407 10.3338 59.2167 10.1536 58.9788 10.0741C58.785 10.0091 58.5896 9.92204 58.3929 9.8124C58.4302 9.78138 58.4522 9.7627 58.4566 9.75929C58.6235 9.61568 58.7284 9.41299 58.7493 9.19374L58.8636 7.98107C58.8802 7.80517 58.8414 7.62839 58.7528 7.47587C58.5793 7.17631 57.6493 5.68446 56.3443 5.68446C56.126 5.68446 55.9117 5.72654 55.7083 5.8094C55.0145 6.09409 54.578 6.68002 54.4573 7.47755L50.892 11.6361L46.1909 11.891C46.2125 11.8575 46.2324 11.8217 46.2495 11.7844C46.7216 10.7578 46.8053 9.6314 46.4905 8.59165C46.6608 8.54918 46.8192 8.519 46.9354 8.5122C47.0593 8.57764 47.1954 8.60991 47.3317 8.60991C47.5561 8.60991 47.7795 8.52112 47.9465 8.34691C48.2575 8.02057 48.2601 7.50816 47.952 7.17927C47.9134 7.13806 47.8709 7.09938 47.8255 7.06455L47.6784 6.93878L47.6729 6.94517C47.3359 6.6592 46.7857 6.51347 46.317 6.43995C47.0185 5.72654 48.1403 4.82107 49.3071 4.45394C49.6628 4.3524 49.9236 4.0248 49.9236 3.63686C49.9236 3.16735 49.5441 2.78706 49.0751 2.78706H49.0734H49.0729H49.07H49.0692H49.0619C48.8903 2.78918 46.0987 2.84656 43.83 4.39746C43.9398 3.29314 44.2652 2.09363 45.0709 1.67509C45.3568 1.53785 45.5548 1.24595 45.5548 0.908156C45.5548 0.447136 45.1885 0.0719372 44.731 0.0587659C44.722 0.0583412 44.7136 0.0583496 44.7046 0.0583496ZM47.296 7.72953C47.3092 7.73889 47.3211 7.74907 47.3317 7.76012L47.296 7.72953ZM44.7042 0.908156C42.5363 1.99973 42.965 6.1999 42.9795 6.33076C42.9821 6.33288 42.9821 6.33458 42.9854 6.33543C45.041 3.67724 49.0729 3.63686 49.0729 3.63686C46.6029 4.40295 44.2266 7.277 44.8817 7.277C44.9048 7.277 44.9319 7.27317 44.9625 7.26596C45.1141 7.229 45.2808 7.21369 45.4515 7.21369C46.2929 7.21369 47.246 7.58462 47.1273 7.5859L47.296 7.72953C47.2247 7.68067 47.1137 7.6607 46.9811 7.6607C46.4084 7.6607 45.4253 8.03374 45.4253 8.03374L45.3346 8.06647C45.4528 8.26193 45.5518 8.47142 45.63 8.69363C45.9517 9.61099 45.8696 10.5768 45.4775 11.4296C45.0963 11.5129 44.5949 11.5902 44.0544 11.5902C43.3075 11.5902 42.4854 11.4423 41.7995 10.9567C41.7995 10.9567 42.6434 12.4617 44.7365 12.4617C44.7597 12.4617 44.7835 12.4612 44.8073 12.4608C44.5733 12.723 44.2993 12.9597 44.0039 13.1649L45.1141 12.8339L45.1057 12.8033L45.2515 12.7939L45.3436 12.7642C45.3436 12.7642 45.3517 12.7846 45.3542 12.7876L51.3007 12.4646L55.2753 7.82896C55.2952 7.40958 55.4355 6.83979 56.0282 6.59675C56.1341 6.55381 56.2398 6.53427 56.3443 6.53427C57.2256 6.53427 58.0176 7.90162 58.0176 7.90162L57.9033 9.11387C57.9033 9.11387 57.4478 9.50477 56.9495 9.81537C57.4449 10.2522 58.0372 10.6554 58.7093 10.8802L58.8033 11.1164C58.8033 11.1164 53.6696 14.6261 53.039 15.0026C52.9013 15.0842 52.5848 15.1194 52.1496 15.1194C50.683 15.1194 47.8637 14.72 45.961 14.3584C46.7993 16.2242 48.5456 19.2092 51.5174 20.3844L59.0973 17.1364L60.4061 17.4861L65.8923 21.2321C66.3887 20.7286 67.187 19.8749 67.8588 19.8749C68.228 19.8749 68.5593 20.1328 68.7811 20.8493C69.5115 23.2214 66.3279 25.9174 66.3279 25.9174L65.5711 25.7658C65.2502 28.2051 63.5108 30.1469 63.5108 30.1469C63.5108 30.1469 57.6262 24.6394 52.0222 24.639C51.4932 24.639 50.9669 24.6877 50.4484 24.7952L49.3683 25.4335C49.3683 25.4335 52.5359 31.168 52.618 31.4004C52.6987 31.6341 52.2577 33.5465 52.2577 33.5465L44.2669 38.0863C44.2669 38.0863 44.2385 38.0892 44.1857 38.0892C43.8548 38.0892 42.5614 37.9643 41.3777 36.1355C41.237 36.517 40.9989 36.789 40.5885 36.789C40.3676 36.789 40.0978 36.7104 39.7656 36.528C37.5899 35.3315 37.9996 31.1837 37.9996 31.1837L38.8427 30.6487L39.8 30.6822C39.8194 30.5251 39.8441 30.4452 39.8441 30.4452H39.876C40.1097 30.4452 41.5676 30.4498 41.9099 30.5714C41.9278 30.5773 41.9469 30.5804 41.9674 30.5804C42.3553 30.5804 43.1524 29.4718 43.1907 29.4178C42.9489 29.0495 42.4918 28.3654 41.6852 27.1313C39.8275 24.2943 38.9161 19.3705 38.544 16.7013L35.2429 20.0185L35.3903 26.124C35.6555 26.4485 35.9324 26.9674 35.652 27.5469C35.4456 27.9762 34.9603 28.0951 34.4839 28.0951C33.8883 28.0951 33.3073 27.9086 33.3073 27.9086L32.5778 26.9271C32.5778 26.9271 32.657 26.333 32.817 25.7687C32.1529 25.7747 31.4489 25.8703 30.7954 26.1546L30.5656 26.041C30.5656 26.041 32.0335 20.0024 32.2511 19.2949C32.4716 18.587 36.2485 16.0308 38.3518 14.7939L38.404 14.8305L41.2811 13.9739C40.4377 13.9488 39.6465 13.6862 38.9982 13.2307C38.7636 13.1895 38.5341 13.1713 38.3123 13.1713C36.6982 13.1713 35.4824 14.1324 35.4824 14.1324C35.6211 12.4234 37.3581 11.526 37.3581 11.526C37.0938 11.2426 36.7381 11.1411 36.365 11.1411C35.426 11.1411 34.3734 11.7831 34.3734 11.7831C35.2462 9.49925 35.8169 9.26469 36.0145 9.26469C36.0654 9.26469 36.0918 9.28043 36.0918 9.28043C35.8471 8.9779 35.4209 8.9116 35.0967 8.9116C34.8463 8.9116 34.657 8.95112 34.657 8.95112C35.7689 8.072 38.1841 7.86508 38.1841 7.86508C41.5702 1.31436 44.7042 0.908156 44.7042 0.908156Z" fill="white"/>
<path d="M186.145 46.5231C187.029 35.913 194.015 35.1006 205.309 25.8355C212.037 -2.46806 237.928 1.97344 243.639 2.86234C261.3 5.60976 270.152 29.0031 267.007 46.2767C265.22 56.0993 262.427 62.5348 254.174 66.9571C249.714 69.9982 240.086 83.9652 214.701 68.9881C200.52 60.6218 184.863 61.8919 186.145 46.5231Z" fill="#BDBCBC"/>
<path d="M190.66 45.2425C190.517 45.1766 176.293 38.6493 172.301 38.3998L172.317 38.1467C176.356 38.3991 190.18 44.7416 190.766 45.0117L190.66 45.2425Z" fill="#100F0D"/>
<path d="M189.132 47.0886C188.976 47.065 173.489 44.8137 169.589 45.6992L169.533 45.452C173.48 44.5546 188.531 46.7438 189.168 46.8372L189.132 47.0886Z" fill="#100F0D"/>
<path d="M169.864 53.3304L169.739 53.109C173.265 51.1234 188.315 48.9225 188.953 48.8298L188.989 49.0813C188.834 49.1038 173.348 51.3677 169.864 53.3304Z" fill="#100F0D"/>
<path d="M217.236 47.4304L217.214 47.178C217.857 47.1214 233.011 45.8183 236.898 46.9443L236.828 47.1887C232.985 46.0749 217.394 47.4163 217.236 47.4304Z" fill="#100F0D"/>
<path d="M236.916 54.9751C233.544 52.8242 218.207 49.7149 218.053 49.6833L218.103 49.4348C218.735 49.5623 233.641 52.5846 237.053 54.761L236.916 54.9751Z" fill="#100F0D"/>
<path d="M234.08 62.0654C231.463 59.0411 217.652 51.6821 217.513 51.6083L217.632 51.3835C218.203 51.6868 231.624 58.8396 234.273 61.8989L234.08 62.0654Z" fill="#100F0D"/>
<path d="M212.068 43.8503C212.465 41.0613 209.35 38.3113 205.113 37.7104C200.877 37.1088 197.121 38.8824 196.723 41.6718C196.328 44.461 199.441 47.2113 203.679 47.813C207.916 48.4137 211.672 46.6397 212.068 43.8503Z" fill="#231F20"/>
<path d="M263.511 54.1617C269.199 54.0725 273.703 46.9938 273.568 38.3516C273.432 29.7104 268.71 22.7773 263.02 22.8643C257.331 22.9544 252.828 30.032 252.961 38.6762C253.099 47.3161 257.822 54.2511 263.511 54.1617Z" fill="#231F20"/>
<path d="M214.844 69.4971C214.762 69.4971 214.709 69.4962 214.687 69.4954C214.408 69.4881 214.187 69.255 214.194 68.9749C214.201 68.6991 214.428 68.4802 214.701 68.4802C214.711 68.4802 214.689 68.4811 214.786 68.4811C215.52 68.4811 221.734 68.3491 226.198 64.0681C229.264 61.1286 230.861 56.8881 230.947 51.465C230.952 51.1872 231.178 50.9654 231.456 50.9654H231.463C231.743 50.9696 231.967 51.2007 231.963 51.4813C231.872 57.1903 230.167 61.6742 226.892 64.8092C222.209 69.2936 215.941 69.4971 214.844 69.4971Z" fill="#100F0D"/>
<path d="M234.374 52.8696C234.328 52.8696 234.282 52.8632 234.236 52.85C229.013 51.3769 229.143 49.2341 229.174 48.9945L230.181 49.1288L230.183 49.1062C230.183 49.122 230.176 50.6504 234.511 51.8727C234.782 51.9493 234.938 52.2293 234.863 52.4995C234.798 52.7231 234.595 52.8692 234.374 52.8696Z" fill="#100F0D"/>
<path d="M239.685 32.2707C237.145 37.6683 231.868 40.5308 227.896 38.6627C223.927 36.796 222.766 30.9061 225.304 25.5068C227.843 20.1085 233.121 17.2463 237.09 19.1128C241.062 20.9808 242.224 26.8707 239.685 32.2707Z" fill="white"/>
<path d="M235.908 32.4601C235.119 34.1405 233.117 34.8599 231.438 34.0709C229.76 33.281 229.038 31.2804 229.828 29.6007C230.617 27.9216 232.619 27.2009 234.297 27.9899C235.976 28.7804 236.698 30.7817 235.908 32.4601Z" fill="#231F20"/>
<path d="M235.055 29.7599C234.819 30.2643 234.218 30.48 233.714 30.244C233.211 30.0064 232.995 29.4064 233.231 28.902C233.467 28.3985 234.068 28.1822 234.572 28.4198C235.075 28.656 235.291 29.2564 235.055 29.7599Z" fill="#F8F9F9"/>
<path d="M243.209 25.7938C242.919 25.6586 242.712 25.3756 242.687 25.0357C242.289 19.5597 237.98 17.0395 237.796 16.9354C237.361 16.686 237.207 16.1311 237.454 15.6934C237.703 15.2583 238.256 15.099 238.694 15.3505C238.91 15.4725 244.033 18.4289 244.503 24.9031C244.542 25.4055 244.163 25.8427 243.661 25.8778C243.5 25.8894 243.346 25.8579 243.209 25.7938Z" fill="#100F0D"/>
<path d="M210.952 18.4383C208.771 23.0775 209.767 28.1366 213.179 29.7425C216.59 31.3463 221.123 28.8866 223.306 24.2483C225.487 19.6102 224.489 14.5496 221.079 12.9456C217.667 11.3412 213.134 13.8005 210.952 18.4383Z" fill="white"/>
<path d="M215.03 21.6972C214.352 23.139 214.971 24.859 216.416 25.5375C217.857 26.2157 219.575 25.5961 220.255 24.154C220.932 22.7119 220.313 20.9923 218.872 20.3137C217.429 19.6352 215.709 20.2542 215.03 21.6972Z" fill="#231F20"/>
<path d="M218.132 20.8573C217.929 21.2899 218.116 21.8057 218.55 22.0097C218.982 22.2128 219.496 22.0271 219.7 21.5942C219.903 21.1619 219.718 20.6458 219.286 20.4421C218.854 20.2387 218.337 20.4244 218.132 20.8573Z" fill="#F8F9F9"/>
<path d="M213.306 12.5576C213.553 12.6744 213.855 12.6579 214.093 12.4879C217.936 9.75068 221.963 11.2213 222.134 11.2854C222.537 11.438 222.989 11.2357 223.141 10.8316C223.295 10.4288 223.097 9.97588 222.692 9.82418C222.493 9.74685 217.729 7.97714 213.187 11.2136C212.835 11.4639 212.753 11.9525 213.002 12.3039C213.082 12.4182 213.189 12.5032 213.306 12.5576Z" fill="#100F0D"/>
<path d="M269.443 35.3579C268.844 35.3579 268.309 34.9304 268.196 34.3189C267.353 29.752 265.049 28.7561 264.952 28.7161C264.295 28.4766 263.967 27.7526 264.207 27.094C264.445 26.4348 265.187 26.0987 265.844 26.3401C265.996 26.3955 269.566 27.7627 270.692 33.8575C270.82 34.5467 270.364 35.2086 269.676 35.3361C269.597 35.3506 269.52 35.3579 269.443 35.3579Z" fill="white"/>
<path d="M209.335 43.657C209.026 43.657 208.722 43.5124 208.531 43.2405C207.56 41.8557 206.429 41.6551 206.381 41.6476C205.854 41.5604 205.484 41.0646 205.562 40.5355C205.641 40.0066 206.126 39.6386 206.652 39.707C206.855 39.7342 208.672 40.0287 210.136 42.1145C210.447 42.5573 210.341 43.1687 209.898 43.4789C209.725 43.5996 209.529 43.657 209.335 43.657Z" fill="white"/>
</g>
<defs>
<clipPath id="clip0_168_2589">
<rect width="311.538" height="150" fill="white"/>
</clipPath>
</defs>
</svg>
