<svg width="411" height="150" viewBox="0 0 411 150" fill="none" xmlns="http://www.w3.org/2000/svg">
<g clip-path="url(#clip0_168_2905)">
<path d="M73.8443 106.434C80.6516 94.0962 76.078 84.0987 76.078 84.0987C73.7379 76.6536 63.2078 68.092 58.2087 55.8077C53.2628 43.5768 63.7397 26.5596 63.7397 26.5596L64.8564 26.0277L65.1224 23.9539L64.3777 23.8475L64.8034 22.4117L63.7929 22.8903L63.5801 22.2522L64.1119 21.295L63.261 20.9227L61.0274 19.806L61.4529 18.3702L62.5696 18.5297L61.24 16.9344L62.0377 16.0835L62.5163 17.2003L64.0055 16.7217L64.2716 17.2003L63.7929 17.7321L64.697 18.5297L65.6543 17.5193L65.8137 17.8916L65.2289 18.9551L65.9201 19.4337L66.3456 18.317L66.5584 18.902L66.3988 20.1783L67.037 20.2314V17.0939L66.5584 17.3066L66.1862 17.2534L66.5584 16.0835L65.9733 15.7113L65.8669 16.5089L65.1756 16.1899L65.3882 14.7009L64.5906 15.3922L64.0055 15.1795L64.4842 13.85L63.5269 13.1587L62.1973 11.9356V9.48939H63.2078L64.7502 10.3934L64.6438 11.1911L64.9096 11.9356L65.7075 10.6593L66.3988 10.872L66.0797 12.4142L66.6646 12.7333L67.3029 10.872L67.8347 10.9252L67.6219 12.5206L67.9943 12.5737L68.1537 9.32986L67.5687 9.11714L67.4625 9.91483L66.8242 9.86165L66.8774 8.69172L66.0797 8.58537L65.9201 9.27667L64.6438 8.74491L65.1756 7.7877L64.1651 7.04319L64.6438 5.71373L66.133 6.0328L67.9943 6.40505L68.7388 1.45947L70.3874 0.130005L71.6107 1.83171L71.0256 6.77731L72.9935 6.88366L74.4824 6.99L74.5888 8.37265L73.4189 8.79807L73.6847 9.91483L72.3552 10.0743V9.38305L71.5575 9.27667L71.2915 10.3934L70.7066 10.3403L70.8128 9.54258H70.1748L69.4301 12.7333L69.8557 12.7865L70.0683 11.1911L70.547 11.2443L70.7066 13.2651L71.3447 13.1055L71.4511 11.457H72.1955L72.568 12.8928L73.0996 12.2547L73.2061 11.457L74.9081 10.9784L75.8651 11.2443L75.2803 13.5841L73.6315 14.435L72.5148 14.8604L72.6742 16.2962L72.0362 16.3494L71.4511 15.4454L71.2385 16.9344L70.4938 17.0407L70.6002 16.2431L69.9619 16.5089L70.0151 17.6789L69.6429 17.6257L69.2707 17.3598L68.473 20.391L69.0578 20.4973L69.2175 19.221L69.5897 18.6893L69.7493 19.8592L70.4938 19.6465L70.228 18.4234L70.4938 18.1043L71.1321 19.3806L72.2488 18.7956L71.9297 18.1575L72.2488 17.7852L73.5783 18.6361L74.323 17.6789L74.9081 18.6893L73.2061 19.8592L74.323 20.0187V21.5077L71.9297 22.0395L70.9724 22.1459L71.2385 23.2094L70.866 23.7412L70.0683 23.0499V24.592L69.3239 24.4856L69.0578 26.5596L71.6639 27.2509L72.0362 24.9643L72.7806 24.9111L72.7274 26.9318L73.5253 27.0383L73.5783 24.8049L74.6952 24.1666L75.3335 24.9111L75.1207 27.9424L76.7692 27.0915L77.0885 24.592L77.2479 23.4221L78.1522 24.2198L78.5777 26.4002L82.6727 24.0071L84.3744 24.3794L83.3639 26.4532L79.2689 28.3678L80.8113 29.5909L80.492 30.7076L79.1093 30.4416V29.5909L77.6203 29.3249L76.9289 29.8035L76.1844 30.6544L76.6098 32.1965L77.4075 32.5156L77.4607 31.8243L78.1522 32.0371L78.099 32.7284L78.9499 32.9942L78.8435 34.0047L78.2052 33.9515L78.099 34.2705L77.4607 34.1641V33.5793L76.5566 33.26L75.5993 31.9307L75.1207 30.4948L73.9508 31.5053L72.4616 31.2924L71.5043 30.6012L71.1321 29.4845L69.5365 29.2716L69.4301 29.9631L71.0256 30.2822L70.866 30.867H69.2175L69.0578 31.4521L71.5043 32.1433L71.1853 33.1006L72.5148 34.696L72.621 33.7919L73.7379 33.8983L73.3657 35.2808L72.9403 37.6738L72.1426 37.5676L72.4084 36.1849L71.1321 35.7062L70.9724 37.8867L69.9619 37.727L70.3342 35.1214H69.5897L69.3771 37.4612L68.792 37.2486L68.9514 34.4831L67.3561 34.3769L67.2496 38.2057L67.8347 38.3121L68.526 39.2162L71.0789 39.5352L70.9724 40.3329L69.6961 40.7583L69.6429 41.6624L71.4511 41.3432L71.3979 42.2472L69.2175 43.3639L69.1643 44.0554L71.4511 42.8323L72.0362 43.949L68.8452 45.5444V46.2356L69.6961 45.9698L72.1426 44.6935L72.6742 45.2253L69.5897 47.5119L68.4198 47.4587L68.3134 48.2564L69.9087 48.4692L72.8338 46.3952L74.2698 44.7467L72.302 43.5236L72.0362 42.194L73.0996 42.5663L73.2061 42.0347L72.568 40.4393L72.6742 39.482L74.4294 41.1306L74.5356 40.2265L73.0996 38.1525L73.2593 37.5676L74.7484 39.5352L74.6952 38.2589L73.7379 36.8232L74.0569 36.1849L75.759 37.3548L76.2908 36.1317L77.2479 36.7168L77.3543 38.2589L78.0458 38.3121L77.8862 39.482L76.3438 39.7478L77.8329 39.9607L78.0458 40.6519L76.3438 41.5028L76.2376 42.0876L78.3116 41.7686L78.4712 42.3537L76.2376 43.5768L76.2908 44.0554L77.8329 44.0022L79.6943 42.8853L80.173 41.556L79.6943 41.4496L79.7476 40.4393L81.0771 40.2265L80.2794 38.5247L79.1625 38.3653L79.3221 37.4612L80.8113 37.5144L81.0239 36.6103L81.7154 36.8232L82.7259 40.3329L85.1189 39.9607L88.5759 37.3548L91.235 37.5144L91.0753 40.2797L85.8636 42.8323L83.949 43.2046L86.3423 46.8739L86.2358 47.6716L85.2253 47.5652L82.6727 45.3315L82.3002 46.6078L81.4493 46.9269L80.7581 45.2253L78.737 45.757L78.6838 47.5119L79.5879 49.1605L79.8008 47.6716L80.7049 47.7777L80.492 49.4795H81.1835L81.3431 48.3096L82.1408 48.416L82.0344 49.4795L82.9385 50.3836L82.9917 52.0322L81.2367 52.1383L80.7049 53.2553L80.0134 52.936L80.173 51.9257L78.4712 50.7558L79.4817 52.5106L79.6411 53.5743L79.0031 53.7337L78.0458 50.9152L77.4607 50.8623L77.1417 52.3512L76.5566 52.2448L76.663 50.7558L76.2376 50.7026L76.1312 51.7129L75.3865 50.809L75.5993 48.6286L75.0675 48.5754L74.5888 50.0114L74.0037 49.6921L73.8976 47.5652L68.8452 50.1708L70.0683 51.0749L70.9192 50.1176L72.9403 49.4263L72.887 50.5962L71.2915 51.6599L71.7169 51.7129L74.2698 51.0217L74.4824 51.7661L72.4616 52.9892L73.3657 53.0956L75.2803 52.5638L75.7057 53.0956L74.5356 53.7337L75.8122 55.4355L75.7057 56.5522L73.6847 55.5951L73.4189 57.5627L72.621 57.4562L72.9403 55.0632L71.7169 54.7442L71.6107 57.403L70.7066 57.2969L71.0256 54.1059L69.6961 53.7869L69.3771 57.2436L68.3666 57.1372L68.4198 52.936L67.1964 52.0854L64.9628 52.0322L64.8564 52.8298L66.133 53.2021L67.5157 53.4147L67.1432 54.8506L65.3882 56.4992L66.133 56.9776L67.0903 58.9452L69.5365 58.2007L71.3979 58.6794L71.0789 59.796L68.8452 61.0192L70.866 62.8273L74.2698 65.9648L77.3011 69.3681L77.9394 65.699L79.1093 66.1245L79.1625 70.7509L82.3002 70.9635L84.587 71.1231L83.2575 68.4111L82.513 67.507L82.3002 69.3152L81.928 69.1555V67.2944L80.9175 66.7093L81.4493 69.4213L81.0771 69.3681L80.1198 65.752L80.5452 62.1891L81.1303 60.3279L82.7789 62.2955L84.0022 64.0505L84.6935 61.0192L85.5976 61.232L85.4914 62.1361L86.3423 62.5083L86.6081 62.9867L85.2253 63.1996L84.9595 65.2204L85.9698 66.1774L86.5549 63.944L86.8741 63.9973L86.2358 66.5497L87.0867 67.0283L87.5654 64.3163L88.2569 64.3695L87.6186 68.5175H88.6291L89.3203 64.1566L87.7782 63.9973L87.8844 63.306L89.5864 62.8273L88.8417 62.2423L86.5016 62.0297L86.3955 61.3382L87.7782 61.6574L87.9908 60.966L85.4382 60.2747L85.8104 57.9881L84.7999 57.7753L84.2148 58.6261L82.6195 58.4135L82.7789 56.3395L84.268 56.4992L84.5341 55.9673L82.9385 55.0632L84.0022 53.2021L85.704 51.7129L86.3955 52.0322L85.0127 53.9465L85.385 54.3188L86.8209 52.6702L87.0867 52.8298L86.0762 55.01L86.8209 55.7015L87.725 54.2655L88.0972 54.4784L86.9803 57.4562L88.5759 58.1475L89.1077 55.3822L89.5332 55.4355L88.8417 58.4135L89.5332 58.2539L90.7563 54.691L88.6291 54.4252L88.5759 53.3615L90.4905 53.5743L90.7563 52.936L87.1931 50.5962C87.1931 50.5962 86.8209 48.5754 87.0867 48.8415C87.4057 49.1073 88.5227 49.7453 88.5227 49.7453L91.6072 51.2877L91.82 50.1708L89.9054 47.0865L90.9159 46.8739L92.2987 48.8415L92.7241 47.1397L93.256 46.3952L91.1285 46.1292V45.3847L93.9472 45.757L94.2133 43.5768L95.33 43.0449L96.5001 43.5236L96.6595 45.3315L97.351 45.3847L97.7764 46.023L96.4469 48.416L95.0642 48.7351L95.011 49.5327L96.0747 49.7985L95.9683 50.5962L95.1174 50.809L94.9577 51.5003L96.9256 51.7661L96.6595 52.4044L93.7346 52.0322L93.5218 52.8298L94.9577 52.9892L96.5531 53.7869L97.7764 53.2553L98.5741 53.3615L98.3083 54.7442L97.085 55.4887H95.33L95.3832 54.9568H94.4791L94.2663 55.9673L93.3622 55.8609L92.2987 56.6586L91.7668 60.2747H92.4581L92.9899 56.8182L93.894 56.9776L93.7346 58.3603L93.256 58.7326L93.3092 60.1683L94.2663 59.9025L94.6917 57.2969L95.0642 57.3498L94.8513 59.7428L95.649 59.5302L95.8086 58.0413L96.6063 58.1475L96.6595 59.5302L97.351 59.3706L97.6168 58.4668L98.9996 58.6794V60.1683L98.5209 60.1153L98.3615 61.87L96.9256 61.9233L96.8724 62.3487H98.5209L98.2019 63.2528L97.8829 64.1037L96.5531 63.944L96.6595 63.2528L96.2873 63.1996L96.1809 63.9973L93.6282 63.6782L93.4686 64.4759L92.139 64.3163L92.2455 63.4122L91.3414 63.2528L91.0221 64.8481L90.4373 64.7949L90.1712 67.6666L90.5437 67.7198L90.7031 66.5497L91.4478 66.6561L91.1285 68.145L92.0858 68.7301L92.6177 66.9221L91.7668 66.2306L91.8732 64.7417L92.7773 64.8481L92.9367 65.8052L93.3622 65.8584L93.4154 65.433L93.9472 65.4862L94.0005 66.6561L95.8618 66.8689L96.8191 67.7198L97.7764 68.1982L98.0423 66.018L99.106 66.3903L98.9996 68.2514L99.9037 68.3578L100.01 67.5602L100.542 67.0283L100.861 68.5704L102.457 68.3578L102.19 67.1347L101.233 66.7625L101.34 65.8584L99.8504 65.5394L100.01 64.2631L98.8931 64.1566V63.306V62.7209L99.106 61.1256L99.8504 61.4446L100.542 62.5083L101.605 62.8806L101.978 64.0505L103.999 64.9013L104.265 63.8908L102.616 63.6782L102.776 62.6677L101.074 62.4551L101.233 61.2852L100.595 61.3382L100.063 59.8493L100.01 58.6794L100.701 57.403L101.233 55.8077L102.935 57.2969L102.829 58.9452L103.626 59.158L103.786 58.0413L105.116 57.9349L105.275 56.7118L103.52 54.5846L103.626 53.7869L106.073 55.4887L106.498 53.5743L105.488 53.4679L105.541 52.9892L106.764 52.5638L107.562 50.1176L109.264 50.3304L108.998 53.3082L108.2 54.7442L108.04 55.9141L108.413 56.8714L109.689 57.5095L109.53 58.52L107.721 58.3071L107.562 59.4238L110.328 60.1683L110.221 60.966L108.838 60.7533L108.572 61.3382L109.476 61.551L109.317 62.5613L108.519 62.4551L108.413 63.1464L109.104 63.2528L108.892 64.2631L108.094 64.0505L107.934 65.433L110.54 66.6029L111.072 65.5926L109.689 64.2631L110.008 63.359L111.923 64.4227L112.136 63.7844L111.019 63.0399L111.178 62.2423L112.455 62.6677L112.933 62.1361L111.976 61.7636L112.242 60.6469L113.678 61.0724L114.582 59.9025L115.327 60.2215L114.263 62.2955L115.38 62.4551L115.061 63.1996L113.625 63.0399V63.359L115.539 64.1037L115.592 64.6885L113.784 64.4227L113.465 65.2204L115.38 65.5926L115.114 66.6029L112.189 66.3371L112.029 67.7198L113.997 68.3046L113.04 68.4111L113.625 69.6874L114.901 68.8897L114.529 68.0388L113.306 67.8792L113.412 67.1879L115.22 67.4538L116.497 67.7198L117.986 68.0388L118.092 66.6561L116.869 66.3903L117.135 64.4227L116.071 64.1566L116.124 63.5718C116.124 63.5718 117.614 63.0932 117.294 63.2528C116.975 63.4654 117.986 62.6677 117.986 62.6677L116.709 62.1361L116.763 61.7107L118.145 62.2423L118.518 61.551L117.135 61.3914L117.241 60.7001L118.89 61.2852L118.996 60.3279L117.826 60.1683L117.879 59.6367H118.996L120.219 58.9984L121.549 58.839L121.602 59.4238L121.123 60.3811L121.602 61.3914L120.538 61.1256L120.432 62.0297L121.549 62.1891L121.442 62.8806L119.741 62.6677L119.688 63.0932L120.751 63.359L120.538 64.1566L119.528 64.0505L119.422 64.8481L121.07 64.7949L121.815 63.8376L123.464 63.8908L123.57 60.1153L124.527 60.2747L125.272 63.8376L131.76 62.5083L132.824 63.625L131.122 65.9116L126.973 66.2306L126.708 67.0815L124.793 66.6029L124.58 66.2839L124.261 66.8689L125.218 67.8792L126.229 68.8897L126.176 71.2827L125.591 71.6017L124.846 70.8041L123.942 69.9L124.155 68.8897L123.41 68.3046L122.985 68.7301L122.4 68.4643L122.294 67.2944L120.751 68.092L121.017 68.9959L121.655 68.6237L122.294 69.3152L121.07 70.5383L121.762 71.0699L121.868 70.3254L122.613 70.4318L123.038 71.8676L122.666 74.5266L121.496 74.7392L121.762 72.8249L121.23 72.7717L121.07 75.1115L120.219 75.0583L120.592 72.3994L120.06 72.4526L119.581 75.3243L118.943 75.4305L119.369 71.8144L118.571 71.7082L118.411 73.6225L117.614 73.5161L117.773 71.7082L116.816 71.3889L117.188 69.6342L116.497 69.6874L115.965 71.1231V72.4526L117.082 74.048V75.2711L115.007 74.4202L114.848 75.005L114.21 74.8456L114.369 73.4629L113.838 73.3565L113.678 74.686L112.508 74.5266L112.667 72.9843L113.359 73.0375L113.465 72.3462L112.242 72.1866L112.083 73.5693L111.391 73.5161L111.232 73.1439L110.859 72.8249V72.293H111.551L111.87 70.219L111.072 70.1128L110.806 71.0699L110.115 71.7611L109.583 72.8249L110.912 73.1439L111.019 74.048L112.083 74.4734L112.295 75.4305L113.306 76.0155L113.146 76.9726L111.976 76.8132L111.923 77.6641L111.232 78.1957L110.966 79.7381L111.923 79.8443L112.136 78.7276L113.731 78.9404L113.412 81.1206L111.87 81.0674L111.816 81.5993L112.508 82.3969L112.136 84.4177L110.806 83.8326L110.008 83.3542L108.892 83.8326L108.572 85.5344L107.934 85.375L108.253 83.035H108.838L108.945 82.4501L108.466 82.2905L108.998 80.1636L108.519 80.1103V80.908L107.562 80.6952L107.296 81.0142L107.615 81.227L107.509 81.9715L106.977 81.9183L106.817 83.301L105.807 83.3542L105.435 84.6303L104.743 84.5241L104.371 82.8756L103.733 82.1843L103.626 81.227L102.829 80.9612L102.988 79.8975L104.105 79.3659L104.158 78.3021L104.85 78.4086L104.797 77.5577L104.424 77.1322L104.158 75.9623L103.201 75.8559L102.988 76.441L103.999 76.5474L103.893 77.5045L102.776 77.3451L102.457 78.0363L103.786 78.1957L103.626 79.3659L102.669 79.4188L102.35 80.6952L101.18 80.1103L101.34 78.1957L100.382 77.9299L100.436 77.5045L101.499 77.5577L101.605 76.8664L100.17 76.6004L100.276 75.9091L101.499 75.8559L101.552 75.4305L99.5314 75.005L99.6378 74.4734L102.137 74.367V72.8781L100.01 73.9948L98.2551 74.3138L97.989 75.6965L98.9464 75.9623V76.7068L97.67 76.4942L97.5636 77.2919L96.8724 77.7173L96.5001 78.8872L95.2236 79.5253L95.33 78.7276L94.4259 78.6212L94.2663 79.5785L93.256 79.3659L93.3092 78.834L92.7241 78.6744L92.5113 80.642L91.0753 80.2165L90.8095 78.515L90.1712 78.3554L89.7458 78.9934L92.0858 82.3437L93.2028 82.0247L93.3092 79.8975L94.0005 80.4826L93.9472 82.1311L94.6387 82.2373L95.8086 80.908L97.7232 78.3554L98.4677 78.4618L98.3083 79.8443L97.5104 82.0247L98.8402 80.9612L99.1592 78.7808L100.063 78.9404L99.7972 80.8016L100.648 80.642L101.233 81.3335L102.031 81.6525L102.722 83.1414L102.19 83.7265L100.436 81.8651L99.8504 82.1311L101.34 84.1519L100.648 84.8432L98.6273 82.7692L98.0955 83.1414L99.7443 85.2686L98.9464 86.0131L96.9256 83.301L96.6595 84.1519L98.3615 86.6511L97.7232 87.1298L95.9151 84.1519H95.3832L95.649 85.694L97.2446 88.9911L98.5741 87.7148L99.3186 88.9911L101.393 86.8639L102.882 87.0765L104.105 88.0871L100.701 90.2672L101.233 91.0649L102.403 91.2245L103.307 92.1286L102.935 93.1921L105.328 95.851L105.966 99.3609L101.552 98.3504L100.701 97.2869L99.9569 95.9574L98.8931 94.8407L98.4145 93.5643L96.9256 93.9898L96.6595 95.0003L95.4896 96.2764L94.6917 95.798L94.9045 94.2556L94.0005 94.1494L94.1069 93.4579L95.1174 93.5643L95.2768 92.9795L96.1277 93.0857L96.2873 91.969L95.1174 91.8094L95.2768 90.6395L96.2341 90.4269L95.2768 88.2465L93.7346 87.183L93.6814 87.6084L95.1174 89.576L94.9577 90.3204L92.7773 88.5657L92.7241 88.9911L94.2663 90.6927L94.1601 91.7032L92.139 90.3204L92.0326 90.9055L93.6814 93.1389L93.1496 93.6708L91.6604 91.9158L91.1817 94.4684L90.3841 94.362L90.2777 92.7667L89.2139 93.6176L88.7353 92.8199L90.5967 91.2245L90.2244 90.5865L87.7782 92.0222L87.459 91.8094L90.2244 89.6292L90.2777 88.7251L87.8844 89.9482L87.459 89.4164L89.7458 88.0871L90.7563 87.2362L89.1077 86.9172L89.4268 85.694L90.9159 85.8534L91.3946 84.6835L90.3841 81.4396L88.3098 79.7381L88.0972 80.5887L90.3309 82.982L89.8522 84.3113L87.5122 82.1843V82.8756L89.5332 85.0558L88.6823 86.0131L86.8741 84.0987L86.6613 84.79L88.5759 86.9704L87.2996 87.768L85.9168 86.1727L85.385 89.1505L84.6403 89.0441L84.7467 85.8534L83.1513 85.6408L83.2575 84.6835L84.6403 84.8432V83.8326L82.7789 83.4072L82.8321 82.6095L85.0127 82.4501L85.1189 81.546L82.0344 81.2802L82.3002 80.0039L84.587 80.3229L84.7467 79.7381L82.6727 78.1428L80.1198 80.5887L81.6622 84.0455L80.8645 85.0558L78.6838 82.716L78.3116 83.3542L79.4285 84.9496L77.9394 85.4812L76.9289 85.2154L76.8224 85.9066L77.4075 86.9704L77.6733 91.7564C77.6733 91.7564 77.5671 95.851 77.2479 97.3401C76.9821 98.4568 75.9716 102.02 75.9716 102.02L76.7692 101.169L77.6203 99.6799L78.3648 98.2972L77.3543 97.0211L77.7265 96.2232L79.0031 97.9782L79.6411 96.6486L78.6838 95.6383L78.8967 95.3193L80.9175 96.436L81.3431 95.3725L82.6195 96.1702L81.7686 97.4995L82.6195 98.0846L82.513 98.9355L80.6516 98.4036L80.5452 99.3077L82.194 99.5735L81.9812 100.956L79.0031 100.85L78.9499 101.382L81.3431 101.754L81.2899 102.339L79.9604 102.871L77.7797 102.605L77.6733 103.455L79.854 103.721L81.3431 104.2L81.4493 103.775L80.5452 103.668L80.7581 102.924L82.4598 102.871L82.8321 101.754L83.7362 102.233L84.0022 100.265L83.0981 99.9989L83.2575 98.9355L84.3212 99.1481L84.4809 95.9574L85.4914 96.3296L85.1721 99.0948L85.8636 99.0416V95.2661C85.8636 95.2661 86.5549 95.4257 86.7677 95.4787C86.9803 95.4787 86.6613 97.9249 86.6613 97.9249L87.725 97.9782L87.9376 95.5319L88.363 95.5851L88.2569 96.3828L89.3203 96.436L89.48 95.6383L90.7031 96.3296V97.7123L89.1077 98.5632L90.6499 98.7758L90.5437 99.3609L88.363 99.2545L88.2037 99.8395L89.6926 100.105L89.48 101.222L87.1931 100.956L87.1399 101.647L89.3203 101.807L89.0013 102.924L86.7145 102.817L86.7677 103.775L88.8949 103.987L89.3736 103.243L90.118 102.711L90.4373 100.85L91.235 101.009L91.554 102.392L92.4581 102.498L93.256 98.7758L94.2133 98.8822L93.7876 102.871L92.8835 103.083L92.7241 104.572L90.8627 104.679L90.8095 105.423L93.1496 105.476V103.987L94.4259 103.721L94.9045 102.977L97.5104 103.402V104.147L98.2019 104.2L98.6273 103.668L101.446 104.094L102.988 105.795L101.233 107.497L96.2341 106.753L95.649 107.71L94.9045 107.657L94.8513 106.753L93.575 106.221L92.9899 107.284L94.3195 107.71L94.2663 108.348L93.4154 108.242L93.3092 108.88L94.2133 109.092L93.8408 111.645L92.3519 111.326L92.7241 109.518L92.2455 109.465L92.0326 110.528L91.2882 110.422L91.7668 107.178L90.7031 107.072L90.5437 108.029L90.0118 107.922V105.636L88.8417 105.476L88.044 105.902L87.6718 106.646L89.48 106.912L89.3203 107.657L87.1399 107.816L87.1931 108.561L89.5332 108.88L89.48 109.465L88.1504 109.731V110.315L89.9586 110.582L89.9054 111.166L89.0013 111.22L88.8417 112.017L89.5332 112.868V113.666L87.8844 113.825L88.0972 112.443L87.459 112.336L87.3525 113.453L86.4484 113.347L86.7677 110.847L85.8636 110.741L85.385 113.294L84.6403 113.453L85.4382 110.263L84.7467 109.996L84.3744 112.124L82.9385 111.911L83.2575 109.518L82.1408 109.358L82.2472 108.242L82.9385 108.348L83.0449 107.657L82.194 107.019L82.1408 105.104L78.4712 104.36L78.418 105.051L77.3543 104.998L77.0885 105.848L78.7903 106.168L78.8967 105.476L81.7686 105.848L81.7154 106.806H81.2367L81.1303 107.497L79.4817 107.391V107.869L81.9812 108.242L81.8218 109.518L80.2794 109.465V109.996L82.3002 110.263L82.0876 111.539L80.8645 111.858L81.8218 113.028L81.609 113.4L80.7581 113.506L81.0239 114.889L80.2794 115.846L81.2367 117.282L81.2899 119.409L81.928 119.515L82.3002 118.08L81.5557 116.218L81.9812 115.74L83.2045 118.026L83.6829 117.282L82.5663 115.474L83.1513 115.102L84.1616 116.218L84.6403 115.474L83.4703 114.729L84.268 114.463L85.385 114.782L86.289 113.932L86.9803 114.57L86.3423 115.155L86.1294 116.112L86.9271 116.484L86.8741 117.069L86.023 116.856L85.9698 117.495L87.0335 118.665L87.5654 118.718L87.6186 118.133L87.3525 117.495L87.5654 115.952L88.0972 116.006L88.2569 115.049L88.8949 114.995L88.7353 116.112L89.3736 116.165L89.5332 114.623L90.3841 114.729L90.3309 115.793L90.7031 115.846L90.7563 115.049L91.7668 115.208L91.3414 118.08L90.4373 117.973L89.1077 118.133L88.7885 119.515L89.4268 119.622L89.5332 118.824L90.0651 118.877L89.9586 119.781H90.8095L90.9159 119.09L91.3414 119.143L91.235 119.941H91.9794L92.0858 119.356L93.1496 119.569L93.3622 117.122L93.894 116.059L94.6917 116.856V119.303L98.8402 119.888L100.276 121.27L98.787 122.547L93.894 122.387L93.6814 124.621L93.0964 124.993L92.3519 124.514L92.5113 121.377L89.799 121.058L89.6926 121.643L91.0753 121.802L90.9691 122.706L89.8522 122.547L89.7458 123.025L91.0221 123.238V123.982L89.9586 123.929L89.799 124.567L91.0221 124.993L90.8627 125.631L89.0013 125.471L87.6718 125.418L87.2464 124.142L86.9803 123.397L86.1294 123.344L86.9271 124.142L86.1826 124.089L86.023 124.833L86.9271 124.886L87.1399 125.578L86.0762 125.524L85.2785 126.854L85.5443 129.034L86.3955 128.981L88.1504 125.897L88.7885 126.003L87.6718 129.088L88.4163 129.247L89.48 127.492L90.2244 127.652L89.48 129.407L90.4905 129.353L91.1285 127.758L91.82 127.865L91.3946 129.832L92.6177 129.991L92.5113 130.949L90.9691 131.268L90.9159 132.278L90.4905 132.332L90.0118 131.215L89.4268 131.055L89.6394 132.651L89.1077 132.757L88.6823 131.215H87.9376L87.5654 133.235H87.2996L86.7677 130.683L86.0762 130.63L85.6508 131.161L87.4057 134.831H88.2037L88.3098 133.023L88.7353 133.076L88.5227 134.671H89.161L89.2671 133.82L89.6394 133.289L90.2244 134.671L90.8627 134.725L90.4373 133.554H91.1285L91.3414 134.299H92.139L91.82 132.597H92.4049L92.7773 134.352L93.4686 134.458V132.651L94.3727 132.757L94.2663 135.947L95.7022 136.267L95.8086 137.224L93.7876 136.852L93.6814 138.075L92.4049 137.915L92.5645 136.958L92.1923 136.745L91.82 137.756L91.3946 137.968L90.7563 136.639L90.118 136.586L90.5437 137.49L90.4373 138.341L89.161 136.958L88.8949 137.437L90.8627 141.053L94.0005 139.776L95.2236 140.361L95.0642 141.159L94.0537 141.106L91.554 142.861L94.3727 147.168L94.0537 149.934L92.4049 149.189L89.799 144.031L86.5016 146.158L86.6613 144.935L88.5759 143.339L88.4163 141.478L87.725 142.701L87.3525 142.169L88.4695 139.83L87.2996 137.862L86.7145 138.021L87.725 139.936L87.3525 140.946L86.2358 139.032L86.0762 139.511L86.6613 140.84L86.289 141.425L85.3317 140.149L85.1721 140.734L86.0762 142.063L85.5443 142.595L84.7999 141.904L84.6403 143.605L83.2045 143.286L83.5236 142.01L82.194 141.797L81.928 140.893L83.5236 140.946L83.7362 140.361L82.3534 140.468L82.4598 139.67H83.8426L84.0554 139.191H82.9917L83.0981 138.447L83.949 138.128L84.9595 138.234L85.0127 137.756L84.268 137.649V136.852L85.7572 137.383L85.9168 136.532L84.7467 136.373L84.8531 135.522H86.289L84.3744 131.268L84.0554 132.278L85.0657 134.405L84.7467 135.15L83.6829 133.82L83.3107 134.512L84.0554 136.107L83.6829 136.586L82.6727 135.575L81.3431 137.011L81.0239 138.341L80.1198 138.234L80.5984 136.213L79.1625 136.001V134.937L81.4493 135.097L81.8748 134.352L79.6411 134.086L79.854 133.023L82.2472 133.182L82.513 132.332L79.9604 131.746L80.0666 130.949L83.0449 131.108L82.9917 129.779L82.1408 129.407L82.194 128.715L81.5025 128.609V129.247L80.0666 129.141L78.1522 127.492L77.5139 128.077L79.4285 130.47L79.2157 131.108L77.4075 128.981L77.1417 129.3L78.7903 131.268L78.4712 131.959L76.3438 130.045L75.9716 130.523L78.4712 132.757L77.9394 133.82L74.8017 131.481L74.2166 133.023L75.8651 135.15L75.3335 136.586L73.4189 134.299L72.5148 135.947L71.5043 138.606L69.7493 139.511L68.8452 137.702L70.1216 135.682L71.7701 133.023L69.0046 132.597L69.111 131.64L72.0362 131.587L73.5783 129.672L73.1529 129.194L69.5365 128.981L69.5897 128.396H73.0467L73.3125 127.971L70.0151 127.545L70.1216 126.854L73.6315 127.333L73.9508 126.748L70.8128 126.322V125.578L75.3865 126.163L76.5034 125.418L76.9289 124.355L75.9716 124.248L75.759 125.418L75.2803 125.365L75.3865 124.408L74.7484 124.302L74.961 125.418L74.2166 125.312L74.3762 124.727L73.8443 124.142L73.5253 125.312L72.7274 125.099L73.0467 123.823L71.8233 123.078L73.2593 122.121L74.4294 122.015L73.8976 120.738L74.4824 120.366L74.9081 121.802H75.6525L75.0675 119.888L75.8651 119.728L76.8224 121.696L78.099 121.855L78.2584 120.738L76.8224 119.515L76.0248 117.388H74.4824L73.9508 118.558L73.2061 118.292L73.3657 116.431L72.9403 115.952L71.1853 117.016L70.7598 116.537L72.0362 114.517L71.5575 114.091L69.9087 115.633L69.5897 114.889L70.9192 112.921L70.547 112.389L68.5792 114.091L66.8774 115.102L68.8452 115.527V116.059L67.4093 116.006L67.6219 116.75L70.0151 116.91L70.6534 117.867L69.3239 118.345L71.6639 119.037L71.5575 119.994L69.2707 119.675L69.2175 120.26L71.9297 121.004L71.8233 122.015L69.8557 121.696L69.9087 122.387L71.5575 122.972L71.4511 123.717L69.8557 123.504L70.0683 125.365L69.1643 125.259L68.8984 124.302L68.2602 123.451L67.6219 124.514L67.1432 124.089L68.3666 122.281L67.7815 121.802L66.6116 123.291L66.133 122.812L67.7283 120.313L67.2496 119.888L65.2818 122.547L64.6438 122.068L65.7075 118.824L64.4309 119.249L63.3143 121.643L63.1014 122.653L64.7502 123.344L64.9628 124.089H63.1014L65.7605 127.226L64.697 128.237L61.9847 125.684L58.7938 132.597L56.7195 133.82L55.9219 130.683L59.485 123.451L60.0169 121.908L59.6447 120.685L60.2827 120.526L61.1868 121.483L62.8356 119.249L62.6228 118.665C62.6228 118.665 69.7493 113.772 73.8443 106.434Z" fill="#57C0DF"/>
<path d="M59.1336 120.867C59.1336 120.867 56.1021 122.357 56.1021 127.412C56.1021 132.52 50.2521 136.084 45.5187 135.18C48.5503 132.892 50.6775 131.455 47.4333 126.667C44.2424 121.825 45.4655 116.877 45.4655 116.877C45.4655 116.877 42.2216 117.462 40.6793 122.304C39.1901 127.146 32.5424 128.795 28.341 126.56C31.8509 125.23 34.3506 124.539 32.6488 119.005C31 113.418 33.6591 109.055 33.6591 109.055C33.6591 109.055 30.2556 108.683 27.4369 112.833C24.565 117.036 17.7045 116.717 14.354 113.312C18.13 113.099 20.6827 113.099 20.7359 107.353C20.7359 101.553 25.0436 98.9458 25.0436 98.9458C25.0436 98.9458 21.9591 97.7752 18.0768 101.021C14.1945 104.267 7.70625 102.085 5.36623 97.8816C9.03581 98.733 11.4822 99.4247 13.1308 93.8911C14.7263 88.3042 19.3 86.1229 19.3 86.1229C19.3 86.1229 16.8004 83.9412 12.1204 85.91C7.44035 87.8788 1.90939 83.8348 0.898926 79.1528C4.19623 81.0149 6.32351 82.4516 9.46128 77.6097C12.6522 72.7678 17.7577 71.9696 17.7577 71.9696C17.7577 71.9696 16.0027 69.0965 10.9504 69.5754C5.89807 70.0543 1.80303 64.5207 2.28167 59.732C4.83442 62.5519 6.42988 64.5207 10.9504 60.8494C15.4177 57.2314 20.47 58.0293 20.47 58.0293C20.47 58.0293 19.6191 54.7837 14.6731 53.7727C9.72718 52.7087 7.44035 46.2173 9.30172 41.8011C10.8972 45.2063 11.8545 47.6008 17.2259 45.4192C22.5973 43.291 27.1711 45.4724 27.1711 45.4724C27.1711 45.4724 27.2773 42.1204 22.8632 39.6729C18.3959 37.2253 18.13 30.3616 21.2146 26.6371C21.7464 30.4148 21.9591 32.9687 27.7027 32.4368C33.4997 31.9579 37.2223 35.4696 37.2223 35.4696C37.2223 35.4696 38.286 32.3304 34.7761 28.6589C31.2661 25.0408 33.0211 18.39 37.0629 15.7828C36.4778 19.5073 35.946 22.0081 41.5834 23.2319C47.2208 24.4555 49.8266 28.9249 49.8266 28.9249C49.8266 28.9249 51.9006 26.2647 49.6138 21.742C47.3801 17.1662 51.0497 11.4198 55.6766 10.0897C53.9748 13.4949 52.6985 15.7296 57.7508 18.6028C62.75 21.476 63.8134 26.4775 63.8134 26.4775C63.8134 26.4775 52.3793 43.6635 59.3462 58.3485C66.3131 73.0339 79.8745 79.7379 77.3219 96.711C74.9286 112.46 59.1336 120.867 59.1336 120.867Z" fill="#E8B023"/>
<path d="M176.633 89.381C177.826 90.7238 179.293 91.9175 181.034 92.9617C182.775 94.056 184.789 94.9262 187.077 95.5729C189.414 96.2692 192 96.6171 194.835 96.6171C197.819 96.6171 200.48 96.1946 202.818 95.349C205.205 94.5532 207.219 93.4592 208.86 92.0665C210.501 90.6742 211.77 89.0328 212.665 87.143C213.56 85.2532 214.008 83.2389 214.008 81.1004C214.008 77.8678 212.963 75.2815 210.874 73.3421C208.786 71.452 206.175 69.8605 203.041 68.5676C199.908 67.2744 196.551 66.1057 192.97 65.0615C189.34 63.9672 185.958 62.6244 182.824 61.0329C179.691 59.4414 177.08 57.4023 174.991 54.9157C172.903 52.429 171.858 49.0722 171.858 44.8447C171.858 41.9104 172.53 39.2001 173.872 36.7134C175.215 34.2763 177.155 32.1629 179.691 30.3722C182.178 28.5819 185.212 27.1895 188.793 26.1946C192.324 25.2 196.327 24.7028 200.803 24.7028C205.081 24.7028 208.761 25.1254 211.844 25.971C214.978 26.7667 217.862 28.01 220.498 29.701C219.702 30.8945 219.056 32.1626 218.558 33.5056C218.011 34.8484 217.464 36.5393 216.917 38.5784H215.351C214.903 37.6334 214.306 36.5641 213.56 35.3706C212.765 34.1769 211.72 33.0828 210.427 32.0882C209.134 31.0933 207.617 30.2728 205.876 29.6263C204.086 28.93 201.947 28.5819 199.46 28.5819C196.974 28.5819 194.686 28.9052 192.597 29.5517C190.508 30.1982 188.693 31.1184 187.151 32.3119C185.56 33.4558 184.341 34.8484 183.496 36.4895C182.65 38.1308 182.228 39.9212 182.228 41.8608C182.228 45.1929 183.272 47.8038 185.361 49.6938C187.499 51.6335 190.111 53.2746 193.194 54.6173C196.327 55.9105 199.709 57.0792 203.34 58.1234C206.921 59.1183 210.278 60.3617 213.411 61.8535C216.544 63.3455 219.155 65.2852 221.244 67.6724C223.333 70.0098 224.377 73.1429 224.377 77.0721C224.377 80.3047 223.631 83.3882 222.139 86.3225C220.697 89.2568 218.558 91.793 215.724 93.9316C212.939 96.1199 209.532 97.786 205.503 98.9297C201.425 100.123 196.8 100.72 191.628 100.72C186.107 100.72 181.631 100.148 178.199 99.0043C174.768 97.8108 171.908 96.4681 169.62 94.976C170.416 93.3347 170.963 91.8677 171.261 90.5745C171.56 89.2816 171.858 87.5906 172.157 85.5017H173.723C174.419 86.7949 175.389 88.0878 176.633 89.381Z" fill="#E8B023"/>
<path d="M270.555 54.1698C276.822 63.6689 283.361 73.4415 290.175 83.4877C291.071 82.1449 292.364 80.2052 294.054 77.6687C295.746 75.1324 297.711 72.223 299.948 68.9405C302.187 65.708 304.549 62.1768 307.036 58.3474C309.571 54.5677 312.157 50.7133 314.794 46.7844C317.43 42.9051 320.04 39.0756 322.626 35.296C325.214 31.5161 327.6 27.9852 329.789 24.7028H331.58C332.524 31.566 333.42 38.1556 334.265 44.4718C335.11 50.8377 335.982 57.104 336.877 63.2709C337.77 69.438 338.666 75.5054 339.562 81.4734C340.457 87.4912 341.428 93.4592 342.47 99.3773C341.428 99.1784 340.383 99.079 339.338 99.079H336.205H333.071C332.028 99.079 330.983 99.1784 329.938 99.3773C328.944 89.8784 327.974 80.7024 327.03 71.85C326.033 62.9478 324.815 53.8962 323.372 44.6954H323.148C317.033 53.5979 311.014 62.4751 305.096 71.3278C299.177 80.1804 293.558 89.4308 288.237 99.079H286.968C281.647 90.1269 276.075 81.1751 270.256 72.223C264.439 63.2213 258.596 54.0455 252.726 44.6954H252.427C251.83 49.0722 251.16 53.8464 250.414 59.0189C249.668 64.1413 248.972 69.2141 248.324 74.2373C247.727 79.2602 247.205 83.9848 246.757 88.4112C246.311 92.8375 246.087 96.4929 246.087 99.3773C244.645 99.1784 243.078 99.079 241.387 99.079C239.695 99.079 238.154 99.1784 236.761 99.3773C237.905 93.6084 239.099 87.516 240.342 81.1004C241.585 74.7344 242.779 68.3189 243.923 61.8535C245.067 55.3883 246.136 48.9975 247.13 42.6814C248.124 36.4149 248.972 30.4221 249.668 24.7028H251.904C258.073 34.7986 264.29 44.621 270.555 54.1698Z" fill="#E8B023"/>
<path d="M361.568 39.921C361.371 35.3952 361.147 30.7948 360.896 26.12C364.876 26.2693 368.854 26.4183 372.834 26.5676C376.811 26.667 380.791 26.7169 384.769 26.7169C388.749 26.7169 392.801 26.667 396.93 26.5676C401.009 26.4183 405.434 26.2693 410.209 26.12C409.961 27.1645 409.835 28.2337 409.835 29.3278C409.835 30.3722 409.961 31.4415 410.209 32.5356C407.82 32.3367 404.936 32.1378 401.555 31.9387C398.173 31.7897 394.742 31.6652 391.26 31.5657C387.728 31.4663 384.348 31.3917 381.114 31.3421C377.88 31.2922 375.196 31.2424 373.058 31.1928C372.957 33.6795 372.882 36.0667 372.834 38.3543C372.783 40.5925 372.759 42.8552 372.759 45.143C372.759 47.5799 372.783 49.8429 372.834 51.9316C372.882 54.0205 372.909 56.2086 372.909 58.4964C378.776 58.4964 384.571 58.4218 390.29 58.2727C396.059 58.1234 401.729 57.8499 407.3 57.4519C406.951 58.5462 406.778 59.6155 406.778 60.6597C406.778 61.7042 406.951 62.7734 407.3 63.8675C405.061 63.619 402.55 63.445 399.764 63.3455C396.978 63.2458 394.07 63.1464 391.036 63.047C388.002 62.9974 384.945 62.9723 381.86 62.9723H372.909V72.0737C372.909 76.7485 373.031 81.3489 373.282 85.8746C373.479 90.45 373.73 94.951 374.028 99.3773C371.989 99.1784 369.8 99.0787 367.462 99.0787C365.124 99.0787 362.936 99.1784 360.896 99.3773C361.147 94.951 361.371 90.45 361.568 85.8746C361.816 81.3489 361.941 76.7485 361.941 72.0737V53.7219C361.941 49.0471 361.816 44.4467 361.568 39.921Z" fill="#E8B023"/>
<path d="M171.261 122.578C172.231 123.175 173.648 123.697 175.14 123.697C177.453 123.697 178.721 122.503 178.721 120.788C178.721 119.146 177.826 118.251 175.514 117.356C172.753 116.386 171.038 114.969 171.038 112.582C171.038 109.896 173.201 107.956 176.558 107.956C178.274 107.956 179.542 108.404 180.288 108.777L179.691 110.567C179.094 110.269 177.975 109.747 176.483 109.747C174.171 109.747 173.275 111.164 173.275 112.358C173.275 113.924 174.32 114.67 176.633 115.565C179.542 116.685 180.959 118.102 180.959 120.564C180.959 123.175 179.02 125.487 174.991 125.487C173.35 125.487 171.56 124.965 170.665 124.368L171.261 122.578Z" fill="#E8B023"/>
<path fill-rule="evenodd" clip-rule="evenodd" d="M194.91 118.997C194.91 123.548 191.776 125.487 188.867 125.487C185.585 125.487 182.974 123.1 182.974 119.221C182.974 115.118 185.659 112.731 189.091 112.731C192.523 112.731 194.91 115.267 194.91 118.997ZM185.286 119.146C185.286 121.832 186.778 123.846 188.942 123.846C191.105 123.846 192.672 121.832 192.672 119.072C192.672 117.058 191.627 114.446 189.016 114.446C186.405 114.446 185.286 116.834 185.286 119.146Z" fill="#E8B023"/>
<path d="M206.399 124.741C205.802 125.04 204.533 125.487 202.892 125.487C199.237 125.487 196.85 122.951 196.85 119.221C196.85 115.491 199.386 112.806 203.414 112.806C204.683 112.806 205.876 113.104 206.473 113.402L205.951 115.118C205.429 114.82 204.608 114.521 203.414 114.521C200.58 114.521 199.088 116.61 199.088 119.146C199.088 121.981 200.878 123.697 203.34 123.697C204.608 123.697 205.429 123.399 206.025 123.1L206.399 124.741Z" fill="#E8B023"/>
<path d="M211.471 109.598C211.471 110.343 210.949 110.94 210.054 110.94C209.308 110.94 208.711 110.343 208.711 109.598C208.711 108.851 209.308 108.18 210.128 108.18C210.949 108.18 211.471 108.851 211.471 109.598ZM209.009 113.029H211.247V125.189H209.009V113.029Z" fill="#E8B023"/>
<path fill-rule="evenodd" clip-rule="evenodd" d="M216.171 119.519C216.171 122.503 218.111 123.772 220.349 123.772C221.916 123.772 222.886 123.473 223.706 123.1L224.079 124.741C223.333 125.04 221.99 125.487 220.051 125.487C216.246 125.487 214.008 123.025 214.008 119.295C214.008 115.64 216.171 112.731 219.752 112.731C223.706 112.731 224.751 116.237 224.751 118.475C224.751 118.923 224.751 119.295 224.676 119.519H216.171ZM222.736 117.953C222.736 116.535 222.139 114.372 219.603 114.372C217.365 114.372 216.395 116.386 216.246 117.953H222.736ZM223.258 107.732L220.2 111.388H218.559L220.797 107.732H223.258Z" fill="#E8B023"/>
<path d="M230.196 110.12V113.029H233.404V114.745H230.196V121.31C230.196 122.802 230.644 123.697 231.837 123.697C232.434 123.697 232.807 123.622 233.18 123.473L233.255 125.189C232.807 125.338 232.136 125.487 231.315 125.487C230.271 125.487 229.45 125.114 228.928 124.517C228.256 123.92 228.032 122.802 228.032 121.384V114.745H226.167V113.029H228.032V110.791L230.196 110.12Z" fill="#E8B023"/>
<path fill-rule="evenodd" clip-rule="evenodd" d="M237.134 119.519C237.134 122.503 239.074 123.772 241.312 123.772C242.878 123.772 243.848 123.473 244.669 123.1L245.042 124.741C244.221 125.04 242.952 125.487 241.013 125.487C237.209 125.487 234.971 123.025 234.971 119.295C234.971 115.64 237.134 112.731 240.715 112.731C244.669 112.731 245.714 116.237 245.714 118.475C245.714 118.923 245.714 119.295 245.639 119.519H237.134ZM243.699 117.953C243.699 116.535 243.102 114.372 240.566 114.372C238.328 114.372 237.358 116.386 237.209 117.953H243.699ZM244.221 107.732L241.163 111.388H239.521L241.758 107.732H244.221Z" fill="#E8B023"/>
<path d="M268.243 117.729C268.094 115.416 267.944 112.582 267.944 110.418H267.87C267.323 112.408 266.627 114.571 265.78 116.909L262.722 125.114H261.08L258.321 117.058C257.574 114.67 256.828 112.432 256.38 110.418H256.306C256.306 112.582 256.156 115.416 256.009 117.953L255.562 125.189H253.472L254.666 108.255H257.425L260.336 116.461C261.005 118.55 261.602 120.415 262.05 122.205H262.125C262.573 120.489 263.17 118.624 263.916 116.461L266.899 108.255H269.736L270.778 125.189H268.616L268.243 117.729Z" fill="#E8B023"/>
<path fill-rule="evenodd" clip-rule="evenodd" d="M285.102 118.997C285.102 123.548 281.969 125.487 279.061 125.487C275.777 125.487 273.241 123.1 273.241 119.221C273.241 115.118 275.851 112.731 279.285 112.731C282.79 112.731 285.102 115.267 285.102 118.997ZM275.478 119.146C275.478 121.832 276.971 123.846 279.135 123.846C281.297 123.846 282.865 121.832 282.865 119.072C282.865 117.058 281.82 114.446 279.21 114.446C276.598 114.446 275.478 116.834 275.478 119.146Z" fill="#E8B023"/>
<path d="M287.938 116.834C287.938 115.416 287.863 114.148 287.789 113.029H289.727L289.801 115.416H289.951C290.473 113.775 291.817 112.731 293.309 112.731C293.533 112.731 293.757 112.805 293.979 112.805V114.894C293.683 114.894 293.459 114.819 293.16 114.819C291.593 114.819 290.548 116.013 290.249 117.654C290.175 118.027 290.1 118.326 290.1 118.699V125.189H287.938V116.834Z" fill="#E8B023"/>
<path fill-rule="evenodd" clip-rule="evenodd" d="M296.144 107.359H298.383V114.969C299.201 113.626 300.619 112.731 302.56 112.731C305.618 112.731 307.708 115.267 307.708 118.997C307.708 123.324 304.946 125.487 302.261 125.487C300.47 125.487 299.052 124.816 298.159 123.175H298.084L298.009 125.189H296.069C296.143 124.368 296.144 123.175 296.144 122.056V107.359ZM298.383 120.414C298.383 120.638 298.383 120.937 298.457 121.161C298.903 122.727 300.172 123.771 301.814 123.771C304.125 123.771 305.469 121.906 305.469 119.072C305.469 116.684 304.2 114.596 301.888 114.596C300.321 114.596 298.903 115.565 298.457 117.281C298.457 117.505 298.383 117.803 298.383 118.176V120.414Z" fill="#E8B023"/>
<path fill-rule="evenodd" clip-rule="evenodd" d="M311.736 119.519C311.811 122.503 313.674 123.771 315.913 123.771C317.481 123.771 318.449 123.473 319.27 123.1L319.643 124.741C318.896 125.04 317.555 125.487 315.615 125.487C311.885 125.487 309.646 123.026 309.646 119.295C309.646 115.64 311.811 112.731 315.316 112.731C319.344 112.731 320.389 116.237 320.389 118.475C320.389 118.923 320.315 119.296 320.315 119.519H311.736ZM318.225 117.953C318.225 116.535 317.63 114.372 315.167 114.372C312.93 114.372 311.885 116.386 311.736 117.953H318.225Z" fill="#E8B023"/>
<path d="M323.148 107.359H325.313V125.189H323.148V107.359Z" fill="#E8B023"/>
<path d="M329.042 107.359H331.282V125.189H329.042V107.359Z" fill="#E8B023"/>
<path d="M337.472 109.598C337.472 110.343 336.949 110.94 336.056 110.94C335.31 110.94 334.712 110.343 334.712 109.598C334.712 108.851 335.31 108.18 336.131 108.18C336.949 108.18 337.472 108.851 337.472 109.598ZM335.011 113.029H337.248V125.189H335.011V113.029Z" fill="#E8B023"/>
<path d="M346.349 108.255H355.453V110.045H348.514V115.715H354.93V117.505H348.514V125.189H346.349V108.255Z" fill="#E8B023"/>
<path d="M358.51 116.834C358.51 115.416 358.51 114.148 358.436 113.029H360.374L360.448 115.416H360.523C361.12 113.775 362.389 112.731 363.882 112.731C364.18 112.731 364.33 112.805 364.554 112.805V114.894C364.33 114.894 364.106 114.819 363.807 114.819C362.24 114.819 361.12 116.013 360.822 117.654C360.747 118.027 360.747 118.326 360.747 118.699V125.189H358.51V116.834Z" fill="#E8B023"/>
<path fill-rule="evenodd" clip-rule="evenodd" d="M367.984 119.519C368.059 122.503 369.925 123.772 372.162 123.772C373.729 123.772 374.7 123.473 375.518 123.1L375.891 124.741C375.147 125.04 373.804 125.487 371.863 125.487C368.134 125.487 365.897 123.025 365.897 119.295C365.897 115.64 368.059 112.731 371.565 112.731C375.593 112.731 376.638 116.237 376.638 118.475C376.638 118.923 376.563 119.295 376.563 119.519H367.984ZM374.476 117.953C374.476 116.535 373.879 114.372 371.415 114.372C369.179 114.372 368.208 116.386 367.984 117.953H374.476ZM370.744 107.732L372.983 111.388H371.415L368.358 107.732H370.744Z" fill="#E8B023"/>
<path d="M379.399 116.834C379.399 115.416 379.325 114.148 379.25 113.029H381.188L381.263 115.416H381.412C381.935 113.775 383.278 112.731 384.768 112.731C384.992 112.731 385.216 112.805 385.44 112.805V114.894C385.142 114.894 384.918 114.819 384.619 114.819C383.054 114.819 382.009 116.013 381.711 117.654C381.636 118.027 381.561 118.326 381.561 118.699V125.189H379.399V116.834Z" fill="#E8B023"/>
<path fill-rule="evenodd" clip-rule="evenodd" d="M388.874 119.519C388.874 122.503 390.812 123.771 393.051 123.771C394.616 123.771 395.587 123.473 396.408 123.1L396.781 124.741C396.035 125.04 394.691 125.487 392.753 125.487C388.949 125.487 386.709 123.026 386.709 119.295C386.709 115.64 388.874 112.731 392.454 112.731C396.408 112.731 397.527 116.237 397.527 118.475C397.527 118.923 397.453 119.296 397.453 119.519H388.874ZM395.363 117.953C395.363 116.535 394.766 114.372 392.305 114.372C389.991 114.372 389.023 116.386 388.874 117.953H395.363Z" fill="#E8B023"/>
<path d="M399.913 122.951C400.585 123.398 401.779 123.846 402.899 123.846C404.464 123.846 405.21 123.026 405.21 122.056C405.21 120.937 404.613 120.414 402.973 119.743C400.809 118.997 399.764 117.803 399.764 116.311C399.764 114.372 401.331 112.731 403.941 112.731C405.21 112.731 406.255 113.104 406.927 113.477L406.404 115.118C405.882 114.819 405.061 114.446 403.867 114.446C402.6 114.446 401.854 115.193 401.854 116.088C401.854 117.058 402.6 117.505 404.165 118.176C406.255 118.923 407.375 120.041 407.375 121.832C407.375 123.995 405.733 125.487 402.824 125.487C401.481 125.487 400.212 125.114 399.391 124.667L399.913 122.951Z" fill="#E8B023"/>
</g>
<defs>
<clipPath id="clip0_168_2905">
<rect width="409.551" height="150" fill="white" transform="translate(0.77832)"/>
</clipPath>
</defs>
</svg>
