<svg width="492" height="150" viewBox="0 0 492 150" fill="none" xmlns="http://www.w3.org/2000/svg">
<mask id="mask0_169_2994" style="mask-type:luminance" maskUnits="userSpaceOnUse" x="0" y="0" width="492" height="150">
<path d="M491.986 0H0.993164V150H491.986V0Z" fill="white"/>
</mask>
<g mask="url(#mask0_169_2994)">
<mask id="mask1_169_2994" style="mask-type:luminance" maskUnits="userSpaceOnUse" x="7" y="4" width="110" height="142">
<path d="M116.236 4.15698H7.80615V145.843H116.236V4.15698Z" fill="white"/>
</mask>
<g mask="url(#mask1_169_2994)">
<path d="M67.658 4.15698L29.1943 74.9999L53.7001 120.626L59.2338 110.323L40.2617 74.9999L72.9848 14.0748L105.707 74.9999L67.6575 145.843H78.1858L116.236 74.9999L78.1858 4.15698H67.658Z" fill="black"/>
<path d="M56.3839 145.843L94.8475 74.9999L70.3417 29.3735L64.808 39.6766L83.7802 74.9999L51.0571 135.925L18.3343 74.9999L56.3843 4.15698H45.8562L7.80615 74.9999L45.8562 145.843H56.3839Z" fill="black"/>
</g>
<path d="M154.988 43.8798L148.707 33.0715C150.416 32.2863 151.755 31.1315 152.679 29.6073C153.603 28.1292 154.065 26.3278 154.065 24.2955C154.065 21.1546 153.048 18.7066 151.016 16.9514C148.984 15.1962 146.212 14.3186 142.656 14.3186H130.092V43.8798H136.559V34.2262H142.425L147.552 43.8798H154.988ZM147.506 24.3879C147.506 25.7736 147.09 26.8359 146.259 27.575C145.427 28.314 144.319 28.6835 142.841 28.6835H136.559V20.0461H142.841C144.319 20.0461 145.427 20.4618 146.259 21.2008C147.09 21.9399 147.506 23.0022 147.506 24.3879ZM159.772 43.8798H181.066V38.0138H166.239V31.7782H179.68V26.1431H166.239V20.1847H181.066V14.3186H159.772V43.8798ZM186.701 43.8798H192.936V24.7112L207.763 43.8798H213.999V14.3186H207.763V33.5334L192.936 14.3186H186.701V43.8798ZM230.776 14.3186L218.212 43.8798H224.956L227.543 37.5981H240.429L243.016 43.8798H250.037L237.473 14.3186H230.776ZM234.009 21.8937L238.074 31.8244H229.898L234.009 21.8937ZM265.801 44.3417C270.097 44.3417 273.423 43.2332 275.732 40.9699C278.041 38.7528 279.196 35.5195 279.196 31.3163V14.3186H272.73V31.0392C272.73 33.4872 272.129 35.3348 270.975 36.5357C269.774 37.7828 268.065 38.3833 265.801 38.3833C263.492 38.3833 261.737 37.7828 260.582 36.5357C259.427 35.3348 258.873 33.4872 258.873 31.0392V14.3186H252.406V31.3163C252.406 35.5195 253.561 38.7528 255.871 40.9699C258.18 43.2332 261.459 44.3417 265.801 44.3417ZM285.485 43.8798H306.085V37.9214H291.951V14.3186H285.485V43.8798ZM314.671 20.277V43.8798H321.137V20.277H331.299V14.3186H304.463V20.277H314.671Z" fill="black"/>
<path d="M130.41 68.7065H134.452V62.9328H138.147C140.514 62.9328 142.333 62.3844 143.632 61.2874C144.931 60.1904 145.595 58.6026 145.595 56.5818C145.595 54.5899 144.931 53.031 143.632 51.9051C142.304 50.8081 140.485 50.2308 138.147 50.2308H130.41V68.7065ZM141.496 56.5818C141.496 57.5056 141.207 58.1984 140.658 58.6603C140.11 59.1222 139.302 59.3532 138.262 59.3532H134.452V53.8104H138.262C139.302 53.8104 140.11 54.0703 140.658 54.5322C141.207 54.9941 141.496 55.6869 141.496 56.5818ZM158.06 63.8566C157.887 64.434 157.541 64.8959 157.021 65.2134C156.501 65.531 155.837 65.6753 155.087 65.6753C154.048 65.6753 153.21 65.4155 152.575 64.8959C151.94 64.3763 151.536 63.5968 151.392 62.5864H162.044C162.044 62.3266 162.073 62.0957 162.073 61.9225C162.073 61.7492 162.102 61.576 162.102 61.4317C162.102 59.2088 161.438 57.419 160.11 56.0333C158.782 54.6765 157.05 53.9837 154.914 53.9837C152.72 53.9837 150.93 54.6765 149.544 56.0622C148.158 57.4479 147.494 59.2666 147.494 61.4894C147.494 63.7123 148.187 65.531 149.602 66.9167C151.016 68.3024 152.835 68.9952 155.087 68.9952C156.906 68.9952 158.436 68.5333 159.706 67.5807C160.976 66.6569 161.727 65.4155 161.986 63.8566H158.06ZM154.798 57.2169C155.693 57.2169 156.444 57.4767 157.079 57.9386C157.685 58.4294 158.06 59.0934 158.205 59.9305H151.449C151.651 59.0356 152.027 58.3716 152.604 57.9098C153.153 57.4479 153.874 57.2169 154.798 57.2169ZM166.824 70.9871C166.506 70.9871 166.188 70.9871 165.842 70.9294C165.496 70.8716 165.12 70.8139 164.716 70.6984V74.1915C165.12 74.307 165.524 74.3647 165.9 74.4225C166.275 74.4802 166.65 74.4802 166.997 74.4802C168.671 74.4802 169.97 74.1338 170.894 73.4121C171.789 72.6904 172.511 71.5068 173.059 69.8613L178.746 54.2723H174.791L170.952 65.0114L166.997 54.2723H162.897L168.411 68.7065H169.624L169.595 68.822C169.277 69.688 168.931 70.2654 168.556 70.5541C168.18 70.8428 167.603 70.9871 166.824 70.9871ZM188.603 57.6788C188.921 57.6788 189.238 57.7077 189.556 57.7365C189.844 57.7943 190.133 57.8231 190.364 57.8809V54.0991C190.046 54.0703 189.815 54.0414 189.642 54.0125C189.469 54.0125 189.296 53.9837 189.151 53.9837C188.228 53.9837 187.391 54.1857 186.611 54.561C185.832 54.9652 185.168 55.5137 184.619 56.2354L183.638 54.2723H180.924V68.7065H184.879V61.0853C184.879 60.046 185.197 59.2088 185.86 58.6026C186.524 57.9964 187.448 57.6788 188.603 57.6788ZM199.576 53.9837C197.296 53.9837 195.448 54.7054 194.005 56.091C192.561 57.4767 191.84 59.2954 191.84 61.4894C191.84 63.7123 192.561 65.531 194.005 66.9167C195.448 68.3024 197.296 68.9952 199.576 68.9952C201.828 68.9952 203.705 68.3024 205.148 66.9167C206.591 65.531 207.342 63.7123 207.342 61.4894C207.342 59.2954 206.591 57.4767 205.148 56.091C203.705 54.7054 201.828 53.9837 199.576 53.9837ZM199.576 65.4733C198.451 65.4733 197.556 65.1268 196.863 64.3763C196.17 63.6546 195.824 62.7019 195.824 61.4894C195.824 60.3058 196.17 59.3532 196.863 58.6026C197.556 57.852 198.451 57.4767 199.576 57.4767C200.673 57.4767 201.597 57.852 202.29 58.6026C202.983 59.3532 203.358 60.3058 203.358 61.4894C203.358 62.7019 202.983 63.6546 202.29 64.3763C201.597 65.1268 200.673 65.4733 199.576 65.4733ZM210.216 68.7065H214.171V48.7874H210.216V68.7065ZM218.053 68.7065H222.008V48.7874H218.053V68.7065ZM235.504 63.8566C235.33 64.434 234.984 64.8959 234.464 65.2134C233.945 65.531 233.281 65.6753 232.53 65.6753C231.491 65.6753 230.654 65.4155 230.019 64.8959C229.384 64.3763 228.979 63.5968 228.835 62.5864H239.488C239.488 62.3266 239.516 62.0957 239.516 61.9225C239.516 61.7492 239.545 61.576 239.545 61.4317C239.545 59.2088 238.881 57.419 237.553 56.0333C236.225 54.6765 234.493 53.9837 232.357 53.9837C230.163 53.9837 228.373 54.6765 226.988 56.0622C225.602 57.4479 224.938 59.2666 224.938 61.4894C224.938 63.7123 225.631 65.531 227.045 66.9167C228.46 68.3024 230.279 68.9952 232.53 68.9952C234.349 68.9952 235.879 68.5333 237.149 67.5807C238.419 66.6569 239.17 65.4155 239.43 63.8566H235.504ZM232.242 57.2169C233.136 57.2169 233.887 57.4767 234.522 57.9386C235.128 58.4294 235.504 59.0934 235.648 59.9305H228.893C229.095 59.0356 229.47 58.3716 230.048 57.9098C230.596 57.4479 231.318 57.2169 232.242 57.2169ZM248.212 65.9352C247.345 65.9352 246.682 65.7619 246.162 65.3867C245.642 65.0114 245.382 64.5206 245.382 63.9144H241.572C241.572 65.3867 242.178 66.5991 243.448 67.5518C244.69 68.5333 246.277 68.9952 248.212 68.9952C250.001 68.9952 251.474 68.5622 252.571 67.6673C253.668 66.8012 254.245 65.6176 254.245 64.1453C254.245 62.9617 253.841 62.0091 253.033 61.3162C252.224 60.6234 250.954 60.1615 249.28 59.9017L247.865 59.6996C247.057 59.5841 246.479 59.4109 246.133 59.18C245.787 58.9779 245.613 58.6892 245.613 58.285C245.613 57.8809 245.787 57.5922 246.133 57.3613C246.479 57.1303 246.97 57.0148 247.634 57.0148C248.442 57.0148 249.078 57.188 249.539 57.4767C250.001 57.7654 250.232 58.1696 250.232 58.6603H253.927C253.927 57.3035 253.321 56.1777 252.166 55.3116C250.983 54.4456 249.482 53.9837 247.634 53.9837C245.844 53.9837 244.401 54.4167 243.362 55.2539C242.294 56.091 241.774 57.2169 241.774 58.6315C241.774 59.8728 242.178 60.8543 242.986 61.6049C243.795 62.3555 245.036 62.8462 246.653 63.0772L248.067 63.2793C248.875 63.3947 249.482 63.568 249.828 63.77C250.175 63.9721 250.348 64.2608 250.348 64.6361C250.348 65.0691 250.146 65.3867 249.799 65.6176C249.424 65.8486 248.904 65.9352 248.212 65.9352ZM264.169 62.24V58.949H256.548V62.24H264.169ZM277.001 63.8566C276.828 64.434 276.482 64.8959 275.962 65.2134C275.442 65.531 274.779 65.6753 274.028 65.6753C272.989 65.6753 272.151 65.4155 271.516 64.8959C270.881 64.3763 270.477 63.5968 270.333 62.5864H280.985C280.985 62.3266 281.014 62.0957 281.014 61.9225C281.014 61.7492 281.043 61.576 281.043 61.4317C281.043 59.2088 280.379 57.419 279.051 56.0333C277.723 54.6765 275.991 53.9837 273.855 53.9837C271.661 53.9837 269.871 54.6765 268.485 56.0622C267.1 57.4479 266.436 59.2666 266.436 61.4894C266.436 63.7123 267.128 65.531 268.543 66.9167C269.957 68.3024 271.776 68.9952 274.028 68.9952C275.847 68.9952 277.377 68.5333 278.647 67.5807C279.917 66.6569 280.668 65.4155 280.927 63.8566H277.001ZM273.739 57.2169C274.634 57.2169 275.385 57.4767 276.02 57.9386C276.626 58.4294 277.001 59.0934 277.146 59.9305H270.391C270.593 59.0356 270.968 58.3716 271.545 57.9098C272.094 57.4479 272.815 57.2169 273.739 57.2169ZM290.979 57.4767C291.874 57.4767 292.596 57.7654 293.145 58.3428C293.693 58.9201 293.982 59.6707 293.982 60.6234V68.7065H297.937V60.0171C297.937 58.2273 297.359 56.755 296.233 55.658C295.079 54.561 293.606 53.9837 291.817 53.9837C290.922 53.9837 290.113 54.1569 289.392 54.4456C288.641 54.7631 288.035 55.1961 287.544 55.7446L286.794 54.2723H283.993V68.7065H287.948V60.6234C287.948 59.6419 288.208 58.8913 288.757 58.3139C289.276 57.7654 290.027 57.4767 290.979 57.4767ZM308.486 62.24V58.949H300.865V62.24H308.486ZM311.937 68.7065H315.978V62.9328H319.673C322.041 62.9328 323.859 62.3844 325.158 61.2874C326.457 60.1904 327.121 58.6026 327.121 56.5818C327.121 54.5899 326.457 53.031 325.158 51.9051C323.83 50.8081 322.012 50.2308 319.673 50.2308H311.937V68.7065ZM323.022 56.5818C323.022 57.5056 322.733 58.1984 322.185 58.6603C321.636 59.1222 320.828 59.3532 319.789 59.3532H315.978V53.8104H319.789C320.828 53.8104 321.636 54.0703 322.185 54.5322C322.733 54.9941 323.022 55.6869 323.022 56.5818ZM337.653 57.6788C337.97 57.6788 338.288 57.7077 338.605 57.7365C338.894 57.7943 339.183 57.8231 339.414 57.8809V54.0991C339.096 54.0703 338.865 54.0414 338.692 54.0125C338.519 54.0125 338.345 53.9837 338.201 53.9837C337.277 53.9837 336.44 54.1857 335.661 54.561C334.881 54.9652 334.217 55.5137 333.669 56.2354L332.687 54.2723H329.974V68.7065H333.929V61.0853C333.929 60.046 334.246 59.2088 334.91 58.6026C335.574 57.9964 336.498 57.6788 337.653 57.6788ZM348.626 53.9837C346.345 53.9837 344.498 54.7054 343.054 56.091C341.611 57.4767 340.889 59.2954 340.889 61.4894C340.889 63.7123 341.611 65.531 343.054 66.9167C344.498 68.3024 346.345 68.9952 348.626 68.9952C350.878 68.9952 352.754 68.3024 354.198 66.9167C355.641 65.531 356.392 63.7123 356.392 61.4894C356.392 59.2954 355.641 57.4767 354.198 56.091C352.754 54.7054 350.878 53.9837 348.626 53.9837ZM348.626 65.4733C347.5 65.4733 346.605 65.1268 345.912 64.3763C345.22 63.6546 344.873 62.7019 344.873 61.4894C344.873 60.3058 345.22 59.3532 345.912 58.6026C346.605 57.852 347.5 57.4767 348.626 57.4767C349.723 57.4767 350.647 57.852 351.34 58.6026C352.033 59.3532 352.408 60.3058 352.408 61.4894C352.408 62.7019 352.033 63.6546 351.34 64.3763C350.647 65.1268 349.723 65.4733 348.626 65.4733ZM367.044 68.7065L372.789 54.2723H368.834L364.937 64.2897L361.039 54.2723H356.94L362.714 68.7065H367.044ZM383.961 63.8566C383.788 64.434 383.441 64.8959 382.922 65.2134C382.402 65.531 381.738 65.6753 380.988 65.6753C379.948 65.6753 379.111 65.4155 378.476 64.8959C377.841 64.3763 377.437 63.5968 377.292 62.5864H387.945C387.945 62.3266 387.974 62.0957 387.974 61.9225C387.974 61.7492 388.003 61.576 388.003 61.4317C388.003 59.2088 387.339 57.419 386.011 56.0333C384.683 54.6765 382.951 53.9837 380.814 53.9837C378.62 53.9837 376.83 54.6765 375.445 56.0622C374.059 57.4479 373.395 59.2666 373.395 61.4894C373.395 63.7123 374.088 65.531 375.503 66.9167C376.917 68.3024 378.736 68.9952 380.988 68.9952C382.806 68.9952 384.336 68.5333 385.606 67.5807C386.877 66.6569 387.627 65.4155 387.887 63.8566H383.961ZM380.699 57.2169C381.594 57.2169 382.344 57.4767 382.979 57.9386C383.586 58.4294 383.961 59.0934 384.105 59.9305H377.35C377.552 59.0356 377.927 58.3716 378.505 57.9098C379.053 57.4479 379.775 57.2169 380.699 57.2169ZM397.939 57.4767C398.834 57.4767 399.556 57.7654 400.104 58.3428C400.653 58.9201 400.941 59.6707 400.941 60.6234V68.7065H404.896V60.0171C404.896 58.2273 404.319 56.755 403.193 55.658C402.038 54.561 400.566 53.9837 398.776 53.9837C397.881 53.9837 397.073 54.1569 396.351 54.4456C395.601 54.7631 394.994 55.1961 394.504 55.7446L393.753 54.2723H390.953V68.7065H394.908V60.6234C394.908 59.6419 395.168 58.8913 395.716 58.3139C396.236 57.7654 396.986 57.4767 397.939 57.4767ZM418.419 62.6442C418.188 63.5391 417.784 64.2319 417.178 64.7227C416.572 65.2423 415.85 65.4733 415.013 65.4733C413.945 65.4733 413.079 65.1268 412.444 64.3763C411.78 63.6546 411.462 62.7019 411.462 61.4894C411.462 60.3058 411.78 59.3532 412.444 58.6026C413.108 57.852 413.974 57.4767 415.013 57.4767C415.85 57.4767 416.572 57.7365 417.178 58.2562C417.784 58.7758 418.188 59.4686 418.419 60.3347H422.461C422.201 58.4294 421.393 56.8705 420.036 55.7158C418.679 54.561 417.005 53.9837 415.013 53.9837C412.819 53.9837 411 54.7054 409.586 56.091C408.171 57.4767 407.478 59.2954 407.478 61.4894C407.478 63.7123 408.171 65.531 409.586 66.9167C411 68.3024 412.819 68.9952 415.013 68.9952C417.005 68.9952 418.679 68.4178 420.036 67.2631C421.393 66.1084 422.201 64.5783 422.461 62.6442H418.419ZM434.903 63.8566C434.73 64.434 434.384 64.8959 433.864 65.2134C433.344 65.531 432.68 65.6753 431.93 65.6753C430.891 65.6753 430.053 65.4155 429.418 64.8959C428.783 64.3763 428.379 63.5968 428.235 62.5864H438.887C438.887 62.3266 438.916 62.0957 438.916 61.9225C438.916 61.7492 438.945 61.576 438.945 61.4317C438.945 59.2088 438.281 57.419 436.953 56.0333C435.625 54.6765 433.893 53.9837 431.757 53.9837C429.563 53.9837 427.773 54.6765 426.387 56.0622C425.001 57.4479 424.337 59.2666 424.337 61.4894C424.337 63.7123 425.03 65.531 426.445 66.9167C427.859 68.3024 429.678 68.9952 431.93 68.9952C433.748 68.9952 435.279 68.5333 436.549 67.5807C437.819 66.6569 438.569 65.4155 438.829 63.8566H434.903ZM431.641 57.2169C432.536 57.2169 433.287 57.4767 433.922 57.9386C434.528 58.4294 434.903 59.0934 435.048 59.9305H428.292C428.494 59.0356 428.87 58.3716 429.447 57.9098C429.996 57.4479 430.717 57.2169 431.641 57.2169Z" fill="black"/>
<path d="M139.919 91.7551V95.8429H147.402C147.16 97.2286 146.501 98.3025 145.462 99.0299C144.388 99.7921 143.003 100.138 141.27 100.138C139.227 100.138 137.598 99.5149 136.351 98.1985C135.104 96.9168 134.481 95.2193 134.481 93.0715C134.481 90.993 135.07 89.2955 136.317 88.0138C137.529 86.732 139.123 86.0738 141.132 86.0738C142.552 86.0738 143.799 86.4202 144.839 87.0784C145.878 87.7366 146.571 88.5681 146.917 89.538H151.975C151.559 87.2517 150.381 85.3463 148.372 83.8567C146.363 82.4018 143.938 81.6396 141.097 81.6396C137.772 81.6396 135.035 82.7482 132.818 84.896C130.601 87.0784 129.527 89.8152 129.527 93.0715C129.527 96.3625 130.635 99.0992 132.852 101.247C135.07 103.429 137.841 104.503 141.201 104.503C144.527 104.503 147.264 103.533 149.342 101.524C151.421 99.5496 152.494 96.9514 152.494 93.6951C152.494 93.3833 152.46 93.0715 152.46 92.7251C152.425 92.3787 152.391 92.0669 152.391 91.7551H139.919ZM173.048 86.836H169.687L168.787 88.6027C168.094 87.9099 167.297 87.3902 166.396 87.0438C165.496 86.6974 164.526 86.4895 163.486 86.4895C161.061 86.4895 159.052 87.3556 157.389 89.053C155.727 90.7851 154.93 92.933 154.93 95.4965C154.93 98.0946 155.727 100.242 157.389 101.94C159.052 103.672 161.061 104.503 163.486 104.503C164.526 104.503 165.496 104.33 166.396 103.984C167.297 103.637 168.094 103.083 168.787 102.39L169.687 104.157H173.048V86.836ZM164.179 100.277C162.863 100.277 161.789 99.8614 160.958 98.9607C160.126 98.0946 159.71 96.9514 159.71 95.4965C159.71 94.0761 160.126 92.933 160.958 92.0323C161.789 91.1316 162.863 90.6812 164.179 90.6812C165.496 90.6812 166.57 91.1316 167.401 92.0323C168.232 92.933 168.648 94.0761 168.648 95.4965C168.648 96.9514 168.232 98.0946 167.401 98.9607C166.57 99.8614 165.496 100.277 164.179 100.277ZM186.907 90.9237C187.288 90.9237 187.669 90.9584 188.05 90.993C188.396 91.0623 188.743 91.0969 189.02 91.1662V86.6281C188.639 86.5935 188.362 86.5588 188.154 86.5242C187.946 86.5242 187.738 86.4895 187.565 86.4895C186.456 86.4895 185.452 86.732 184.516 87.1824C183.581 87.6674 182.784 88.3256 182.126 89.1916L180.948 86.836H177.692V104.157H182.438V95.0115C182.438 93.7644 182.819 92.7597 183.616 92.0323C184.412 91.3048 185.521 90.9237 186.907 90.9237ZM208.908 86.836H205.548L204.647 88.6027C203.954 87.9099 203.157 87.3902 202.257 87.0438C201.356 86.6974 200.386 86.4895 199.347 86.4895C196.922 86.4895 194.912 87.3556 193.25 89.053C191.587 90.7851 190.79 92.933 190.79 95.4965C190.79 98.0946 191.587 100.242 193.25 101.94C194.912 103.672 196.922 104.503 199.347 104.503C200.386 104.503 201.356 104.33 202.257 103.984C203.157 103.637 203.954 103.083 204.647 102.39L205.548 104.157H208.908V86.836ZM200.039 100.277C198.723 100.277 197.649 99.8614 196.818 98.9607C195.986 98.0946 195.571 96.9514 195.571 95.4965C195.571 94.0761 195.986 92.933 196.818 92.0323C197.649 91.1316 198.723 90.6812 200.039 90.6812C201.356 90.6812 202.43 91.1316 203.261 92.0323C204.093 92.933 204.508 94.0761 204.508 95.4965C204.508 96.9514 204.093 98.0946 203.261 98.9607C202.43 99.8614 201.356 100.277 200.039 100.277ZM221.9 106.928C220.861 106.928 220.029 106.755 219.336 106.339C218.643 105.924 218.158 105.369 217.916 104.607H212.962C213.378 106.617 214.382 108.21 215.976 109.353C217.57 110.531 219.579 111.085 221.969 111.085C224.602 111.085 226.715 110.358 228.343 108.868C229.937 107.379 230.768 105.404 230.768 102.944V86.836H227.581L226.576 88.6373C225.884 87.9445 225.052 87.4249 224.117 87.0438C223.182 86.6974 222.177 86.4895 221.068 86.4895C218.609 86.4895 216.53 87.3209 214.833 88.9838C213.135 90.6466 212.304 92.6905 212.304 95.15C212.304 97.6443 213.135 99.6881 214.833 101.351C216.53 103.014 218.609 103.811 221.068 103.811C222.004 103.811 222.904 103.672 223.736 103.395C224.567 103.118 225.329 102.737 226.022 102.182V102.944C226.022 104.192 225.641 105.196 224.914 105.889C224.186 106.582 223.182 106.928 221.9 106.928ZM221.727 99.5842C220.341 99.5842 219.232 99.2032 218.366 98.3718C217.5 97.5403 217.085 96.4664 217.085 95.15C217.085 93.8336 217.5 92.7597 218.366 91.9283C219.232 91.0969 220.341 90.6812 221.727 90.6812C223.078 90.6812 224.186 91.0969 225.052 91.9283C225.918 92.7597 226.369 93.8336 226.369 95.15C226.369 96.4664 225.918 97.5403 225.052 98.3718C224.186 99.2032 223.078 99.5842 221.727 99.5842ZM246.773 98.3371C246.565 99.0299 246.149 99.5842 245.526 99.9653C244.902 100.346 244.105 100.52 243.205 100.52C241.958 100.52 240.953 100.208 240.191 99.5842C239.429 98.9607 238.944 98.0253 238.77 96.8129H251.553C251.553 96.5011 251.588 96.2239 251.588 96.0161C251.588 95.8082 251.623 95.6004 251.623 95.4272C251.623 92.7597 250.826 90.6119 249.232 88.9491C247.639 87.3209 245.56 86.4895 242.997 86.4895C240.364 86.4895 238.216 87.3209 236.553 88.9838C234.891 90.6466 234.094 92.829 234.094 95.4965C234.094 98.1639 234.925 100.346 236.623 102.009C238.32 103.672 240.503 104.503 243.205 104.503C245.387 104.503 247.223 103.949 248.747 102.806C250.272 101.697 251.172 100.208 251.484 98.3371H246.773ZM242.858 90.3694C243.932 90.3694 244.833 90.6812 245.595 91.2355C246.322 91.8244 246.773 92.6212 246.946 93.6258H238.84C239.082 92.5519 239.533 91.7551 240.225 91.2008C240.884 90.6466 241.75 90.3694 242.858 90.3694ZM138.222 113.741L128.799 135.912H133.857L135.797 131.201H145.462L147.402 135.912H152.668L143.245 113.741H138.222ZM140.647 119.423L143.695 126.871H137.564L140.647 119.423ZM163.089 136.259C165.514 136.259 167.489 135.6 169.013 134.249C170.503 132.898 171.265 131.132 171.265 128.914V118.591H166.519V128.395C166.519 129.573 166.207 130.473 165.618 131.097C164.994 131.72 164.163 132.032 163.089 132.032C161.981 132.032 161.149 131.72 160.56 131.097C159.937 130.473 159.66 129.573 159.66 128.395V118.591H154.914V128.914C154.914 131.201 155.641 132.968 157.131 134.284C158.586 135.6 160.595 136.259 163.089 136.259ZM175.112 129.469C175.112 131.755 175.667 133.383 176.775 134.388C177.884 135.427 179.685 135.912 182.179 135.912H185.193V131.547H182.456C181.521 131.547 180.863 131.374 180.447 130.993C180.031 130.612 179.858 129.988 179.858 129.088V122.54H184.847V118.591H179.858V114.434H175.112V129.469ZM196.792 118.245C194.056 118.245 191.839 119.111 190.106 120.774C188.374 122.436 187.508 124.619 187.508 127.252C187.508 129.919 188.374 132.102 190.106 133.764C191.839 135.427 194.056 136.259 196.792 136.259C199.494 136.259 201.746 135.427 203.478 133.764C205.21 132.102 206.111 129.919 206.111 127.252C206.111 124.619 205.21 122.436 203.478 120.774C201.746 119.111 199.494 118.245 196.792 118.245ZM196.792 132.032C195.441 132.032 194.367 131.617 193.536 130.716C192.705 129.85 192.289 128.707 192.289 127.252C192.289 125.831 192.705 124.688 193.536 123.787C194.367 122.887 195.441 122.436 196.792 122.436C198.109 122.436 199.217 122.887 200.049 123.787C200.88 124.688 201.33 125.831 201.33 127.252C201.33 128.707 200.88 129.85 200.049 130.716C199.217 131.617 198.109 132.032 196.792 132.032ZM234.225 135.912L229.514 127.806C230.796 127.217 231.8 126.351 232.493 125.208C233.186 124.099 233.533 122.748 233.533 121.224C233.533 118.868 232.77 117.032 231.246 115.716C229.722 114.399 227.643 113.741 224.976 113.741H215.553V135.912H220.403V128.672H224.803L228.648 135.912H234.225ZM228.613 121.293C228.613 122.332 228.302 123.129 227.678 123.684C227.054 124.238 226.223 124.515 225.115 124.515H220.403V118.037H225.115C226.223 118.037 227.054 118.349 227.678 118.903C228.302 119.457 228.613 120.254 228.613 121.293ZM249.073 130.092C248.865 130.785 248.449 131.339 247.826 131.72C247.202 132.102 246.406 132.275 245.505 132.275C244.258 132.275 243.253 131.963 242.491 131.339C241.729 130.716 241.244 129.781 241.071 128.568H253.854C253.854 128.256 253.888 127.979 253.888 127.771C253.888 127.563 253.923 127.356 253.923 127.182C253.923 124.515 253.126 122.367 251.533 120.704C249.939 119.076 247.86 118.245 245.297 118.245C242.664 118.245 240.516 119.076 238.854 120.739C237.191 122.402 236.394 124.584 236.394 127.252C236.394 129.919 237.225 132.102 238.923 133.764C240.62 135.427 242.803 136.259 245.505 136.259C247.687 136.259 249.523 135.704 251.048 134.561C252.572 133.453 253.473 131.963 253.784 130.092H249.073ZM245.158 122.125C246.232 122.125 247.133 122.436 247.895 122.991C248.623 123.58 249.073 124.376 249.246 125.381H241.14C241.382 124.307 241.833 123.51 242.526 122.956C243.184 122.402 244.05 122.125 245.158 122.125ZM257.463 135.912H262.209V112.009H257.463V135.912ZM283.807 118.591H280.447L279.546 120.358C278.854 119.665 278.057 119.145 277.156 118.799C276.255 118.453 275.285 118.245 274.246 118.245C271.821 118.245 269.812 119.111 268.149 120.808C266.486 122.54 265.69 124.688 265.69 127.252C265.69 129.85 266.486 131.998 268.149 133.695C269.812 135.427 271.821 136.259 274.246 136.259C275.285 136.259 276.255 136.085 277.156 135.739C278.057 135.393 278.854 134.838 279.546 134.145L280.447 135.912H283.807V118.591ZM274.939 132.032C273.623 132.032 272.549 131.617 271.717 130.716C270.886 129.85 270.47 128.707 270.47 127.252C270.47 125.831 270.886 124.688 271.717 123.787C272.549 122.887 273.623 122.436 274.939 122.436C276.255 122.436 277.329 122.887 278.161 123.787C278.992 124.688 279.408 125.831 279.408 127.252C279.408 128.707 278.992 129.85 278.161 130.716C277.329 131.617 276.255 132.032 274.939 132.032ZM288.452 116.582H293.198V112.009H288.452V116.582ZM288.452 135.912H293.198V118.591H288.452V135.912ZM304.715 132.587C303.676 132.587 302.879 132.379 302.255 131.928C301.632 131.478 301.32 130.889 301.32 130.162H296.747C296.747 131.928 297.475 133.383 298.999 134.526C300.489 135.704 302.394 136.259 304.715 136.259C306.863 136.259 308.63 135.739 309.946 134.665C311.262 133.626 311.955 132.205 311.955 130.439C311.955 129.018 311.47 127.875 310.5 127.044C309.53 126.212 308.006 125.658 305.997 125.346L304.299 125.104C303.329 124.965 302.636 124.757 302.221 124.48C301.805 124.238 301.597 123.891 301.597 123.406C301.597 122.921 301.805 122.575 302.221 122.298C302.636 122.021 303.225 121.882 304.022 121.882C304.992 121.882 305.754 122.09 306.309 122.436C306.863 122.783 307.14 123.268 307.14 123.857H311.574C311.574 122.229 310.847 120.878 309.461 119.838C308.041 118.799 306.239 118.245 304.022 118.245C301.874 118.245 300.142 118.764 298.895 119.769C297.613 120.774 296.99 122.125 296.99 123.822C296.99 125.312 297.475 126.49 298.445 127.39C299.415 128.291 300.904 128.88 302.844 129.157L304.542 129.399C305.512 129.538 306.239 129.746 306.655 129.988C307.071 130.231 307.279 130.577 307.279 131.028C307.279 131.547 307.036 131.928 306.62 132.205C306.17 132.483 305.546 132.587 304.715 132.587ZM321.476 135.912H330.933C334.259 135.912 336.996 134.873 339.178 132.76C341.36 130.681 342.469 128.014 342.469 124.827C342.469 121.64 341.36 119.007 339.178 116.894C336.996 114.815 334.259 113.741 330.933 113.741H321.476V135.912ZM337.515 124.827C337.515 126.836 336.892 128.429 335.679 129.642C334.467 130.854 332.873 131.443 330.933 131.443H326.326V118.21H330.933C332.873 118.21 334.467 118.834 335.679 120.046C336.892 121.259 337.515 122.852 337.515 124.827ZM357.566 130.092C357.358 130.785 356.943 131.339 356.319 131.72C355.695 132.102 354.899 132.275 353.998 132.275C352.751 132.275 351.746 131.963 350.984 131.339C350.222 130.716 349.737 129.781 349.564 128.568H362.347C362.347 128.256 362.381 127.979 362.381 127.771C362.381 127.563 362.416 127.356 362.416 127.182C362.416 124.515 361.619 122.367 360.026 120.704C358.432 119.076 356.354 118.245 353.79 118.245C351.157 118.245 349.009 119.076 347.347 120.739C345.684 122.402 344.887 124.584 344.887 127.252C344.887 129.919 345.718 132.102 347.416 133.764C349.113 135.427 351.296 136.259 353.998 136.259C356.18 136.259 358.016 135.704 359.541 134.561C361.065 133.453 361.966 131.963 362.277 130.092H357.566ZM353.651 122.125C354.725 122.125 355.626 122.436 356.388 122.991C357.116 123.58 357.566 124.376 357.739 125.381H349.633C349.876 124.307 350.326 123.51 351.019 122.956C351.677 122.402 352.543 122.125 353.651 122.125ZM372.815 132.587C371.776 132.587 370.979 132.379 370.356 131.928C369.732 131.478 369.421 130.889 369.421 130.162H364.848C364.848 131.928 365.575 133.383 367.1 134.526C368.589 135.704 370.494 136.259 372.815 136.259C374.963 136.259 376.73 135.739 378.046 134.665C379.363 133.626 380.056 132.205 380.056 130.439C380.056 129.018 379.571 127.875 378.601 127.044C377.631 126.212 376.106 125.658 374.097 125.346L372.4 125.104C371.43 124.965 370.737 124.757 370.321 124.48C369.906 124.238 369.698 123.891 369.698 123.406C369.698 122.921 369.906 122.575 370.321 122.298C370.737 122.021 371.326 121.882 372.123 121.882C373.093 121.882 373.855 122.09 374.409 122.436C374.963 122.783 375.24 123.268 375.24 123.857H379.675C379.675 122.229 378.947 120.878 377.561 119.838C376.141 118.799 374.34 118.245 372.123 118.245C369.975 118.245 368.243 118.764 366.996 119.769C365.714 120.774 365.09 122.125 365.09 123.822C365.09 125.312 365.575 126.49 366.545 127.39C367.515 128.291 369.005 128.88 370.945 129.157L372.642 129.399C373.612 129.538 374.34 129.746 374.755 129.988C375.171 130.231 375.379 130.577 375.379 131.028C375.379 131.547 375.136 131.928 374.721 132.205C374.27 132.483 373.647 132.587 372.815 132.587ZM396.955 113.741L387.533 135.912H392.59L394.53 131.201H404.195L406.135 135.912H411.401L401.978 113.741H396.955ZM399.38 119.423L402.429 126.871H396.297L399.38 119.423ZM414.266 135.912H419.012V112.009H414.266V135.912ZM423.67 142.494H428.416V134.492C429.039 135.081 429.732 135.531 430.564 135.808C431.395 136.12 432.261 136.259 433.197 136.259C435.621 136.259 437.631 135.427 439.294 133.695C440.956 131.998 441.788 129.85 441.788 127.252C441.788 124.688 440.956 122.54 439.294 120.808C437.631 119.111 435.621 118.245 433.197 118.245C432.157 118.245 431.187 118.453 430.287 118.799C429.386 119.145 428.589 119.665 427.896 120.358L427.03 118.591H423.67V142.494ZM432.538 122.436C433.855 122.436 434.929 122.887 435.76 123.787C436.591 124.688 437.007 125.831 437.007 127.252C437.007 128.707 436.591 129.85 435.76 130.716C434.929 131.617 433.855 132.032 432.538 132.032C431.222 132.032 430.148 131.617 429.317 130.716C428.485 129.85 428.069 128.707 428.069 127.252C428.069 125.831 428.485 124.688 429.317 123.787C430.148 122.887 431.222 122.436 432.538 122.436ZM456.79 130.092C456.582 130.785 456.166 131.339 455.543 131.72C454.919 132.102 454.123 132.275 453.222 132.275C451.975 132.275 450.97 131.963 450.208 131.339C449.446 130.716 448.961 129.781 448.788 128.568H461.571C461.571 128.256 461.605 127.979 461.605 127.771C461.605 127.563 461.64 127.356 461.64 127.182C461.64 124.515 460.843 122.367 459.25 120.704C457.656 119.076 455.578 118.245 453.014 118.245C450.381 118.245 448.233 119.076 446.571 120.739C444.908 122.402 444.111 124.584 444.111 127.252C444.111 129.919 444.942 132.102 446.64 133.764C448.337 135.427 450.52 136.259 453.222 136.259C455.404 136.259 457.24 135.704 458.765 134.561C460.289 133.453 461.19 131.963 461.501 130.092H456.79ZM452.876 122.125C453.949 122.125 454.85 122.436 455.612 122.991C456.34 123.58 456.79 124.376 456.963 125.381H448.857C449.1 124.307 449.55 123.51 450.243 122.956C450.901 122.402 451.767 122.125 452.876 122.125ZM472.038 132.587C470.999 132.587 470.202 132.379 469.579 131.928C468.955 131.478 468.643 130.889 468.643 130.162H464.071C464.071 131.928 464.798 133.383 466.322 134.526C467.812 135.704 469.717 136.259 472.038 136.259C474.186 136.259 475.953 135.739 477.269 134.665C478.586 133.626 479.279 132.205 479.279 130.439C479.279 129.018 478.794 127.875 477.824 127.044C476.854 126.212 475.329 125.658 473.32 125.346L471.623 125.104C470.653 124.965 469.96 124.757 469.544 124.48C469.128 124.238 468.921 123.891 468.921 123.406C468.921 122.921 469.128 122.575 469.544 122.298C469.96 122.021 470.549 121.882 471.345 121.882C472.315 121.882 473.078 122.09 473.632 122.436C474.186 122.783 474.463 123.268 474.463 123.857H478.897C478.897 122.229 478.17 120.878 476.784 119.838C475.364 118.799 473.563 118.245 471.345 118.245C469.198 118.245 467.466 118.764 466.218 119.769C464.937 120.774 464.313 122.125 464.313 123.822C464.313 125.312 464.798 126.49 465.768 127.39C466.738 128.291 468.228 128.88 470.168 129.157L471.865 129.399C472.835 129.538 473.563 129.746 473.978 129.988C474.394 130.231 474.602 130.577 474.602 131.028C474.602 131.547 474.359 131.928 473.944 132.205C473.493 132.483 472.87 132.587 472.038 132.587Z" fill="black"/>
</g>
</svg>
