<svg width="302" height="150" viewBox="0 0 302 150" fill="none" xmlns="http://www.w3.org/2000/svg">
<g clip-path="url(#clip0_168_2773)">
<path d="M294.202 54.9465H154.387C153.666 53.7481 152.65 52.2044 152.65 52.2044L152.942 50.6451C152.942 50.6451 157.13 49.7679 157.522 49.5731C157.909 49.379 157.909 47.8188 157.909 47.5248C157.909 47.234 155.28 46.0645 153.818 45.6756L153.623 44.2137C153.623 44.2137 156.841 40.8033 157.13 40.5109C157.426 40.2179 157.229 39.3398 157.036 39.0483C156.841 38.7568 153.527 37.5873 152.942 37.5873C152.831 37.5873 152.2 37.6716 151.461 37.7764C152.045 36.521 153.111 34.1695 153.042 33.8854C152.95 33.5245 149.8 31.6769 148.698 31.3912C148.401 31.2465 148.036 31.1566 147.877 31.1566C147.734 31.1566 146.853 31.7562 145.987 32.3716C146.021 31.6324 146.036 30.7379 145.926 30.5711C145.75 30.306 142.707 29.1662 142.131 28.9514L142.127 28.9133C142.127 28.9133 140.858 28.7194 140.566 28.9133C140.275 29.1099 138.716 33.4939 138.716 33.4939C136.96 31.838 134.819 30.377 134.819 30.377C134.819 30.377 133.746 30.7652 133.454 30.9609C133.159 31.1566 133.454 35.6373 133.454 35.6373L132.285 36.8084C132.285 36.8084 128.874 35.4432 128.58 35.4432C128.29 35.4432 127.608 36.4177 127.705 36.9042C127.802 37.3941 129.653 40.3161 129.653 40.3161L128.678 42.2653C128.678 42.2653 125.558 43.045 125.169 43.1408C124.781 43.2373 124.781 44.6035 125.073 44.895C125.366 45.1882 128.191 46.551 128.191 46.551V48.4045C128.191 48.4045 125.464 50.84 125.169 51.1307C124.876 51.4255 125.366 53.0824 125.657 53.1791C125.949 53.2781 129.456 52.985 129.456 52.985L130.431 54.1519C130.431 54.1519 130.255 54.479 130.009 54.9465H117.908C118.211 53.6201 118.448 52.2094 118.644 50.7582C120.154 45.057 119.803 39.1392 120.291 34.9409C120.704 32.6582 121.299 30.8957 122.271 30.0375C126.017 26.7347 129.763 29.3777 133.948 25.6337C138.133 21.889 140.997 16.8227 139.895 10.2145C139.883 10.0196 139.888 9.823 139.902 9.62726C139.901 9.58515 139.909 9.53804 139.91 9.49593C139.928 9.30018 139.955 9.10444 139.993 8.91036C139.999 8.88392 140.004 8.85996 140.011 8.83352C140.022 8.77488 140.04 8.71628 140.053 8.65846C140.499 7.13216 141.768 5.20361 141.937 4.08366C142.109 3.45265 141.934 3.09504 140.997 3.16772C140.996 3.16855 140.995 3.16855 140.994 3.16938C140.966 3.17103 140.948 3.16524 140.918 3.16772C140.916 3.16938 140.913 3.17103 140.912 3.17268C140.891 3.17351 140.879 3.17101 140.858 3.17184C138.547 5.15241 135.835 5.68017 133.022 5.97091C131.864 6.08901 130.689 6.16911 129.519 6.29466C125.94 6.67458 122.398 7.46997 119.491 11.1032C119.476 11.1379 119.462 11.1742 119.447 11.2097C118.407 12.3156 117.625 14.7653 116.541 13.1961C116.396 12.9301 116.251 12.6088 116.106 12.1984C114.787 8.45361 109.497 6.91081 105.754 6.2509C102.01 5.59015 96.0631 2.50614 96.0631 0.964142C96.0631 0.359566 95.7905 0.0308611 95.4215 0.0482055C95.3933 0.0457277 95.3636 0.0473602 95.3338 0.049012C94.7598 0.0250602 93.9149 0.88486 93.5003 2.95297C92.8396 6.25667 87.5536 26.301 108.478 26.9617C108.478 26.9617 109.578 32.469 107.378 33.5692C107.171 33.6733 106.917 33.7905 106.627 33.9226C101.447 36.1269 97.534 39.2359 98.2584 42.7815C96.3126 42.219 93.919 41.9102 91.4933 41.8994C91.5916 40.5326 91.5585 39.5677 91.3075 39.3804C90.2239 38.5618 86.0958 36.7018 86.0958 36.7018C86.0958 36.7018 81.5062 42.566 78.5329 45.5442C75.7479 44.3327 72.2368 43.3563 68.4096 42.7997C67.7926 40.6448 66.9089 37.622 66.0581 34.936C67.1368 31.5729 68.5045 29.4899 69.8722 29.6261C72.9927 29.9383 73.6162 31.6018 74.2398 32.1214C74.8624 32.6424 76.0081 32.3302 76.1104 29.6261C76.1104 28.6903 77.2263 28.498 77.9811 30.1489C78.7097 31.7373 79.2309 34.201 78.1894 37.1123C77.7475 38.1811 77.7755 38.7758 79.0226 37.8409C80.2699 36.9033 83.4925 31.497 80.6852 26.922C82.0382 26.9511 82.0382 24.4558 80.0097 23.7547C78.8393 23.2865 78.1373 23.2865 77.0462 23.179C76.52 23.1278 76.0931 22.0781 77.6706 22.0351C80.3995 21.9607 80.1666 20.8921 79.0226 20.3716C77.878 19.8513 68.7284 17.4603 63.7373 26.61C63.0096 27.5465 62.8024 28.6903 62.2812 28.2749C61.76 27.8578 61.7088 24.7953 59.2674 21.5164C57.8088 19.5574 54.0673 16.2124 49.7023 16.7319C46.0617 17.4603 42.3186 19.4359 43.8771 20.5799C44.9186 21.3074 45.1242 21.5164 42.9413 23.5953C40.7584 25.6749 41.0706 27.0271 41.6942 27.0271C42.3186 27.0271 43.5664 25.4669 44.8137 25.9863C42.1104 29.1058 43.6036 34.6776 44.7087 35.4488C45.3843 35.9189 45.6454 35.449 45.438 33.266C45.2292 31.0824 46.0617 26.2994 49.4926 25.9872C52.4048 25.7798 52.0925 26.7156 51.5738 27.3384C51.0526 27.9635 50.7413 28.4831 51.5738 28.4831C52.3288 28.4831 55.0561 27.2104 56.9531 30.4877L54.1697 42.9203C53.6388 43.0137 53.1108 43.1167 52.5865 43.2333C50.9347 43.2952 48.3941 43.4389 47.3311 43.7619C47.3311 43.7619 34.7416 33.3329 33.5678 33.1942C32.4059 33.0554 28.3927 33.6039 28.2308 34.9608C28.0688 36.3194 34.5103 51.8493 34.5103 51.8493L27.1653 57.1583C27.1653 57.1583 11.8221 53.27 10.6567 53.132C9.48062 52.9916 6.31897 56.3862 7.32329 57.8844C8.33093 59.3734 20.8396 70.483 20.8396 70.483L19.0523 78.8513C19.0523 78.8513 2.51724 81.6883 1.22137 82.5662C-0.0654245 83.4402 0.930643 88.3709 2.3694 89.5733C3.80155 90.7785 19.8815 95.089 19.8815 95.089L22.4634 103.297L10.6741 115.97C10.6741 115.97 11.3266 120.504 12.8388 121.034C14.3594 121.554 31.7988 117.797 31.7988 117.797L37.7775 124.003C37.7775 124.003 34.094 139.307 33.8536 140.363C33.3011 142.806 36.9542 144.159 38.5954 143.667C40.2356 143.174 52.7566 130.932 52.7566 130.932L59.7241 132.105C59.7241 132.105 64.1519 148.084 64.8002 149.196C65.461 150.301 71.0343 149.939 71.9354 149.01C72.8356 148.083 74.8518 131.159 74.8518 131.159L82.8466 130.395L95.0861 140.434C95.0861 140.434 100.081 138.284 100.244 136.929C100.404 135.578 93.7927 121.397 93.7927 121.397L98.1742 117.802C98.1742 117.802 112.074 120.493 113.287 120.289C114.27 120.129 116.21 116.409 116.318 114.421H294.202C298.341 114.421 301.69 110.288 301.69 105.193V64.1754C301.69 59.0785 298.341 54.9465 294.202 54.9465Z" stroke="white" stroke-width="0.5" stroke-linejoin="round"/>
<path d="M148.256 46.276C148.256 51.5331 144.188 55.794 139.171 55.794C134.152 55.794 130.085 51.5331 130.085 46.276C130.085 41.0189 134.152 36.758 139.171 36.758C144.188 36.758 148.256 41.0189 148.256 46.276Z" fill="#B3DCF5"/>
<path d="M144.29 39.5343C138.947 38.0773 132.045 47.018 140.012 53.627C138.557 54.889 133.502 55.6663 131.365 50.7106C129.225 45.7551 134.086 31.3725 144.29 39.5343Z" fill="#4DC5EA"/>
<path d="M134.863 30.4982C134.863 30.4982 136.998 31.9551 138.75 33.6069C140.109 33.8028 142.053 29.0396 142.053 29.0396C142.053 29.0396 145.746 30.3999 145.939 30.6923C146.133 30.9831 145.939 33.5111 145.939 33.5111C145.939 33.5111 147.69 31.4687 148.469 31.4687C149.244 31.4687 152.938 33.6071 153.036 33.9969C153.132 34.3858 151.092 38.6617 151.092 38.6617C151.092 38.6617 152.352 37.6895 152.938 37.6895C153.52 37.6895 156.825 38.855 157.019 39.1465C157.214 39.4372 157.408 40.3126 157.113 40.6043C156.824 40.8958 153.616 44.2978 153.616 44.2978L153.812 45.7555C155.268 46.1428 157.892 47.3092 157.892 47.5998C157.892 47.8921 157.892 49.4483 157.504 49.6424C157.113 49.8372 152.938 50.711 152.938 50.711L152.645 52.2662C152.645 52.2662 155.076 55.9566 155.076 56.3455C155.076 56.7354 154.297 57.9999 153.812 57.9999C153.325 57.9999 149.049 56.7354 148.663 56.1514L148.37 57.2226C148.37 57.2226 148.469 61.8221 148.175 62.2103C147.886 62.5994 145.454 62.6639 143.412 62.3706L142.151 60.8171C142.151 60.8171 141.275 63.0537 140.885 63.2478C140.498 63.4403 136.612 63.3445 135.834 63.0537C135.057 62.7606 134.957 59.8466 134.957 59.8466C134.957 59.8466 133.695 60.6239 133.208 60.7188C132.723 60.8171 130.487 60.1365 129.614 59.5534C128.739 58.9695 131.849 54.9852 131.849 54.9852C131.849 54.9852 140.4 59.2628 145.651 53.4333C150.898 47.5998 148.077 36.7165 138.262 35.5512C137.974 35.5512 133.403 30.9831 134.863 30.4982Z" fill="#4DC5EA"/>
<path d="M145.613 46.5535C145.141 50.9037 141.569 54.3064 137.295 53.6283C133.611 53.041 131.703 49.4442 132.174 45.0956C132.647 40.7454 136.592 37.4286 140.308 38.0786C143.983 38.722 146.083 42.2058 145.613 46.5535ZM153.912 48.2821C154.301 47.9906 154.69 46.6294 154.398 46.3395C154.107 46.0472 150.123 44.6869 150.123 44.6869L149.928 42.257C149.928 42.257 153.329 39.5355 153.62 39.1473C153.912 38.7583 153.233 37.6904 152.941 37.6904C152.649 37.6904 148.762 38.2735 148.762 38.2735L147.11 36.5233C147.11 36.5233 149.149 32.3458 149.149 31.956C149.149 31.5662 148.178 31.2763 147.889 31.2763C147.595 31.2763 144.194 33.8037 144.194 33.8037C143.806 33.608 142.544 33.413 142.544 33.413L142.155 29.0405C142.155 29.0405 140.889 28.8464 140.598 29.0405C140.308 29.2355 138.754 33.608 138.754 33.608C138.754 33.608 137.295 33.608 137.002 33.8037C136.712 33.9978 134.867 30.499 134.867 30.499C134.867 30.499 133.797 30.8865 133.506 31.0822C133.212 31.2763 133.506 35.7453 133.506 35.7453L132.34 36.9133C132.34 36.9133 128.939 35.5521 128.644 35.5521C128.355 35.5521 127.676 36.5235 127.772 37.0091C127.869 37.4972 129.715 40.4111 129.715 40.4111L128.743 42.3552C128.743 42.3552 125.631 43.1316 125.243 43.2283C124.856 43.3248 124.856 44.6869 125.147 44.9784C125.44 45.2699 128.257 46.6294 128.257 46.6294V48.4771C128.257 48.4771 125.537 50.9068 125.243 51.1967C124.952 51.4907 125.44 53.1436 125.731 53.2394C126.021 53.3384 129.519 53.0453 129.519 53.0453L130.491 54.2097C130.491 54.2097 128.452 58.0008 128.452 58.3881C128.452 58.7771 129.617 59.5542 129.617 59.5542L132.923 57.1254L134.867 57.611C134.867 57.611 134.867 62.4682 135.062 62.7614C135.254 63.0545 136.615 63.3453 136.811 63.0545C137.002 62.7614 138.56 58.3881 138.56 58.3881L140.308 58.2907C140.308 58.2907 143.029 62.1776 143.416 62.3717C143.806 62.5665 144.746 62.3072 144.68 61.596C144.652 61.2905 144.194 56.8346 144.194 56.8346L145.847 55.2793C145.847 55.2793 150.026 56.9304 150.416 56.8346C150.801 56.7363 151.096 55.4743 151.096 55.4743L148.566 51.4909L149.443 49.2551C149.443 49.2551 153.524 48.5754 153.912 48.2821Z" fill="#1C63B7"/>
<path d="M301.275 64.2058C301.275 59.123 297.935 55.0016 293.809 55.0016H86.0085C81.8848 55.0016 78.5405 59.123 78.5405 64.2058V105.111C78.5405 110.194 81.8848 114.315 86.0085 114.315H293.809C297.935 114.315 301.275 110.194 301.275 105.111V64.2058Z" fill="#1C63B7"/>
<path d="M119.478 85.6112C117.962 85.0934 105.849 80.9143 105.849 80.9143L102.767 73.6964C102.767 73.6964 111.35 64.4502 111.941 62.8026C112.53 61.1623 110.212 57.4596 109.057 57.3225C107.884 57.183 93.7208 60.2942 93.7208 60.2942L89.5408 55.6854C89.5408 55.6854 92.5637 40.2919 91.4719 39.4783C90.3914 38.6623 86.2743 36.8065 86.2743 36.8065C86.2743 36.8065 77.4484 48.0845 76.3681 47.2718C75.2779 46.4508 69.4453 45.7562 69.4453 45.7562C69.4453 45.7562 65.0421 29.8282 63.9603 29.009C62.8741 28.1945 57.7345 28.268 57.7345 28.268L54.3746 43.2776C54.3746 43.2776 49.2456 43.352 47.6143 43.8484C47.6143 43.8484 35.0595 33.4466 33.8892 33.3078C32.7312 33.17 28.728 33.7176 28.567 35.0704C28.4058 36.4257 34.8291 51.9126 34.8291 51.9126L27.5039 57.2069C27.5039 57.2069 12.2021 53.3301 11.0408 53.1921C9.86801 53.0526 6.71546 56.437 7.7173 57.9312C8.72163 59.417 21.1964 70.4952 21.1964 70.4952L19.414 78.8419C19.414 78.8419 2.92446 81.6708 1.63106 82.5471C0.348401 83.4175 1.34116 88.3343 2.77662 89.5335C4.20465 90.7362 20.2408 95.035 20.2408 95.035L22.8153 103.22L11.0582 115.859C11.0582 115.859 11.709 120.381 13.2171 120.909C14.7335 121.428 32.125 117.681 32.125 117.681L38.0873 123.87C38.0873 123.87 34.4145 139.133 34.1749 140.186C33.6241 142.622 37.2672 143.971 38.9033 143.481C40.5386 142.989 53.0249 130.78 53.0249 130.78L59.9735 131.951C59.9735 131.951 64.3897 147.885 65.0365 148.994C65.6956 150.096 71.2539 149.735 72.1527 148.809C73.0504 147.884 75.0606 131.007 75.0606 131.007L83.0333 130.244L95.2396 140.256C95.2396 140.256 100.222 138.111 100.384 136.76C100.544 135.414 93.9496 121.271 93.9496 121.271L98.3195 117.686C98.3195 117.686 112.182 120.369 113.391 120.166C114.59 119.972 117.222 114.458 116.184 113.302C115.133 112.153 105.257 102.418 105.257 102.418L106.024 95.9974C106.024 95.9974 117.847 92.6152 119.139 91.7396C120.426 90.8658 120.991 86.134 119.478 85.6112Z" fill="#B3DCF5"/>
<path d="M79.8194 46.2023C67.5173 40.0516 36.9853 38.5137 33.253 63.7755C33.0323 65.5323 29.8591 71.9555 31.9331 73.4396L33.0323 74.9784C33.0323 74.9784 30.3961 81.5676 33.6906 86.6198C27.7588 91.672 27.1014 100.457 29.518 106.609C31.9331 112.759 37.6395 120.481 53.4591 122.644C68.3811 124.683 83.4171 117.632 90.1566 103.842C93.4818 97.3691 98.8775 90.7247 101.357 88.5986C110.688 79.8884 116.371 64.4502 117.222 55.0009C121.833 45.3359 118.478 33.4624 122.214 30.1661C125.946 26.8714 129.681 29.5069 133.856 25.7738C138.03 22.039 140.885 16.9859 139.786 10.3967C139.566 6.88318 143.739 3.14834 140.885 3.36802C134.735 8.63993 125.728 3.58938 119.577 11.2763C118.7 13.4732 117.382 16.1096 116.063 12.3748C114.746 8.63995 109.472 7.10207 105.737 6.4438C102.005 5.78471 96.0743 2.70896 96.0743 1.17191C96.0743 -0.366789 94.3177 -0.145453 93.6569 3.14917C92.9978 6.44379 87.7267 26.4329 108.594 27.0919C108.594 27.0919 109.692 32.5835 107.497 33.682C105.299 34.7796 97.832 37.4152 98.4902 43.1274C92.7807 41.1492 83.1139 42.0289 79.8194 46.2023Z" fill="#26B9E0"/>
<path d="M116.859 58.716C120.436 50.024 118.616 33.4551 122.348 30.1597C126.084 26.865 129.819 29.5006 133.993 25.7674C138.165 22.0326 141.022 16.9804 139.924 10.3904C139.702 6.87605 143.877 3.14121 141.022 3.36173C134.87 8.63278 125.865 3.58225 119.714 11.27C118.835 13.4669 117.519 16.1024 116.2 12.3684C114.883 8.6336 109.609 7.09572 105.877 6.43745C102.142 5.77838 96.2109 2.70348 96.2109 1.1656C96.2109 -0.372267 94.4532 -0.152573 93.7942 3.14287C93.1351 6.43749 87.864 26.4265 108.731 27.0855C108.731 27.0855 109.83 32.5772 107.633 33.6756C105.436 34.7732 97.9676 37.4097 98.6275 43.121C92.9162 41.1437 83.2512 42.0225 79.9567 46.195C67.6545 40.0452 37.1232 38.5073 33.3894 63.7682C33.168 65.5259 29.2878 71.1768 31.8828 73.667L33.03 74.9777C33.03 74.9777 30.5333 81.5612 33.8279 86.6125C31.4666 87.1981 28.5766 93.3669 28.1992 97.4635C31.55 113.532 48.4815 115.547 53.6567 115.869C58.6329 116.181 67.1358 116.387 75.9516 110.787C79.4776 108.405 84.3513 103.217 84.9732 98.966C86.0098 100.003 90.7779 107.781 93.2672 108.196C95.7557 108.611 97.3119 104.152 102.186 97.4123C107.06 90.6719 109.236 90.3605 110.17 89.4281C111.101 88.4948 107.888 88.4948 105.918 88.4948C102.081 88.702 97.0004 88.2875 95.5492 85.5917C104.672 81.2357 114.732 65.0599 116.859 58.716Z" fill="#1C63B7"/>
<path d="M79.9565 46.1959C83.1579 47.3812 86.63 49.8168 90.9852 54.7948C89.1195 51.1383 86.6573 48.0544 84.2456 46.4991C83.2116 45.8325 82.8869 44.8068 87.5649 44.0106C90.9852 43.4258 97.0773 43.1814 102.366 45.9797C103.066 46.5248 101.901 45.3197 101.042 44.4641C100.19 43.6093 99.0214 42.481 100.268 39.6035C101.433 37.6592 102.872 36.1808 107.965 33.5378C102.21 35.7538 97.6224 39.0592 98.4012 42.8701C92.4884 41.1586 82.4327 41.7452 79.9565 46.1959Z" fill="#127BCA"/>
<path d="M32.2971 75.7072C33.365 73.4325 34.7938 72.7792 37.0758 72.7792C39.3563 72.7792 41.9876 73.3922 42.8746 76.9948C43.8079 80.7825 42.8746 85.0714 41.7333 87.4567C40.8009 88.5469 39.7634 87.2494 32.6093 87.4948C31.9873 87 30.2231 79.5774 32.2971 75.7072Z" fill="white"/>
<path d="M32.2971 75.7072C33.365 73.4325 34.7938 72.7792 37.0758 72.7792C39.3563 72.7792 41.9876 73.3922 42.8746 76.9948C43.8079 80.7825 42.8746 85.0714 41.7333 87.4567C40.8009 88.5469 39.7634 87.2494 32.6093 87.4948C31.9873 87 30.2231 79.5774 32.2971 75.7072Z" stroke="#1C63B7" stroke-width="1.004"/>
<path d="M68.0699 90.048C67.7585 84.6556 68.2764 79.7817 71.5967 77.6047C74.4065 76.232 76.6291 76.5549 78.9574 77.9151C81.445 79.3687 81.9133 81.9094 81.9133 83.7759C81.9133 85.4376 80.5124 91.566 80.3061 92.3284C79.9955 93.4698 77.4021 92.0171 73.5657 91.2919C70.0406 90.6699 67.9666 90.9806 68.0699 90.048Z" fill="white"/>
<path d="M68.0699 90.048C67.7585 84.6556 68.2764 79.7817 71.5967 77.6047C74.4065 76.232 76.6291 76.5549 78.9574 77.9151C81.445 79.3687 81.9133 81.9094 81.9133 83.7759C81.9133 85.4376 80.5124 91.566 80.3061 92.3284C79.9955 93.4698 77.4021 92.0171 73.5657 91.2919C70.0406 90.6699 67.9666 90.9806 68.0699 90.048Z" stroke="#1C63B7" stroke-width="1.004"/>
<path d="M37.8959 76.3608C36.4852 76.3608 35.2149 77.233 34.6714 78.5908C34.1668 79.8512 34.1668 82.76 34.7721 83.7288C35.3776 84.6976 36.0837 85.184 37.0898 85.2798C39.5031 85.5104 41.1178 83.9229 41.3201 81.4022C41.5175 78.9377 40.4149 76.3608 37.8959 76.3608Z" fill="#231F20"/>
<path d="M37.8959 76.3608C36.4852 76.3608 35.2149 77.233 34.6714 78.5908C34.1668 79.8512 34.1668 82.76 34.7721 83.7288C35.3776 84.6976 36.0837 85.184 37.0898 85.2798C39.5031 85.5104 41.1178 83.9229 41.3201 81.4022C41.5175 78.9377 40.4149 76.3608 37.8959 76.3608Z" stroke="#231F20" stroke-width="0.957333"/>
<path d="M71.4907 87.7679C70.664 85.9013 71.0967 83.6778 71.8014 82.4786C72.8402 80.7161 74.7944 80.4832 75.6403 80.6129C76.9872 80.8193 78.2707 81.7576 78.4393 83.7234C78.7506 87.3524 77.0905 89.6345 75.1207 89.6345C73.3582 89.6345 72.1134 89.0116 71.4907 87.7679Z" fill="#231F20"/>
<path d="M71.4907 87.7679C70.664 85.9013 71.0967 83.6778 71.8014 82.4786C72.8402 80.7161 74.7944 80.4832 75.6403 80.6129C76.9872 80.8193 78.2707 81.7576 78.4393 83.7234C78.7506 87.3524 77.0905 89.6345 75.1207 89.6345C73.3582 89.6345 72.1134 89.0116 71.4907 87.7679Z" stroke="#231F20" stroke-width="1.004"/>
<path d="M35.2035 64.8503C37.5895 63.917 38.9366 64.1244 40.2854 64.747C41.6333 65.3681 45.9891 65.2649 46.6102 61.2204C46.6102 60.4951 45.8843 60.1838 45.1575 61.013C44.4332 61.8423 42.5691 62.6607 41.1155 62.3617C37.0701 61.5317 33.4392 64.1244 35.2035 64.8503Z" fill="#231F20"/>
<path d="M35.2035 64.8503C37.5895 63.917 38.9366 64.1244 40.2854 64.747C41.6333 65.3681 45.9891 65.2649 46.6102 61.2204C46.6102 60.4951 45.8843 60.1838 45.1575 61.013C44.4332 61.8423 42.5691 62.6607 41.1155 62.3617C37.0701 61.5317 33.4392 64.1244 35.2035 64.8503Z" stroke="#110B09" stroke-width="0.970667"/>
<path d="M83.1051 70.7587C82.4839 68.893 80.7065 67.2115 78.6467 67.0264C77.0841 66.8869 74.8094 66.8199 73.9803 66.0939C73.1493 65.3671 72.942 63.9159 72.2169 64.2266C71.4908 64.537 70.973 68.1669 72.4241 69.2044C73.8761 70.2409 76.2606 70.2409 78.8539 69.6189C81.9644 69.4117 82.6897 71.8383 83.1051 70.7587Z" fill="#231F20"/>
<path d="M83.1051 70.7587C82.4839 68.893 80.7065 67.2115 78.6467 67.0264C77.0841 66.8869 74.8094 66.8199 73.9803 66.0939C73.1493 65.3671 72.942 63.9159 72.2169 64.2266C71.4908 64.537 70.973 68.1669 72.4241 69.2044C73.8761 70.2409 76.2606 70.2409 78.8539 69.6189C81.9644 69.4117 82.6897 71.8383 83.1051 70.7587Z" stroke="#110B09" stroke-width="0.970667"/>
<path d="M66.0466 52.6045C66.0838 51.8321 63.8901 51.0954 61.143 50.9592C58.3985 50.8222 56.142 51.3366 56.1025 52.1089C56.066 52.8811 58.2597 53.6187 61.005 53.7558C63.7497 53.8921 66.006 53.3775 66.0466 52.6045Z" fill="#2056A8"/>
<path d="M58.1171 52.047C59.1279 53.2916 63.3534 53.2883 64.1817 52.2508C63.872 40.6376 66.9825 29.439 70.0937 29.7494C73.2049 30.0616 73.8269 31.7201 74.4488 32.2389C75.0699 32.7574 76.2122 32.4469 76.3138 29.7494C76.3138 28.817 77.427 28.6254 78.1804 30.2713C78.9063 31.8554 79.4259 34.3126 78.3885 37.2158C77.9475 38.2812 77.9755 38.8752 79.2185 37.9417C80.4625 37.0084 83.6769 31.616 80.8777 27.0537C82.2258 27.0825 82.2258 24.594 80.2023 23.8945C79.0359 23.4278 78.3364 23.4278 77.2478 23.3205C76.7225 23.27 76.2965 22.2229 77.8707 22.1798C80.5912 22.1054 80.3592 21.04 79.2185 20.5213C78.0772 20.0028 68.9523 17.6175 63.9752 26.743C63.2493 27.6763 63.0428 28.817 62.5234 28.4024C62.0038 27.987 61.9517 24.9319 59.5177 21.662C58.0625 19.7086 54.3318 16.3736 49.9783 16.8914C46.3475 17.6174 42.6143 19.5889 44.1688 20.7287C45.2078 21.4539 45.4135 21.662 43.2355 23.736C41.0592 25.8089 41.3705 27.1576 41.9925 27.1576C42.6143 27.1576 43.8591 25.6024 45.1037 26.1195C42.408 29.2307 43.8963 34.7883 44.9996 35.5573C45.6727 36.0264 45.9329 35.5573 45.7257 33.3802C45.5174 31.2023 46.3475 26.4326 49.7693 26.1211C52.6733 25.9139 52.3611 26.8472 51.8449 27.4691C51.3246 28.0918 51.0148 28.6105 51.8449 28.6105C52.6733 28.6105 55.8871 27.0544 57.7537 31.7201C59.6218 36.3873 59.0504 47.3805 58.1171 52.047Z" fill="#26B9E0"/>
<path d="M38.2041 79.1634C38.1662 78.8008 38.2041 77.5057 38.7237 77.4009C39.2407 77.2977 39.9668 77.8155 39.9668 78.1268C39.9668 78.4383 38.7237 79.3707 38.2041 79.1634Z" fill="white"/>
<path d="M75.5164 83.4386C75.338 82.7201 75.7154 81.5499 75.9864 81.5077C76.2589 81.4663 77.4037 82.2204 77.2475 82.5326C77.16 82.7069 75.8344 83.423 75.5164 83.4386Z" fill="white"/>
<path d="M80.6221 99.1744C82.7984 97.2046 85.9955 96.7611 87.3625 97.308C88.9176 97.9298 88.8152 96.0632 87.7778 95.7519C86.7414 95.4405 83.2139 95.4405 80.6221 99.1744Z" fill="#0E88D3"/>
<path d="M139.933 9.81645C139.855 7.56167 143.802 3.14133 140.948 3.36185C134.796 8.6329 125.791 3.58237 119.641 11.2701C118.39 12.4611 117.529 15.7978 116.126 12.3686C114.891 9.35062 109.535 7.09584 105.802 6.43757C102.068 5.77849 96.1374 2.7036 96.1374 1.16573C96.1374 -0.372144 94.3799 -0.152453 93.7217 3.14299C94.2039 5.77274 97.3095 9.07311 102.915 9.81645C115.616 11.5022 115.734 15.9184 117.12 16.115C118.754 16.3495 120.025 11.6054 126.011 10.6721C131.347 9.84121 138.844 12.2273 139.933 9.81645Z" fill="#127BCA"/>
<path d="M133.521 64.5255C133.138 65.1385 132.885 65.7273 132.764 66.2929C132.732 66.4309 132.747 66.531 132.81 66.5912C132.885 66.6374 133.001 66.63 133.153 66.5689C133.873 66.2632 134.463 65.8727 134.921 65.3977C135.334 64.9385 135.541 64.5181 135.541 64.1357C135.541 63.6765 135.312 63.4468 134.853 63.4468C134.424 63.4468 133.98 63.8062 133.521 64.5255ZM126.956 75.2692C126.741 75.1164 126.55 74.9942 126.381 74.9016C126.213 74.8107 126.068 74.734 125.945 74.6729C125.655 74.5506 125.356 74.4581 125.05 74.397C124.743 74.3359 124.422 74.2978 124.086 74.2823C122.768 74.2516 122.112 74.6876 122.112 75.5905C122.112 76.4171 122.785 76.8617 124.132 76.9228C124.606 76.9376 125.165 76.8078 125.807 76.5321C126.374 76.2875 126.787 76.0118 127.047 75.7061C127.185 75.5533 127.154 75.4072 126.956 75.2692ZM136.367 76.8533C135.526 77.6949 134.454 78.1162 133.153 78.1162C132.404 78.1162 131.703 77.9981 131.053 77.7602C130.402 77.5231 129.733 77.1523 129.044 76.6468C128.86 76.5089 128.708 76.5089 128.585 76.6468C128.172 77.106 127.552 77.4884 126.725 77.795C125.868 78.1004 125.019 78.2152 124.177 78.1392C121.897 77.9866 120.727 77.1597 120.666 75.6599C120.634 74.8794 120.971 74.2212 121.676 73.6851C122.333 73.1961 123.044 72.9277 123.81 72.8823C124.59 72.8361 125.424 72.9813 126.312 73.3183C127.032 73.5629 127.507 73.7998 127.736 74.0295C127.827 74.122 127.92 74.0839 128.011 73.9146C128.088 73.7775 128.21 73.4827 128.378 73.0309C128.547 72.58 128.76 71.9639 129.021 71.1833C129.174 70.7547 129.32 70.3259 129.457 69.8974C129.595 69.4695 129.733 69.0409 129.87 68.6122C129.947 68.3975 129.87 68.2677 129.642 68.2215C129.105 68.1151 128.608 67.8928 128.149 67.5558C127.644 67.1735 127.391 66.7143 127.391 66.1782C127.391 65.8569 127.456 65.5661 127.586 65.306C127.716 65.0458 127.889 64.9236 128.103 64.9385C128.256 64.9543 128.363 65.031 128.424 65.168C128.455 65.2607 128.494 65.3524 128.54 65.4439C128.585 65.5357 128.623 65.6356 128.654 65.7422C128.792 66.0634 129.236 66.3698 129.986 66.6606C130.292 66.7828 130.475 66.7291 130.537 66.5003C130.781 65.719 131.271 64.8551 132.006 63.906C132.297 63.5386 132.69 63.2248 133.188 62.9646C133.685 62.7045 134.179 62.5746 134.669 62.5746C135.143 62.5746 135.556 62.7119 135.909 62.9876C136.383 63.3702 136.62 63.8905 136.62 64.5487C136.62 64.9468 136.505 65.3522 136.275 65.7652C135.617 66.9744 134.363 67.8243 132.51 68.3133C132.358 68.3595 132.251 68.5281 132.19 68.8187C132.006 69.8593 131.684 71.0074 131.226 72.262C130.751 73.6247 130.322 74.6035 129.94 75.2007C129.848 75.3691 129.848 75.4839 129.94 75.5449C130.399 75.9126 130.919 76.219 131.501 76.4635C132.235 76.7699 133.016 76.907 133.842 76.8764C134.133 76.8617 134.508 76.7237 134.967 76.4635C135.518 76.157 135.939 75.797 136.229 75.384C136.306 75.2922 136.367 75.3154 136.413 75.4525C136.521 75.7135 136.559 76.0118 136.528 76.3479C136.498 76.6088 136.444 76.7765 136.367 76.8533Z" fill="#CCEFFC"/>
<path d="M139.706 70.8514C139.33 71.1345 139.035 71.5054 138.822 71.9646C138.332 72.9896 138.087 73.8461 138.087 74.535C138.087 75.0255 138.241 75.1635 138.546 74.9479C139.571 74.3062 140.353 73.5248 140.888 72.6064C141.225 72.0406 141.393 71.5739 141.393 71.2073C141.393 70.687 141.171 70.426 140.727 70.426C140.421 70.426 140.08 70.5671 139.706 70.8514ZM145.227 76.8549C144.585 77.4967 143.834 77.8948 142.977 78.0477C142.303 78.1847 141.546 78.2541 140.704 78.2541C138.944 78.2541 137.705 77.9634 136.985 77.3827C136.159 76.6931 135.746 75.7442 135.746 74.535C135.746 73.4802 136.053 72.3478 136.663 71.1388C137.107 70.2657 137.727 69.6149 138.524 69.1861C139.181 68.8196 139.863 68.6354 140.567 68.6354C140.965 68.6354 141.278 68.689 141.508 68.7964C142.395 69.1796 142.839 69.9222 142.839 71.0232C142.839 71.2675 142.816 71.5277 142.77 71.8027C142.648 72.5379 142.097 73.4331 141.117 74.4894C140.811 74.8265 140.509 75.1296 140.211 75.3955C139.912 75.6648 139.617 75.906 139.327 76.1191C139.251 76.1967 139.213 76.2413 139.213 76.257C139.213 76.3188 139.305 76.3941 139.488 76.4866C140.161 76.8698 141.225 76.992 142.679 76.8549C143.627 76.7616 144.431 76.2717 145.089 75.3848C145.166 75.2922 145.227 75.3154 145.273 75.4534C145.379 75.7142 145.418 76.0134 145.387 76.3486C145.357 76.6096 145.304 76.7781 145.227 76.8549Z" fill="#CCEFFC"/>
<path d="M159.922 74.5792C159.156 75.9106 158.452 76.806 157.809 77.2652C156.968 77.878 156.164 78.1837 155.399 78.1837C155.123 78.1837 154.863 78.1383 154.619 78.0457C153.701 77.7244 153.211 76.9893 153.15 75.8421C153.12 75.3367 153.177 74.7478 153.322 74.0747C153.468 73.4007 153.693 72.6285 153.999 71.7563C154.489 70.4093 154.902 69.5056 155.239 69.0464C155.422 68.7871 155.652 68.6566 155.928 68.6566C156.095 68.6566 156.332 68.6873 156.639 68.7484C157.205 68.8557 157.489 69.1307 157.489 69.575C157.489 69.7583 157.427 69.9731 157.305 70.2177C155.912 72.9878 155.216 74.9088 155.216 75.9801C155.216 76.5161 155.453 76.7828 155.928 76.7828C156.233 76.7828 156.567 76.6194 156.926 76.2898C157.286 75.9611 157.703 75.3682 158.177 74.5109C158.422 74.0821 158.614 73.6998 158.751 73.3628C158.889 73.0266 158.988 72.7277 159.049 72.4674C159.095 72.223 159.103 72.062 159.073 71.9851L158.774 71.6869C158.498 71.3805 158.368 71.0212 158.384 70.6075C158.399 70.1185 158.563 69.7089 158.877 69.3801C159.191 69.0507 159.585 68.8863 160.06 68.8863C160.932 68.8863 161.346 69.4141 161.299 70.4703C161.253 71.6943 160.795 73.0645 159.922 74.5792Z" fill="#CCEFFC"/>
<path d="M166.809 65.6263C166.625 65.6263 166.465 65.5957 166.327 65.5346C165.837 65.32 165.592 64.9755 165.592 64.5014C165.592 64.18 165.699 63.82 165.914 63.4227C166.112 63.009 166.518 62.8024 167.131 62.8024C167.283 62.8024 167.429 62.8256 167.567 62.8718C168.056 63.0857 168.302 63.4534 168.302 63.9737C168.302 64.2643 168.24 64.517 168.118 64.7309C167.751 65.3281 167.314 65.6263 166.809 65.6263ZM168.783 76.8523C168.141 77.4948 167.391 77.8847 166.533 78.0227C166.35 78.0531 166.163 78.0763 165.971 78.0919C165.779 78.1068 165.577 78.1151 165.363 78.1151C164.383 78.1151 163.702 77.9846 163.32 77.7244C163.09 77.556 162.906 77.3991 162.768 77.2537C162.631 77.1083 162.52 76.9555 162.436 76.7945C162.353 76.6342 162.298 76.4541 162.276 76.2551C162.252 76.056 162.241 75.8191 162.241 75.5432C162.256 75.3754 162.329 75.0269 162.459 74.4992C162.589 73.9714 162.784 73.271 163.044 72.3981C163.197 71.9083 163.346 71.4193 163.492 70.9288C163.637 70.4398 163.787 69.9499 163.939 69.4603C164.032 69.0778 164.207 68.8482 164.468 68.7714C165.049 68.603 165.592 68.5872 166.098 68.7252C166.235 68.7565 166.346 68.8557 166.43 69.0241C166.514 69.1927 166.542 69.3678 166.511 69.552C166.22 70.4092 165.922 71.3046 165.616 72.2378C165.309 73.1711 164.98 74.1507 164.628 75.1764C164.506 75.5894 164.445 75.8802 164.445 76.0486C164.445 76.2476 164.498 76.393 164.605 76.4848C164.911 76.7449 165.462 76.8754 166.258 76.8754C166.548 76.8754 166.924 76.7375 167.383 76.4616C167.644 76.3087 167.881 76.1444 168.095 75.9677C168.309 75.7925 168.493 75.5977 168.646 75.3829C168.722 75.2913 168.783 75.3135 168.83 75.4514C168.936 75.7116 168.975 76.0107 168.944 76.3468C168.914 76.607 168.859 76.7754 168.783 76.8523Z" fill="#CCEFFC"/>
<path d="M174.771 76.8537C174.128 77.4962 173.378 77.8862 172.522 78.0241C172.031 78.1166 171.572 78.1619 171.144 78.1619C170.455 78.1619 169.881 78.0555 169.422 77.8406C168.81 77.5045 168.504 76.9306 168.504 76.1186C168.504 76.0121 168.508 75.8899 168.515 75.752C168.524 75.614 168.535 75.4529 168.55 75.2696C168.673 74.0457 169.086 72.1931 169.79 69.7135C170.356 67.7248 170.883 66.11 171.374 64.8703C171.893 63.4927 172.628 62.8428 173.577 62.9187C173.899 62.9501 174.163 63.0988 174.369 63.3664C174.576 63.6347 174.679 63.9751 174.679 64.3881C174.679 64.6483 174.633 64.924 174.541 65.2148C174.22 66.1638 173.692 67.1276 172.958 68.1071C172.866 68.2302 172.704 68.5514 172.476 69.071C171.618 71.6421 171.021 73.6855 170.685 75.201C170.577 75.6296 170.525 75.9278 170.525 76.0963C170.525 76.2953 170.577 76.4481 170.685 76.5555C170.899 76.7694 171.42 76.8769 172.246 76.8769C172.536 76.8769 172.912 76.7389 173.371 76.463C173.631 76.3102 173.868 76.1458 174.082 75.97C174.297 75.7941 174.48 75.5991 174.633 75.3843C174.71 75.2928 174.771 75.3158 174.817 75.4529C174.924 75.7139 174.962 76.0121 174.932 76.3483C174.901 76.6093 174.848 76.7768 174.771 76.8537Z" fill="#CCEFFC"/>
<path d="M180.765 76.8537C180.124 77.4962 179.373 77.8862 178.516 78.0241C178.026 78.1166 177.567 78.1619 177.14 78.1619C176.451 78.1619 175.877 78.0555 175.417 77.8406C174.805 77.5045 174.499 76.9306 174.499 76.1186C174.499 76.0121 174.503 75.8899 174.511 75.752C174.519 75.614 174.53 75.4529 174.545 75.2696C174.668 74.0457 175.081 72.1931 175.785 69.7135C176.352 67.7248 176.878 66.11 177.369 64.8703C177.889 63.4927 178.624 62.8428 179.574 62.9187C179.894 62.9501 180.158 63.0988 180.365 63.3664C180.571 63.6347 180.675 63.9751 180.675 64.3881C180.675 64.6483 180.629 64.924 180.537 65.2148C180.215 66.1638 179.687 67.1276 178.954 68.1071C178.862 68.2302 178.7 68.5514 178.47 69.071C177.614 71.6421 177.016 73.6855 176.68 75.201C176.573 75.6296 176.52 75.9278 176.52 76.0963C176.52 76.2953 176.573 76.4481 176.68 76.5555C176.894 76.7694 177.415 76.8769 178.242 76.8769C178.53 76.8769 178.908 76.7389 179.366 76.463C179.625 76.3102 179.864 76.1458 180.076 75.97C180.293 75.7941 180.475 75.5991 180.629 75.3843C180.705 75.2928 180.765 75.3158 180.813 75.4529C180.919 75.7139 180.958 76.0121 180.927 76.3483C180.896 76.6093 180.843 76.7768 180.765 76.8537Z" fill="#CCEFFC"/>
<path d="M187.445 71.137C187.445 70.8768 187.187 70.7389 186.666 70.724C186.206 70.6927 185.648 70.8843 184.989 71.2973C184.362 71.711 183.857 72.2082 183.475 72.7896C182.786 73.8765 182.443 74.7951 182.443 75.5442C182.443 76.2643 182.717 76.6236 183.27 76.6236C183.558 76.6236 183.904 76.4245 184.302 76.0264C184.376 75.9504 184.497 75.8167 184.656 75.6251C184.817 75.4335 185.028 75.1849 185.288 74.8785C185.991 74.0219 186.703 72.821 187.422 71.2749C187.438 71.2443 187.445 71.1981 187.445 71.137ZM192.406 76.8531C191.763 77.4958 191.012 77.8856 190.155 78.0235C189.973 78.0542 189.78 78.0772 189.581 78.0929C189.383 78.1078 189.176 78.116 188.961 78.116C187.89 78.116 187.16 77.9739 186.769 77.6915C186.378 77.4083 186.185 77.0366 186.185 76.5774C186.185 76.3634 186.245 76.0264 186.367 75.5672C186.383 75.507 186.383 75.4606 186.367 75.4301C186.337 75.4144 186.294 75.4301 186.241 75.4755C186.188 75.5219 186.146 75.5755 186.115 75.6366C185.885 76.095 185.473 76.5929 184.876 77.1281C184.019 77.8939 183.199 78.2762 182.419 78.2762C181.669 78.2762 181.088 78.0235 180.675 77.5188C180.247 77.0447 180.032 76.4245 180.032 75.6597C180.032 74.6646 180.337 73.5859 180.95 72.4222C181.562 71.2443 182.419 70.3482 183.521 69.7362C184.348 69.2778 185.18 69.04 186.023 69.0251C186.65 69.0094 187.224 69.1399 187.745 69.4149C187.989 69.5529 188.157 69.5371 188.249 69.3687C188.357 69.201 188.448 69.0788 188.526 69.0019C188.648 68.8797 188.77 68.7954 188.892 68.7492C189.046 68.7039 189.337 68.726 189.765 68.8177C190.194 68.8953 190.461 68.9789 190.568 69.0705C190.722 69.2391 190.745 69.4686 190.637 69.7594C190.424 70.2186 189.994 71.1674 189.351 72.6064C189.107 73.172 188.905 73.6733 188.744 74.1095C188.582 74.5455 188.448 74.9247 188.342 75.246C188.234 75.5672 188.182 75.8348 188.182 76.0496C188.182 76.2487 188.234 76.4022 188.342 76.5088C188.586 76.7532 189.1 76.8763 189.879 76.8763C190.171 76.8763 190.545 76.7383 191.005 76.4624C191.264 76.3098 191.501 76.1454 191.717 75.9694C191.93 75.7935 192.114 75.5986 192.268 75.3839C192.344 75.2922 192.406 75.3154 192.452 75.4525C192.558 75.7133 192.597 76.0115 192.565 76.3477C192.535 76.6087 192.482 76.7764 192.406 76.8531Z" fill="#CCEFFC"/>
<path d="M199.178 70.781C198.98 70.682 198.764 70.6316 198.535 70.6316C198.259 70.6316 197.974 70.701 197.674 70.8389C197.375 70.976 197.076 71.1602 196.778 71.3897C196.481 71.6194 196.194 71.8944 195.918 72.2157C195.643 72.5369 195.39 72.8814 195.162 73.249C194.563 74.2128 194.265 74.9941 194.265 75.5904C194.265 76.2487 194.533 76.5783 195.069 76.5783C195.68 76.5783 196.598 75.7284 197.825 74.0295C198.496 73.0813 199.001 72.1778 199.339 71.3205C199.431 71.0603 199.376 70.8811 199.178 70.781ZM204.298 76.8533C203.655 77.4958 202.904 77.8865 202.049 78.0244C201.879 78.0393 201.677 78.0616 201.44 78.093C201.202 78.1236 200.922 78.1541 200.602 78.1847C199.607 78.3227 199.017 78.6126 198.833 79.0576C198.084 80.8169 197.395 81.9492 196.768 82.4547C196.185 82.9751 195.65 83.2351 195.162 83.2351C194.823 83.2351 194.54 83.1352 194.311 82.9371C194.081 82.738 193.968 82.4621 193.968 82.1104C193.968 81.8196 194.055 81.5015 194.23 81.1573C194.407 80.8128 194.731 80.4113 195.208 79.9521C195.62 79.554 196.017 79.2559 196.401 79.0576C196.507 78.9958 196.614 78.9273 196.722 78.8504C196.92 78.4217 197.124 77.9865 197.331 77.5422C197.536 77.0979 197.747 76.6312 197.961 76.1414C198.038 76.0192 198.015 75.9579 197.892 75.9579C197.816 75.9579 197.747 76.0117 197.687 76.1182C197.471 76.4858 197.003 76.9144 196.286 77.4042C195.383 78.0014 194.586 78.269 193.897 78.2079C192.567 78.1004 191.899 77.2819 191.899 75.7516C191.899 74.6348 192.169 73.5784 192.703 72.5833C193.24 71.5888 193.989 70.7463 194.954 70.0583C195.934 69.3696 196.913 69.0251 197.892 69.0251C198.519 69.0251 199.102 69.1854 199.637 69.5075C199.699 69.5991 199.775 69.6446 199.867 69.6446C200.035 69.6446 200.196 69.4762 200.349 69.1401C200.411 69.0326 200.57 68.9178 200.83 68.7956C200.938 68.765 201.16 68.7575 201.496 68.7724C201.833 68.7882 202.07 68.8261 202.208 68.8872C202.468 69.0096 202.6 69.1937 202.6 69.4381C202.6 69.5454 202.148 70.7779 201.243 73.1341C200.432 75.2311 199.95 76.4709 199.798 76.8533C199.782 76.8838 199.775 76.907 199.775 76.9227C199.775 76.9376 199.766 76.9532 199.752 76.9681C199.722 77.0449 199.722 77.0911 199.752 77.106C199.814 77.106 199.867 77.0977 199.913 77.083C200.418 76.9755 201.038 76.907 201.772 76.8765C202.109 76.8765 202.545 76.7005 203.081 76.3479C203.524 76.0422 203.885 75.7209 204.16 75.3839C204.236 75.2922 204.298 75.3154 204.344 75.4525C204.45 75.7135 204.489 76.0117 204.457 76.3479C204.427 76.6089 204.374 76.7764 204.298 76.8533Z" fill="#CCEFFC"/>
<path d="M207.636 70.8514C207.259 71.1345 206.965 71.5054 206.75 71.9646C206.26 72.9896 206.017 73.8461 206.017 74.535C206.017 75.0255 206.17 75.1635 206.474 74.9479C207.5 74.3062 208.281 73.5248 208.817 72.6064C209.154 72.0406 209.322 71.5739 209.322 71.2073C209.322 70.687 209.101 70.426 208.656 70.426C208.35 70.426 208.01 70.5671 207.636 70.8514ZM213.156 76.8549C212.513 77.4967 211.764 77.8948 210.907 78.0477C210.232 78.1847 209.474 78.2541 208.633 78.2541C206.874 78.2541 205.635 77.9634 204.916 77.3827C204.089 76.6931 203.674 75.7442 203.674 74.535C203.674 73.4802 203.982 72.3478 204.593 71.1388C205.038 70.2657 205.656 69.6149 206.453 69.1861C207.11 68.8196 207.792 68.6354 208.497 68.6354C208.893 68.6354 209.207 68.689 209.437 68.7964C210.324 69.1796 210.769 69.9222 210.769 71.0232C210.769 71.2675 210.746 71.5277 210.7 71.8027C210.576 72.5379 210.025 73.4331 209.046 74.4894C208.739 74.8265 208.438 75.1296 208.141 75.3955C207.841 75.6648 207.546 75.906 207.257 76.1191C207.179 76.1967 207.142 76.2413 207.142 76.257C207.142 76.3188 207.234 76.3941 207.416 76.4866C208.089 76.8698 209.154 76.992 210.608 76.8549C211.557 76.7616 212.359 76.2717 213.018 75.3848C213.094 75.2922 213.156 75.3154 213.202 75.4534C213.308 75.7142 213.347 76.0134 213.315 76.3486C213.285 76.6096 213.232 76.7781 213.156 76.8549Z" fill="#CCEFFC"/>
<path d="M143.005 92.8861C143.005 91.2682 142.471 90.2679 141.405 89.8865C141.253 89.8294 141.129 89.8013 141.033 89.8013C140.88 89.8013 140.672 89.992 140.406 90.3728C140.195 90.6776 139.767 91.5721 139.12 93.0579C138.415 94.6197 137.9 95.867 137.578 96.8003C137.253 97.7715 136.849 98.7807 136.363 99.8281C135.877 100.876 135.329 101.98 134.721 103.142L134.663 103.314C134.663 103.485 134.911 103.571 135.405 103.571C137.063 103.533 138.366 103.028 139.319 102.056C139.7 101.676 140.096 101.133 140.505 100.428C140.914 99.724 141.338 98.8477 141.776 97.8003C142.595 95.9338 143.005 94.296 143.005 92.8861ZM141.32 103.942C139.872 105.047 138.396 105.589 136.892 105.57C136.472 105.551 136.139 105.542 135.892 105.542H135.491C135.111 105.523 134.797 105.465 134.549 105.37C133.787 105.085 133.235 105.027 132.892 105.199C131.596 105.828 130.53 106.103 129.692 106.028C127.902 105.875 127.083 105.342 127.235 104.428C127.387 103.533 128.464 103.085 130.463 103.085H130.978C131.13 103.085 131.282 103.095 131.435 103.114C131.739 103.152 131.944 103.137 132.049 103.071C132.153 103.004 132.264 102.838 132.378 102.571C132.587 102.038 132.882 101.285 133.264 100.314C133.645 99.3423 134.12 98.1432 134.692 96.7142C136.196 93.0768 137.195 90.9535 137.691 90.3439C137.825 90.1911 137.891 90.0583 137.891 89.9433C137.891 89.7542 137.682 89.6683 137.263 89.6865C135.529 89.7823 133.654 91.0204 131.635 93.4008C129.692 95.6481 128.578 97.6856 128.293 99.5141C128.255 99.724 128.226 99.9329 128.207 100.143C128.188 100.352 128.169 100.561 128.15 100.771C128.074 101.076 127.912 101.266 127.663 101.342C127.511 101.381 127.397 101.4 127.321 101.4C126.75 101.4 126.368 101.114 126.179 100.542C126.122 100.352 126.092 100.076 126.092 99.714C126.092 98.6288 126.331 97.4568 126.808 96.2006C127.13 95.3433 127.54 94.5289 128.036 93.7574C128.531 92.9862 129.112 92.2394 129.777 91.515C131.416 89.7253 133.378 88.5062 135.663 87.8587C136.825 87.5159 137.958 87.3441 139.063 87.3441C139.348 87.3251 139.538 87.2582 139.634 87.1443C139.729 87.0303 139.829 86.9114 139.934 86.7875C140.038 86.6637 140.181 86.5636 140.362 86.4869C140.543 86.4117 140.862 86.4011 141.32 86.4588C142.043 86.4969 142.405 86.5918 142.405 86.7437C142.405 86.7825 142.386 86.8395 142.348 86.9155C142.309 86.9924 142.257 87.0873 142.19 87.2014C142.124 87.3152 142.052 87.4491 141.977 87.6011C141.881 87.8109 142.024 87.9917 142.405 88.1437C143.243 88.4864 143.966 89.0869 144.576 89.9433C145.337 91.0484 145.719 92.4104 145.719 94.0293C145.719 95.0194 145.557 96.1337 145.233 97.3718C144.453 100.324 143.148 102.514 141.32 103.942Z" fill="white"/>
<path d="M151.099 96.5281C150.633 96.8816 150.266 97.3424 149.999 97.9147C149.39 99.19 149.087 100.256 149.087 101.114C149.087 101.723 149.275 101.895 149.656 101.627C150.932 100.828 151.904 99.8564 152.571 98.7134C152.989 98.0089 153.199 97.4283 153.199 96.9706C153.199 96.3232 152.922 95.9995 152.37 95.9995C151.989 95.9995 151.566 96.1762 151.099 96.5281ZM157.97 103.999C157.17 104.799 156.237 105.294 155.17 105.485C154.332 105.656 153.39 105.741 152.342 105.741C150.152 105.741 148.609 105.379 147.715 104.656C146.686 103.799 146.172 102.618 146.172 101.114C146.172 99.7987 146.553 98.3897 147.314 96.8856C147.866 95.8004 148.638 94.9911 149.628 94.4575C150.447 93.9999 151.295 93.7711 152.17 93.7711C152.666 93.7711 153.056 93.8389 153.342 93.971C154.446 94.4476 154.998 95.3709 154.998 96.7436C154.998 97.0466 154.971 97.3712 154.913 97.7141C154.761 98.6275 154.075 99.7417 152.856 101.056C152.475 101.475 152.099 101.851 151.728 102.185C151.356 102.518 150.99 102.819 150.628 103.084C150.532 103.181 150.485 103.237 150.485 103.256C150.485 103.332 150.6 103.428 150.828 103.543C151.666 104.017 152.989 104.17 154.799 103.999C155.98 103.885 156.979 103.275 157.798 102.171C157.893 102.056 157.97 102.085 158.027 102.256C158.16 102.581 158.208 102.951 158.17 103.371C158.131 103.695 158.065 103.904 157.97 103.999Z" fill="white"/>
<path d="M163.399 100.201C163.399 99.4962 163.295 98.9147 163.085 98.4579C163.028 98.3249 162.952 98.2771 162.857 98.315C162.761 98.315 162.685 98.382 162.628 98.515C162.552 98.6867 162.104 99.3152 161.285 100.4C160.561 101.315 160.076 101.914 159.828 102.2C159.733 102.334 159.685 102.429 159.685 102.486C159.685 102.6 159.8 102.696 160.028 102.772C160.352 102.925 160.571 103.247 160.685 103.743C160.723 103.896 160.923 103.915 161.285 103.8C162.199 103.496 162.837 102.763 163.199 101.601C163.332 101.2 163.399 100.734 163.399 100.201ZM169.799 104C168.998 104.8 168.065 105.286 166.999 105.457C166.445 105.552 165.818 105.581 165.113 105.543C164.294 105.486 163.76 105.371 163.514 105.2C163.417 105.143 163.304 105.134 163.171 105.172C162.714 105.343 162.475 105.439 162.456 105.457C162.113 105.533 161.609 105.59 160.942 105.629C159.552 105.705 158.466 105.343 157.686 104.543C157.571 104.447 157.477 104.438 157.4 104.514C156.829 104.971 156.105 105.286 155.229 105.457C155.057 105.457 154.963 105.4 154.944 105.286C154.811 105 154.744 104.685 154.744 104.343C154.744 104.153 154.782 104.048 154.858 104.029C155.848 103.857 156.819 103.238 157.771 102.172C158.038 101.867 158.361 101.463 158.743 100.958C159.124 100.453 159.562 99.8488 160.057 99.1435C161.161 97.5825 161.799 96.5442 161.971 96.0298C161.99 95.8968 161.946 95.711 161.843 95.4723C161.737 95.2344 161.686 94.9916 161.686 94.7446C161.686 94.6686 161.69 94.5868 161.699 94.5018C161.709 94.4159 161.724 94.3259 161.742 94.2301C161.837 93.7543 162.142 93.3636 162.657 93.0588C163.209 92.7152 163.723 92.5543 164.2 92.5732C165.132 92.6113 165.589 92.9828 165.571 93.6873C165.532 93.9353 165.409 94.259 165.199 94.6587C165.066 94.9254 164.961 95.1402 164.885 95.3012C164.808 95.4631 164.751 95.583 164.713 95.658C164.619 95.9256 164.619 96.0967 164.713 96.1727C164.903 96.3253 165.085 96.5343 165.256 96.8012C165.428 97.0679 165.609 97.3916 165.799 97.7724C166.274 98.7057 166.494 99.6671 166.456 100.657C166.437 100.924 166.384 101.215 166.299 101.529C166.213 101.843 166.075 102.181 165.885 102.543C165.599 103.057 165.371 103.4 165.199 103.572C165.066 103.705 165.074 103.824 165.228 103.929C165.379 104.034 165.856 104.067 166.656 104.029C167.018 104.01 167.484 103.839 168.056 103.514C168.741 103.133 169.265 102.686 169.627 102.172C169.722 102.057 169.799 102.086 169.855 102.257C169.989 102.582 170.037 102.953 169.998 103.371C169.96 103.695 169.894 103.905 169.799 104Z" fill="white"/>
<path d="M188.883 96.8869C188.883 96.5632 188.557 96.3914 187.911 96.3725C187.339 96.3353 186.645 96.5722 185.825 97.0869C185.044 97.6013 184.415 98.2199 183.941 98.9435C183.083 100.296 182.655 101.439 182.655 102.372C182.655 103.267 182.998 103.715 183.684 103.715C184.045 103.715 184.474 103.467 184.968 102.972C185.063 102.877 185.212 102.711 185.41 102.472C185.612 102.234 185.873 101.924 186.197 101.543C187.073 100.477 187.959 98.9823 188.853 97.0587C188.873 97.0208 188.883 96.9629 188.883 96.8869ZM195.053 104C194.253 104.8 193.319 105.286 192.253 105.457C192.025 105.495 191.786 105.524 191.538 105.543C191.292 105.562 191.035 105.572 190.768 105.572C189.434 105.572 188.526 105.396 188.038 105.043C187.553 104.691 187.311 104.229 187.311 103.657C187.311 103.391 187.387 102.972 187.539 102.4C187.559 102.324 187.559 102.268 187.539 102.229C187.502 102.21 187.449 102.229 187.383 102.286C187.316 102.343 187.265 102.41 187.226 102.486C186.941 103.057 186.425 103.677 185.681 104.343C184.615 105.296 183.597 105.771 182.625 105.771C181.691 105.771 180.969 105.457 180.455 104.829C179.922 104.239 179.655 103.467 179.655 102.515C179.655 101.277 180.036 99.9339 180.797 98.4868C181.559 97.0208 182.625 95.9065 183.997 95.1443C185.026 94.5726 186.062 94.2778 187.111 94.2588C187.892 94.2399 188.607 94.4018 189.253 94.7446C189.558 94.9155 189.769 94.8966 189.882 94.6867C190.015 94.4777 190.128 94.3258 190.224 94.23C190.378 94.078 190.53 93.9732 190.683 93.9161C190.872 93.8582 191.233 93.8873 191.768 94.0012C192.299 94.097 192.634 94.202 192.767 94.3159C192.958 94.5257 192.987 94.8114 192.852 95.1723C192.586 95.744 192.053 96.925 191.255 98.7147C190.948 99.4201 190.697 100.044 190.497 100.586C190.296 101.129 190.128 101.601 189.995 102C189.863 102.4 189.797 102.734 189.797 103C189.797 103.248 189.863 103.439 189.995 103.572C190.3 103.877 190.939 104.029 191.91 104.029C192.271 104.029 192.739 103.857 193.311 103.514C193.633 103.324 193.929 103.119 194.196 102.901C194.462 102.682 194.692 102.439 194.881 102.172C194.977 102.057 195.053 102.086 195.11 102.257C195.243 102.582 195.291 102.953 195.253 103.372C195.214 103.696 195.147 103.906 195.053 104Z" fill="white"/>
<path d="M209.161 103.998C208.361 104.799 207.429 105.284 206.361 105.455C206.115 105.493 205.872 105.527 205.635 105.556C205.394 105.584 205.144 105.598 204.877 105.598C203.62 105.598 202.695 105.398 202.106 104.998C201.725 104.732 201.533 104.303 201.533 103.713C201.533 103.408 201.592 102.97 201.705 102.398C201.725 102.323 201.734 102.246 201.734 102.17C201.734 102.113 201.716 102.104 201.677 102.142C201.657 102.16 201.629 102.19 201.592 102.227C201.553 102.265 201.516 102.323 201.477 102.398C199.993 104.532 198.487 105.598 196.963 105.598C196.584 105.598 196.21 105.541 195.849 105.426C194.992 105.122 194.563 104.456 194.563 103.428C194.563 103.332 194.568 103.223 194.579 103.099C194.588 102.975 194.602 102.837 194.621 102.684C194.698 101.79 195.516 98.9798 197.078 94.2572C197.211 93.8377 197.517 93.628 197.992 93.628C198.316 93.628 198.688 93.6948 199.105 93.8286C199.867 94.0566 200.248 94.3622 200.248 94.7421C200.248 94.8569 200.202 95.0278 200.106 95.2566C199.993 95.5235 199.835 95.9132 199.635 96.4279C199.435 96.9423 199.182 97.599 198.877 98.3993C198.154 100.266 197.752 101.418 197.678 101.856C197.639 102.084 197.605 102.279 197.579 102.441C197.549 102.603 197.535 102.732 197.535 102.827C197.535 103.246 197.791 103.456 198.307 103.456C198.592 103.456 198.992 103.199 199.508 102.684C200.115 102.075 200.896 100.704 201.849 98.5702C202.21 97.7518 202.506 97.0422 202.734 96.4426C202.963 95.8422 203.143 95.3325 203.278 94.9139C203.487 94.1713 204.077 93.8476 205.049 93.9427C205.943 94.0376 206.391 94.2572 206.391 94.6001C206.391 94.7899 206.324 95.0097 206.191 95.2566C206.057 95.5043 205.686 96.5517 205.077 98.3993C204.429 100.304 204.057 101.466 203.963 101.884C203.791 102.723 203.82 103.256 204.048 103.484C204.41 103.846 205.067 104.027 206.019 104.027C206.381 104.027 206.848 103.855 207.42 103.513C207.742 103.323 208.038 103.118 208.306 102.898C208.571 102.68 208.8 102.437 208.991 102.17C209.087 102.056 209.161 102.084 209.219 102.256C209.352 102.58 209.4 102.951 209.361 103.37C209.324 103.693 209.257 103.904 209.161 103.998Z" fill="white"/>
<path d="M217.134 103.998C216.335 104.799 215.402 105.284 214.334 105.455C213.801 105.55 213.315 105.598 212.878 105.598C211.753 105.598 210.887 105.408 210.278 105.027C209.345 104.418 208.925 103.475 209.021 102.198C209.04 101.761 209.288 100.733 209.765 99.1128C209.991 98.3134 210.163 97.7038 210.278 97.2852C210.392 96.8663 210.459 96.6375 210.478 96.5996C210.496 96.4657 210.411 96.3708 210.22 96.3138C210.068 96.3138 209.901 96.3088 209.72 96.2998C209.54 96.2899 209.334 96.2757 209.106 96.2561C208.936 96.2189 208.897 96.085 208.993 95.8571C209.03 95.7423 209.074 95.61 209.12 95.4565C209.168 95.3045 209.23 95.1237 209.306 94.9139C209.439 94.7238 209.639 94.628 209.906 94.628H210.363C210.496 94.6471 210.592 94.6562 210.648 94.6562H210.82C210.916 94.6562 211.029 94.562 211.164 94.3712C211.392 93.5527 211.64 92.6996 211.906 91.8141C212.173 90.9295 212.458 89.9913 212.763 89.0003C212.839 88.8102 213.039 88.6673 213.363 88.5715C214.068 88.3817 214.782 88.3817 215.506 88.5715C215.791 88.6673 215.896 88.9532 215.82 89.4288C215.552 90.2291 215.287 91.0427 215.021 91.8712C214.753 92.6996 214.486 93.5527 214.22 94.4283C214.181 94.6 214.258 94.7139 214.449 94.7709C214.677 94.7709 214.934 94.7759 215.219 94.7849C215.506 94.7948 215.809 94.8097 216.135 94.828C216.248 94.8469 216.324 94.9709 216.363 95.1997C216.4 95.4664 216.335 95.7901 216.163 96.1709C216.105 96.3237 215.981 96.4096 215.791 96.4278C215.867 96.4096 215.219 96.3988 213.848 96.3988C213.696 96.3988 213.583 96.4847 213.507 96.6565C213.296 97.418 213.064 98.2374 212.805 99.1128C212.549 99.9891 212.269 100.923 211.962 101.913C211.773 102.541 211.838 103.018 212.163 103.342C212.621 103.798 213.229 104.027 213.992 104.027C214.353 104.027 214.821 103.855 215.391 103.513C215.715 103.323 216.011 103.118 216.276 102.898C216.544 102.68 216.772 102.437 216.964 102.17C217.057 102.056 217.134 102.084 217.192 102.256C217.325 102.58 217.373 102.951 217.334 103.37C217.295 103.693 217.229 103.904 217.134 103.998Z" fill="white"/>
<path d="M227.129 97.4866C227.129 98.8576 226.72 100.372 225.901 102.029C224.664 104.524 222.919 105.771 220.674 105.771C220.024 105.771 219.406 105.657 218.816 105.429C217.482 104.857 216.816 103.791 216.816 102.229C216.816 101.372 217.017 100.325 217.415 99.0864C217.911 97.6204 218.787 96.4112 220.045 95.4581C221.148 94.6206 222.186 94.1828 223.158 94.144C223.635 94.144 223.939 94.2399 224.072 94.4299C224.262 94.6776 224.187 94.8965 223.844 95.0873C223.558 95.2392 223.102 95.7149 222.473 96.5154C221.633 97.5246 221.006 98.4967 220.587 99.4291C219.958 100.839 219.643 101.934 219.643 102.715C219.643 103.285 219.816 103.667 220.16 103.857C220.404 103.991 220.663 104.058 220.93 104.058C221.71 104.058 222.416 103.61 223.045 102.715C223.387 102.239 223.73 101.467 224.072 100.4C224.377 99.5439 224.531 98.9823 224.531 98.7147C224.531 98.4678 224.424 98.2679 224.215 98.1151C223.796 97.8112 223.587 97.3346 223.587 96.6871C223.587 95.468 224.111 94.8584 225.158 94.8584C225.501 94.8584 225.862 94.9633 226.243 95.1723C226.833 95.5151 227.129 96.2866 227.129 97.4866Z" fill="white"/>
<path d="M248.587 104C247.789 104.8 246.854 105.285 245.788 105.456C245.178 105.57 244.589 105.628 244.017 105.628C243.179 105.628 242.465 105.523 241.876 105.313C240.827 104.914 240.303 104.266 240.303 103.371C240.303 102.838 240.54 101.924 241.017 100.628C241.226 100.076 241.427 99.5766 241.617 99.1289C241.808 98.6814 241.989 98.2867 242.159 97.9429C242.407 97.4672 242.533 97.1253 242.533 96.9147C242.533 96.6289 242.389 96.4861 242.102 96.4861C241.837 96.4861 241.447 96.8106 240.932 97.4573C240.588 97.8958 240.213 98.4096 239.804 99.0002C239.394 99.5906 238.941 100.267 238.447 101.029C237.836 101.962 237.353 102.752 236.989 103.4C236.628 104.047 236.389 104.552 236.276 104.914C236.123 105.352 235.58 105.57 234.646 105.57C233.6 105.57 233.152 105.352 233.304 104.914C233.742 103.753 234.22 102.528 234.731 101.243C235.247 99.9574 235.78 98.5913 236.332 97.1435C236.522 96.6108 236.437 96.3151 236.076 96.2573C235.675 96.2012 235.134 96.5819 234.446 97.4012C233.913 98.0107 233.085 99.3429 231.962 101.4C230.952 103.209 230.322 104.399 230.076 104.972C229.923 105.352 229.39 105.542 228.476 105.542C227.563 105.542 227.152 105.313 227.247 104.857C227.704 103.238 228.177 101.547 228.662 99.7856C229.148 98.0247 229.658 96.1721 230.191 94.2296C230.322 93.6581 230.789 93.3723 231.59 93.3723C231.971 93.3723 232.305 93.4392 232.59 93.5722C233.008 93.744 233.219 93.9719 233.219 94.2584C233.219 94.3914 233.18 94.5253 233.104 94.6574C232.913 95.02 232.686 95.5718 232.419 96.3151C232.095 97.2294 231.933 97.7819 231.933 97.9718C231.933 98.2576 232.095 98.1528 232.419 97.6573C234.094 95.125 235.675 93.858 237.161 93.858C237.236 93.858 237.312 93.863 237.39 93.872C237.466 93.8819 237.551 93.8968 237.646 93.9158C238.597 94.0867 239.076 94.6203 239.076 95.5148C239.076 96.1052 238.893 96.8007 238.532 97.6002C238.38 97.9249 238.351 98.0858 238.447 98.0858C238.465 98.0858 238.76 97.724 239.332 97.0006C240.018 96.1243 240.646 95.4487 241.217 94.9721C242.113 94.2487 242.92 93.8869 243.645 93.8869C244.047 93.8869 244.426 93.9827 244.789 94.1725C245.398 94.4575 245.703 94.9721 245.703 95.7147C245.703 96.0393 245.646 96.4002 245.531 96.8006C245.359 97.4672 244.989 98.5534 244.417 100.057C244.112 100.877 243.884 101.496 243.731 101.914C243.579 102.333 243.494 102.562 243.473 102.599C243.416 102.809 243.388 102.971 243.388 103.085C243.388 103.371 243.523 103.59 243.788 103.743C244.149 103.971 244.702 104.066 245.446 104.028C245.807 104.009 246.273 103.838 246.845 103.514C247.53 103.133 248.054 102.685 248.417 102.172C248.511 102.057 248.587 102.086 248.644 102.257C248.777 102.581 248.827 102.952 248.788 103.371C248.75 103.695 248.683 103.905 248.587 104Z" fill="white"/>
<path d="M256.899 96.8869C256.899 96.5632 256.574 96.3914 255.928 96.3725C255.358 96.3353 254.66 96.5722 253.842 97.0869C253.061 97.6013 252.434 98.2199 251.958 98.9435C251.1 100.296 250.672 101.439 250.672 102.372C250.672 103.267 251.014 103.715 251.699 103.715C252.062 103.715 252.489 103.467 252.987 102.972C253.08 102.877 253.229 102.711 253.429 102.472C253.628 102.234 253.89 101.924 254.214 101.543C255.09 100.477 255.976 98.9823 256.87 97.0587C256.89 97.0208 256.899 96.9629 256.899 96.8869ZM263.07 104C262.27 104.8 261.337 105.286 260.27 105.457C260.042 105.495 259.803 105.524 259.557 105.543C259.309 105.562 259.05 105.572 258.785 105.572C257.451 105.572 256.541 105.396 256.056 105.043C255.57 104.691 255.328 104.229 255.328 103.657C255.328 103.391 255.404 102.972 255.556 102.4C255.576 102.324 255.576 102.268 255.556 102.229C255.517 102.21 255.466 102.229 255.4 102.286C255.333 102.343 255.28 102.41 255.243 102.486C254.956 103.057 254.442 103.677 253.7 104.343C252.632 105.296 251.614 105.771 250.642 105.771C249.708 105.771 248.986 105.457 248.472 104.829C247.939 104.239 247.672 103.467 247.672 102.515C247.672 101.277 248.053 99.9339 248.814 98.4868C249.576 97.0208 250.642 95.9065 252.014 95.1443C253.043 94.5726 254.081 94.2778 255.128 94.2588C255.909 94.2399 256.622 94.4018 257.27 94.7446C257.575 94.9155 257.784 94.8966 257.899 94.6867C258.032 94.4777 258.145 94.3258 258.243 94.23C258.395 94.078 258.546 93.9732 258.7 93.9161C258.889 93.8582 259.25 93.8873 259.783 94.0012C260.318 94.097 260.651 94.202 260.784 94.3159C260.975 94.5257 261.004 94.8114 260.871 95.1723C260.602 95.744 260.07 96.925 259.27 98.7147C258.965 99.4201 258.712 100.044 258.514 100.586C258.314 101.129 258.145 101.601 258.012 102C257.88 102.4 257.814 102.734 257.814 103C257.814 103.248 257.88 103.439 258.012 103.572C258.317 103.877 258.956 104.029 259.927 104.029C260.288 104.029 260.756 103.857 261.326 103.514C261.65 103.324 261.946 103.119 262.213 102.901C262.479 102.682 262.707 102.439 262.899 102.172C262.994 102.057 263.07 102.086 263.127 102.257C263.26 102.582 263.308 102.953 263.27 103.372C263.232 103.696 263.164 103.906 263.07 104Z" fill="white"/>
<path d="M271.036 103.998C270.237 104.799 269.304 105.284 268.236 105.455C267.705 105.55 267.218 105.598 266.78 105.598C265.656 105.598 264.79 105.408 264.181 105.027C263.247 104.418 262.829 103.475 262.923 102.198C262.943 101.761 263.191 100.733 263.667 99.1128C263.895 98.3134 264.067 97.7038 264.181 97.2852C264.294 96.8663 264.361 96.6375 264.381 96.5996C264.4 96.4657 264.313 96.3708 264.124 96.3138C263.97 96.3138 263.803 96.3088 263.625 96.2998C263.442 96.2899 263.238 96.2757 263.008 96.2561C262.838 96.2189 262.799 96.085 262.895 95.8571C262.934 95.7423 262.976 95.61 263.024 95.4565C263.072 95.3045 263.134 95.1237 263.21 94.9139C263.343 94.7238 263.543 94.628 263.809 94.628H264.267C264.4 94.6471 264.494 94.6562 264.553 94.6562H264.724C264.818 94.6562 264.931 94.562 265.066 94.3712C265.295 93.5527 265.542 92.6996 265.808 91.8141C266.076 90.9295 266.361 89.9913 266.665 89.0003C266.741 88.8102 266.942 88.6673 267.266 88.5715C267.97 88.3817 268.684 88.3817 269.408 88.5715C269.694 88.6673 269.798 88.9532 269.722 89.4288C269.456 90.2291 269.191 91.0427 268.923 91.8712C268.656 92.6996 268.39 93.5527 268.123 94.4283C268.086 94.6 268.162 94.7139 268.351 94.7709C268.58 94.7709 268.836 94.7759 269.123 94.7849C269.408 94.7948 269.713 94.8097 270.037 94.828C270.15 94.8469 270.227 94.9709 270.266 95.1997C270.303 95.4664 270.237 95.7901 270.065 96.1709C270.009 96.3237 269.885 96.4096 269.694 96.4278C269.77 96.4096 269.123 96.3988 267.753 96.3988C267.599 96.3988 267.485 96.4847 267.409 96.6565C267.2 97.418 266.966 98.2374 266.71 99.1128C266.451 99.9891 266.171 100.923 265.865 101.913C265.675 102.541 265.743 103.018 266.067 103.342C266.524 103.798 267.133 104.027 267.894 104.027C268.256 104.027 268.723 103.855 269.295 103.513C269.617 103.323 269.913 103.118 270.181 102.898C270.446 102.68 270.675 102.437 270.866 102.17C270.96 102.056 271.036 102.084 271.094 102.256C271.227 102.58 271.275 102.951 271.236 103.37C271.197 103.693 271.132 103.904 271.036 103.998Z" fill="white"/>
<path d="M275.196 96.5281C274.729 96.8816 274.362 97.3424 274.096 97.9147C273.485 99.19 273.183 100.256 273.183 101.114C273.183 101.723 273.372 101.895 273.753 101.627C275.03 100.828 276 99.8564 276.668 98.7134C277.086 98.0089 277.295 97.4283 277.295 96.9706C277.295 96.3232 277.018 95.9995 276.468 95.9995C276.085 95.9995 275.662 96.1762 275.196 96.5281ZM282.067 103.999C281.267 104.799 280.334 105.294 279.268 105.485C278.428 105.656 277.486 105.741 276.438 105.741C274.249 105.741 272.706 105.379 271.812 104.656C270.783 103.799 270.268 102.618 270.268 101.114C270.268 99.7987 270.648 98.3897 271.41 96.8856C271.962 95.8004 272.735 94.9911 273.724 94.4575C274.543 93.9999 275.391 93.7711 276.268 93.7711C276.762 93.7711 277.153 93.8389 277.438 93.971C278.543 94.4476 279.096 95.3709 279.096 96.7436C279.096 97.0466 279.067 97.3712 279.009 97.7141C278.857 98.6275 278.171 99.7417 276.953 101.056C276.57 101.475 276.195 101.851 275.825 102.185C275.453 102.518 275.086 102.819 274.725 103.084C274.629 103.181 274.582 103.237 274.582 103.256C274.582 103.332 274.697 103.428 274.923 103.543C275.763 104.017 277.086 104.17 278.896 103.999C280.075 103.885 281.076 103.275 281.896 102.171C281.99 102.056 282.067 102.085 282.124 102.256C282.257 102.581 282.305 102.951 282.266 103.371C282.229 103.695 282.161 103.904 282.067 103.999Z" fill="white"/>
<path d="M287.495 100.201C287.495 99.4962 287.391 98.9147 287.182 98.4579C287.123 98.3249 287.047 98.2771 286.953 98.315C286.858 98.315 286.782 98.382 286.725 98.515C286.649 98.6867 286.201 99.3152 285.381 100.4C284.656 101.315 284.173 101.914 283.925 102.2C283.829 102.334 283.782 102.429 283.782 102.486C283.782 102.6 283.897 102.696 284.123 102.772C284.448 102.925 284.667 103.247 284.782 103.743C284.819 103.896 285.02 103.915 285.381 103.8C286.296 103.496 286.934 102.763 287.295 101.601C287.428 101.2 287.495 100.734 287.495 100.201ZM293.896 104C293.095 104.8 292.162 105.286 291.096 105.457C290.541 105.552 289.914 105.581 289.21 105.543C288.39 105.486 287.857 105.371 287.61 105.2C287.513 105.143 287.4 105.134 287.267 105.172C286.81 105.343 286.571 105.439 286.553 105.457C286.21 105.533 285.705 105.59 285.039 105.629C283.649 105.705 282.563 105.343 281.782 104.543C281.667 104.447 281.573 104.438 281.497 104.514C280.925 104.971 280.201 105.286 279.324 105.457C279.154 105.457 279.058 105.4 279.041 105.286C278.906 105 278.839 104.685 278.839 104.343C278.839 104.153 278.878 104.048 278.954 104.029C279.944 103.857 280.916 103.238 281.867 102.172C282.135 101.867 282.457 101.463 282.839 100.958C283.22 100.453 283.658 99.8488 284.154 99.1435C285.257 97.5825 285.894 96.5442 286.066 96.0298C286.086 95.8968 286.043 95.711 285.939 95.4723C285.832 95.2344 285.781 94.9916 285.781 94.7446C285.781 94.6686 285.786 94.5868 285.795 94.5018C285.806 94.4159 285.82 94.3259 285.839 94.2301C285.933 93.7543 286.238 93.3636 286.753 93.0588C287.306 92.7152 287.819 92.5543 288.296 92.5732C289.229 92.6113 289.686 92.9828 289.666 93.6873C289.628 93.9353 289.505 94.259 289.295 94.6587C289.162 94.9254 289.057 95.1402 288.981 95.3012C288.905 95.4631 288.848 95.583 288.809 95.658C288.715 95.9256 288.715 96.0967 288.809 96.1727C288.999 96.3253 289.181 96.5343 289.353 96.8012C289.525 97.0679 289.705 97.3916 289.895 97.7724C290.37 98.7057 290.591 99.6671 290.552 100.657C290.534 100.924 290.481 101.215 290.396 101.529C290.309 101.843 290.171 102.181 289.982 102.543C289.695 103.057 289.466 103.4 289.295 103.572C289.162 103.705 289.171 103.824 289.325 103.929C289.475 104.034 289.953 104.067 290.752 104.029C291.113 104.01 291.581 103.839 292.153 103.514C292.838 103.133 293.361 102.686 293.724 102.172C293.818 102.057 293.896 102.086 293.95 102.257C294.083 102.582 294.133 102.953 294.096 103.371C294.057 103.695 293.989 103.905 293.896 104Z" fill="white"/>
</g>
<defs>
<clipPath id="clip0_168_2773">
<rect width="301.24" height="150" fill="white" transform="translate(0.538574)"/>
</clipPath>
</defs>
</svg>
