<svg width="273" height="150" viewBox="0 0 273 150" fill="none" xmlns="http://www.w3.org/2000/svg">
<g clip-path="url(#clip0_168_2937)">
<path d="M81.8937 145.869C76.8522 145.869 72.891 141.783 72.891 136.606C72.891 131.429 76.8572 127.378 81.8937 127.378C83.2322 127.417 84.548 127.734 85.7576 128.308C86.9673 128.883 88.0444 129.702 88.9208 130.714L91.4216 127.488C88.8874 124.926 85.4426 123.469 81.8387 123.437C80.0938 123.407 78.3607 123.728 76.742 124.381C75.1233 125.033 73.652 126.003 72.4151 127.235C71.1783 128.466 70.2011 129.933 69.5415 131.549C68.8818 133.164 68.5531 134.896 68.5747 136.641C68.5747 144.183 74.3065 149.995 81.6937 149.995C85.3899 149.898 88.8992 148.349 91.4616 145.684L88.9609 142.758C87.1036 144.681 84.566 145.798 81.8937 145.869Z" fill="black"/>
<path d="M107.977 123.547L96.8384 149.81H101.275L103.685 143.883H116.404L118.82 149.81H123.376L112.373 123.547H107.977ZM105.271 139.942L110.027 128.253L114.784 139.922L105.271 139.942Z" fill="black"/>
<path d="M144.613 140.997L136.295 123.552H131.249V149.815H135.25V130.194L143.212 147.074H145.988L153.95 130.194L153.985 149.815H157.912V123.552H152.9L144.613 140.997Z" fill="black"/>
<path d="M179.158 123.547H169.105V149.81H173.356V141.898H179.158C185.5 141.898 189.161 138.442 189.161 132.515C189.141 126.813 185.5 123.547 179.158 123.547ZM178.983 137.921H173.356V127.528H178.983C182.869 127.528 185.07 129.174 185.07 132.63C185.07 136.191 182.894 137.921 178.983 137.921Z" fill="black"/>
<path d="M215.079 138.932C215.079 143.398 212.523 146.019 208.412 146.019C204.301 146.019 201.635 143.358 201.635 138.932V123.547H197.398V138.932C197.398 145.799 201.58 150 208.402 150C215.224 150 219.355 145.799 219.355 138.932V123.547H215.104L215.079 138.932Z" fill="black"/>
<path d="M233.805 130.254C233.805 128.494 235.43 127.513 237.916 127.513C239.826 127.513 242.562 128.228 245.303 129.954L247.069 126.053C244.455 124.305 241.385 123.366 238.241 123.352C232.764 123.352 229.053 126.163 229.053 130.664C229.053 140.007 242.672 136.746 242.672 142.598C242.672 144.623 240.907 145.789 237.951 145.789C235.25 145.789 232.004 144.433 229.408 141.958L227.573 145.789C230.358 148.428 234.039 149.915 237.876 149.95C243.428 149.95 247.379 147.064 247.379 142.373C247.414 132.93 233.805 136.006 233.805 130.254Z" fill="black"/>
<path d="M174.847 107.157C181.356 107.126 187.71 105.168 193.107 101.529C198.504 97.8902 202.702 92.7339 205.171 86.7111C207.639 80.6883 208.268 74.0691 206.978 67.6891C205.688 61.3091 202.537 55.4543 197.922 50.8639C193.307 46.2735 187.436 43.1532 181.049 41.897C174.662 40.6408 168.046 41.3049 162.037 43.8056C156.027 46.3063 150.893 50.5315 147.283 55.9476C143.673 61.3638 141.748 67.7281 141.752 74.2373C141.776 82.9912 145.276 91.3771 151.482 97.5507C157.689 103.724 166.093 107.18 174.847 107.157ZM174.847 56.9621C178.255 56.9789 181.582 58.0046 184.408 59.9099C187.234 61.8153 189.432 64.5148 190.726 67.6681C192.02 70.8213 192.35 74.287 191.677 77.628C191.003 80.969 189.355 84.0357 186.94 86.4412C184.526 88.8467 181.453 90.4832 178.109 91.1444C174.766 91.8056 171.301 91.4618 168.153 90.1564C165.005 88.851 162.313 86.6425 160.419 83.8094C158.524 80.9763 157.511 77.6455 157.507 74.2373C157.509 71.9643 157.96 69.7142 158.833 67.6156C159.706 65.5169 160.984 63.6109 162.594 62.0065C164.204 60.4021 166.114 59.1307 168.216 58.2652C170.317 57.3996 172.569 56.9568 174.842 56.9621H174.847Z" fill="black"/>
<path d="M68.8302 107.157H84.5849V75.1475C84.5849 65.4246 92.3473 57.5422 101.92 57.5422C111.493 57.5422 119.255 65.4246 119.255 75.1475V107.157H135.015V75.1475C135.015 56.5819 120.196 41.5324 101.92 41.5324C83.6446 41.5324 68.8252 56.5819 68.8252 75.1475L68.8302 107.157Z" fill="black"/>
<path d="M33.1043 75.5626C33.1083 73.4368 32.7113 71.3293 31.9339 69.3507L21.2657 41.5274H4.30566L23.1813 90.7422C29.0431 88.3564 33.1043 82.5147 33.1043 75.5626Z" fill="black"/>
<path d="M247.359 107.157L272.531 41.5274H255.571L230.394 107.157H247.359Z" fill="black"/>
<path d="M234.025 75.5626C234.031 73.4366 233.634 71.3286 232.854 69.3507L222.191 41.5274H205.226L224.107 90.7422C229.963 88.3564 234.025 82.5147 234.025 75.5626Z" fill="black"/>
<path d="M54.6357 41.5274L13.0933 149.835H30.0584L71.6008 41.5274H54.6357Z" fill="black"/>
<path d="M20.6406 19.806H8.93207L6.7014 25.2226H0.724609L11.958 0.0150146H17.7197L28.9931 25.2226H22.8713L20.6406 19.806ZM18.8 15.3746L14.7988 5.72173L10.7976 15.3746H18.8Z" fill="black"/>
<path d="M31.6187 0H37.4554V25.2226H31.6187V0Z" fill="black"/>
<path d="M59.3124 25.2226L53.2256 16.4699L47.2238 25.2226H40.5518L49.8796 12.4037L41.0169 0H47.6439L53.4406 8.17245L59.1323 0H65.4342L56.6466 12.1687L66.0494 25.2226H59.3124Z" fill="black"/>
</g>
<defs>
<clipPath id="clip0_168_2937">
<rect width="271.807" height="150" fill="white" transform="translate(0.724609)"/>
</clipPath>
</defs>
</svg>
